STARTFONT 2.1
FONT -Baekmuk-Headline-Medium-R-Normal--10-100-75-75-M-100-ksx1001.1997-0
SIZE 10 75 75
FONTBOUNDINGBOX 10 10 0 -2
STARTPROPERTIES 18
FOUNDRY "Baekmuk"
FAMILY_NAME "Headline"
WEIGHT_NAME "Medium"
SLANT "R"
SETWIDTH_NAME "Normal"
ADD_STYLE_NAME ""
PIXEL_SIZE 10
POINT_SIZE 100
RESOLUTION_X 75
RESOLUTION_Y 75
SPACING "M"
AVERAGE_WIDTH 100
CHARSET_REGISTRY "ksx1001.1997"
CHARSET_ENCODING "0"
DEFAULT_CHAR 8481
FONT_ASCENT 8
FONT_DESCENT 2
COPYRIGHT "(c)Hwan Design Inc. and Mizi Research Inc."
ENDPROPERTIES
CHARS 8224
STARTCHAR 3000
ENCODING 8481
SWIDTH 1200 0
DWIDTH 12 0
BBX 0 0 0 0
BITMAP
ENDCHAR
STARTCHAR 3001
ENCODING 8482
SWIDTH 1200 0
DWIDTH 12 0
BBX 1 1 7 7
BITMAP
80
ENDCHAR
STARTCHAR 3002
ENCODING 8483
SWIDTH 1200 0
DWIDTH 12 0
BBX 2 2 2 6
BITMAP
C0
C0
ENDCHAR
STARTCHAR 00B7
ENCODING 8484
SWIDTH 1200 0
DWIDTH 12 0
BBX 2 1 4 3
BITMAP
C0
ENDCHAR
STARTCHAR 2025
ENCODING 8485
SWIDTH 1200 0
DWIDTH 12 0
BBX 6 1 2 3
BITMAP
CC
ENDCHAR
STARTCHAR 2026
ENCODING 8486
SWIDTH 1200 0
DWIDTH 12 0
BBX 8 1 1 3
BITMAP
DB
ENDCHAR
STARTCHAR 00A8
ENCODING 8487
SWIDTH 1200 0
DWIDTH 12 0
BBX 6 1 2 7
BITMAP
CC
ENDCHAR
STARTCHAR 3003
ENCODING 8488
SWIDTH 1200 0
DWIDTH 12 0
BBX 5 4 2 1
BITMAP
68
48
90
10
ENDCHAR
STARTCHAR 00AD
ENCODING 8489
SWIDTH 1200 0
DWIDTH 12 0
BBX 4 1 3 2
BITMAP
F0
ENDCHAR
STARTCHAR 2015
ENCODING 8490
SWIDTH 1200 0
DWIDTH 12 0
BBX 6 1 2 2
BITMAP
FC
ENDCHAR
STARTCHAR 2225
ENCODING 8491
SWIDTH 1200 0
DWIDTH 12 0
BBX 4 6 3 0
BITMAP
F0
F0
F0
F0
F0
F0
ENDCHAR
STARTCHAR FF3C
ENCODING 8492
SWIDTH 1200 0
DWIDTH 12 0
BBX 8 8 1 -1
BITMAP
80
40
20
10
08
04
02
01
ENDCHAR
STARTCHAR 223C
ENCODING 8493
SWIDTH 1200 0
DWIDTH 12 0
BBX 6 2 2 2
BITMAP
F4
9C
ENDCHAR
STARTCHAR 2018
ENCODING 8494
SWIDTH 1200 0
DWIDTH 12 0
BBX 2 2 6 6
BITMAP
40
C0
ENDCHAR
STARTCHAR 2019
ENCODING 8495
SWIDTH 1200 0
DWIDTH 12 0
BBX 1 1 2 7
BITMAP
80
ENDCHAR
STARTCHAR 201C
ENCODING 8496
SWIDTH 1200 0
DWIDTH 12 0
BBX 4 2 5 6
BITMAP
50
F0
ENDCHAR
STARTCHAR 201D
ENCODING 8497
SWIDTH 1200 0
DWIDTH 12 0
BBX 4 2 1 6
BITMAP
F0
50
ENDCHAR
STARTCHAR 3014
ENCODING 8498
SWIDTH 1200 0
DWIDTH 12 0
BBX 3 10 6 -2
BITMAP
60
C0
C0
C0
C0
C0
C0
C0
C0
60
ENDCHAR
STARTCHAR 3015
ENCODING 8499
SWIDTH 1200 0
DWIDTH 12 0
BBX 3 10 1 -2
BITMAP
C0
E0
60
60
60
60
60
60
60
C0
ENDCHAR
STARTCHAR 3008
ENCODING 8500
SWIDTH 1200 0
DWIDTH 12 0
BBX 4 8 5 -1
BITMAP
30
60
40
C0
C0
40
60
30
ENDCHAR
STARTCHAR 3009
ENCODING 8501
SWIDTH 1200 0
DWIDTH 12 0
BBX 4 8 1 -1
BITMAP
C0
60
20
30
30
20
60
C0
ENDCHAR
STARTCHAR 300A
ENCODING 8502
SWIDTH 1200 0
DWIDTH 12 0
BBX 7 10 2 -2
BITMAP
10
36
2C
78
D0
D0
78
2C
36
10
ENDCHAR
STARTCHAR 300B
ENCODING 8503
SWIDTH 1200 0
DWIDTH 12 0
BBX 7 10 1 -2
BITMAP
10
D8
68
2C
36
36
2C
68
D8
10
ENDCHAR
STARTCHAR 300C
ENCODING 8504
SWIDTH 1200 0
DWIDTH 12 0
BBX 5 5 4 3
BITMAP
F8
C0
C0
C0
C0
ENDCHAR
STARTCHAR 300D
ENCODING 8505
SWIDTH 1200 0
DWIDTH 12 0
BBX 5 5 1 -2
BITMAP
18
18
18
18
F8
ENDCHAR
STARTCHAR 300E
ENCODING 8506
SWIDTH 1200 0
DWIDTH 12 0
BBX 5 5 5 3
BITMAP
F8
B8
A0
A0
E0
ENDCHAR
STARTCHAR 300F
ENCODING 8507
SWIDTH 1200 0
DWIDTH 12 0
BBX 5 5 0 -2
BITMAP
38
28
28
E8
F8
ENDCHAR
STARTCHAR 3010
ENCODING 8508
SWIDTH 1200 0
DWIDTH 12 0
BBX 3 10 6 -2
BITMAP
E0
C0
C0
C0
C0
C0
C0
C0
E0
E0
ENDCHAR
STARTCHAR 3011
ENCODING 8509
SWIDTH 1200 0
DWIDTH 12 0
BBX 3 10 1 -2
BITMAP
E0
60
60
60
60
60
60
60
E0
E0
ENDCHAR
STARTCHAR 00B1
ENCODING 8510
SWIDTH 1200 0
DWIDTH 12 0
BBX 7 6 2 0
BITMAP
30
30
FE
30
30
FC
ENDCHAR
STARTCHAR 00D7
ENCODING 8511
SWIDTH 1200 0
DWIDTH 12 0
BBX 6 6 2 0
BITMAP
84
48
30
30
48
84
ENDCHAR
STARTCHAR 00F7
ENCODING 8512
SWIDTH 1200 0
DWIDTH 12 0
BBX 6 6 2 0
BITMAP
30
00
00
FC
00
30
ENDCHAR
STARTCHAR 2260
ENCODING 8513
SWIDTH 1200 0
DWIDTH 12 0
BBX 6 6 2 0
BITMAP
40
FC
20
10
FC
08
ENDCHAR
STARTCHAR 2264
ENCODING 8514
SWIDTH 1200 0
DWIDTH 12 0
BBX 6 7 2 0
BITMAP
0C
38
C0
E0
1C
04
FC
ENDCHAR
STARTCHAR 2265
ENCODING 8515
SWIDTH 1200 0
DWIDTH 12 0
BBX 6 7 2 0
BITMAP
C0
70
1C
1C
E0
80
FC
ENDCHAR
STARTCHAR 221E
ENCODING 8516
SWIDTH 1200 0
DWIDTH 12 0
BBX 8 4 1 1
BITMAP
7E
D3
CB
7E
ENDCHAR
STARTCHAR 2234
ENCODING 8517
SWIDTH 1200 0
DWIDTH 12 0
BBX 8 6 1 0
BITMAP
18
00
00
00
00
C3
ENDCHAR
STARTCHAR 00B0
ENCODING 8518
SWIDTH 1200 0
DWIDTH 12 0
BBX 3 3 1 5
BITMAP
40
A0
40
ENDCHAR
STARTCHAR 2032
ENCODING 8519
SWIDTH 1200 0
DWIDTH 12 0
BBX 2 2 2 6
BITMAP
40
80
ENDCHAR
STARTCHAR 2033
ENCODING 8520
SWIDTH 1200 0
DWIDTH 12 0
BBX 3 2 1 6
BITMAP
20
A0
ENDCHAR
STARTCHAR 2103
ENCODING 8521
SWIDTH 1200 0
DWIDTH 12 0
BBX 8 7 1 0
BITMAP
C0
EF
31
30
30
31
1F
ENDCHAR
STARTCHAR 212B
ENCODING 8522
SWIDTH 1200 0
DWIDTH 12 0
BBX 6 8 2 0
BITMAP
30
30
00
30
78
78
CC
84
ENDCHAR
STARTCHAR FFE0
ENCODING 8523
SWIDTH 1200 0
DWIDTH 12 0
BBX 6 8 2 -1
BITMAP
18
78
FC
D0
E4
EC
78
40
ENDCHAR
STARTCHAR FFE1
ENCODING 8524
SWIDTH 1200 0
DWIDTH 12 0
BBX 8 8 1 -1
BITMAP
1E
33
30
7E
30
F0
BF
40
ENDCHAR
STARTCHAR FFE5
ENCODING 8525
SWIDTH 1200 0
DWIDTH 12 0
BBX 8 8 1 -1
BITMAP
C3
42
FF
3C
18
FF
18
18
ENDCHAR
STARTCHAR 2642
ENCODING 8526
SWIDTH 1200 0
DWIDTH 12 0
BBX 8 8 1 -1
BITMAP
18
3C
DB
18
18
3C
24
3C
ENDCHAR
STARTCHAR 2640
ENCODING 8527
SWIDTH 1200 0
DWIDTH 12 0
BBX 8 8 1 -1
BITMAP
38
6C
6C
38
18
FF
18
18
ENDCHAR
STARTCHAR 2220
ENCODING 8528
SWIDTH 1200 0
DWIDTH 12 0
BBX 8 6 1 0
BITMAP
02
04
08
30
60
FF
ENDCHAR
STARTCHAR 22A5
ENCODING 8529
SWIDTH 1200 0
DWIDTH 12 0
BBX 8 7 1 0
BITMAP
18
18
18
18
18
18
FF
ENDCHAR
STARTCHAR 2312
ENCODING 8530
SWIDTH 1200 0
DWIDTH 12 0
BBX 4 2 3 6
BITMAP
E0
90
ENDCHAR
STARTCHAR 2202
ENCODING 8531
SWIDTH 1200 0
DWIDTH 12 0
BBX 5 7 3 0
BITMAP
30
58
18
70
90
A0
E0
ENDCHAR
STARTCHAR 2207
ENCODING 8532
SWIDTH 1200 0
DWIDTH 12 0
BBX 8 6 1 0
BITMAP
FF
42
42
24
18
18
ENDCHAR
STARTCHAR 2261
ENCODING 8533
SWIDTH 1200 0
DWIDTH 12 0
BBX 8 6 1 0
BITMAP
FF
00
00
FF
00
FF
ENDCHAR
STARTCHAR 2252
ENCODING 8534
SWIDTH 1200 0
DWIDTH 12 0
BBX 8 8 1 -1
BITMAP
40
60
00
FF
FF
00
06
02
ENDCHAR
STARTCHAR 00A7
ENCODING 8535
SWIDTH 1200 0
DWIDTH 12 0
BBX 6 8 2 -1
BITMAP
F8
CC
F8
8C
7C
98
CC
78
ENDCHAR
STARTCHAR 203B
ENCODING 8536
SWIDTH 1200 0
DWIDTH 12 0
BBX 8 8 1 -1
BITMAP
18
C2
64
FF
D9
24
42
98
ENDCHAR
STARTCHAR 2606
ENCODING 8537
SWIDTH 1200 0
DWIDTH 12 0
BBX 8 7 1 -1
BITMAP
10
18
FF
44
24
7C
42
ENDCHAR
STARTCHAR 2605
ENCODING 8538
SWIDTH 1200 0
DWIDTH 12 0
BBX 8 7 1 -1
BITMAP
10
18
FF
3C
3C
64
42
ENDCHAR
STARTCHAR 25CB
ENCODING 8539
SWIDTH 1200 0
DWIDTH 12 0
BBX 10 8 0 -1
BITMAP
3F00
6180
8040
8040
8040
8040
6180
3F00
ENDCHAR
STARTCHAR 25CF
ENCODING 8540
SWIDTH 1200 0
DWIDTH 12 0
BBX 9 8 0 -1
BITMAP
1E00
7F80
7F80
FF80
FF80
7F80
7F80
1E00
ENDCHAR
STARTCHAR 25CE
ENCODING 8541
SWIDTH 1200 0
DWIDTH 12 0
BBX 10 8 0 -1
BITMAP
3F00
7F80
B340
A140
A140
B340
7F80
3F00
ENDCHAR
STARTCHAR 25C7
ENCODING 8542
SWIDTH 1200 0
DWIDTH 12 0
BBX 8 8 1 -1
BITMAP
18
24
42
81
81
42
24
18
ENDCHAR
STARTCHAR 25C6
ENCODING 8543
SWIDTH 1200 0
DWIDTH 12 0
BBX 8 8 1 -1
BITMAP
18
3C
7E
FF
FF
7E
3C
18
ENDCHAR
STARTCHAR 25A1
ENCODING 8544
SWIDTH 1200 0
DWIDTH 12 0
BBX 8 8 1 -1
BITMAP
FF
81
81
81
81
81
81
FF
ENDCHAR
STARTCHAR 25A0
ENCODING 8545
SWIDTH 1200 0
DWIDTH 12 0
BBX 8 8 1 -1
BITMAP
FF
FF
FF
FF
FF
FF
FF
FF
ENDCHAR
STARTCHAR 25B3
ENCODING 8546
SWIDTH 1200 0
DWIDTH 12 0
BBX 8 5 1 0
BITMAP
38
24
42
81
FF
ENDCHAR
STARTCHAR 25B2
ENCODING 8547
SWIDTH 1200 0
DWIDTH 12 0
BBX 9 6 0 0
BITMAP
0C00
1E00
1E00
3F00
7F80
FF80
ENDCHAR
STARTCHAR 25BD
ENCODING 8548
SWIDTH 1200 0
DWIDTH 12 0
BBX 8 6 1 0
BITMAP
FF
81
42
24
24
18
ENDCHAR
STARTCHAR 25BC
ENCODING 8549
SWIDTH 1200 0
DWIDTH 12 0
BBX 8 6 1 0
BITMAP
FF
FF
7E
3C
3C
18
ENDCHAR
STARTCHAR 2192
ENCODING 8550
SWIDTH 1200 0
DWIDTH 12 0
BBX 8 2 1 2
BITMAP
03
FF
ENDCHAR
STARTCHAR 2190
ENCODING 8551
SWIDTH 1200 0
DWIDTH 12 0
BBX 9 2 1 2
BITMAP
FF80
C000
ENDCHAR
STARTCHAR 2191
ENCODING 8552
SWIDTH 1200 0
DWIDTH 12 0
BBX 2 7 4 -1
BITMAP
C0
40
40
40
40
40
40
ENDCHAR
STARTCHAR 2193
ENCODING 8553
SWIDTH 1200 0
DWIDTH 12 0
BBX 2 8 4 0
BITMAP
C0
C0
C0
C0
C0
C0
C0
C0
ENDCHAR
STARTCHAR 2194
ENCODING 8554
SWIDTH 1200 0
DWIDTH 12 0
BBX 8 2 1 2
BITMAP
FF
C3
ENDCHAR
STARTCHAR 3013
ENCODING 8555
SWIDTH 1200 0
DWIDTH 12 0
BBX 10 4 0 1
BITMAP
FFC0
0000
0000
FFC0
ENDCHAR
STARTCHAR 226A
ENCODING 8556
SWIDTH 1200 0
DWIDTH 12 0
BBX 8 10 1 -2
BITMAP
09
1B
36
6C
D8
D8
6C
36
1B
01
ENDCHAR
STARTCHAR 226B
ENCODING 8557
SWIDTH 1200 0
DWIDTH 12 0
BBX 8 10 1 -2
BITMAP
10
D8
6C
36
1B
1B
34
68
D0
80
ENDCHAR
STARTCHAR 221A
ENCODING 8558
SWIDTH 1200 0
DWIDTH 12 0
BBX 10 9 0 -2
BITMAP
07C0
0C00
0800
0800
1000
D000
3000
2000
2000
ENDCHAR
STARTCHAR 223D
ENCODING 8559
SWIDTH 1200 0
DWIDTH 12 0
BBX 10 5 0 1
BITMAP
0100
7BC0
C4C0
C8C0
7780
ENDCHAR
STARTCHAR 221D
ENCODING 8560
SWIDTH 1200 0
DWIDTH 12 0
BBX 9 6 0 0
BITMAP
0100
7F80
C400
C400
FF80
2000
ENDCHAR
STARTCHAR 2235
ENCODING 8561
SWIDTH 1200 0
DWIDTH 12 0
BBX 6 6 2 0
BITMAP
84
84
00
00
30
30
ENDCHAR
STARTCHAR 222B
ENCODING 8562
SWIDTH 1200 0
DWIDTH 12 0
BBX 6 8 2 -1
BITMAP
1C
10
30
30
30
30
30
E0
ENDCHAR
STARTCHAR 222C
ENCODING 8563
SWIDTH 1200 0
DWIDTH 12 0
BBX 9 8 0 -1
BITMAP
1F80
1200
3600
3600
3600
3600
3600
FC00
ENDCHAR
STARTCHAR 2208
ENCODING 8564
SWIDTH 1200 0
DWIDTH 12 0
BBX 8 6 1 0
BITMAP
3F
40
80
FF
60
3F
ENDCHAR
STARTCHAR 220B
ENCODING 8565
SWIDTH 1200 0
DWIDTH 12 0
BBX 8 6 1 0
BITMAP
FC
02
01
FF
02
FC
ENDCHAR
STARTCHAR 2286
ENCODING 8566
SWIDTH 1200 0
DWIDTH 12 0
BBX 6 6 2 0
BITMAP
7C
80
80
FC
00
FC
ENDCHAR
STARTCHAR 2287
ENCODING 8567
SWIDTH 1200 0
DWIDTH 12 0
BBX 7 6 2 0
BITMAP
F8
06
06
FC
00
FC
ENDCHAR
STARTCHAR 2282
ENCODING 8568
SWIDTH 1200 0
DWIDTH 12 0
BBX 8 5 1 0
BITMAP
7F
C0
C0
60
3F
ENDCHAR
STARTCHAR 2283
ENCODING 8569
SWIDTH 1200 0
DWIDTH 12 0
BBX 8 6 1 0
BITMAP
FC
06
03
03
06
FC
ENDCHAR
STARTCHAR 222A
ENCODING 8570
SWIDTH 1200 0
DWIDTH 12 0
BBX 6 7 2 -1
BITMAP
CC
CC
CC
CC
CC
CC
78
ENDCHAR
STARTCHAR 2229
ENCODING 8571
SWIDTH 1200 0
DWIDTH 12 0
BBX 6 7 2 -1
BITMAP
78
CC
CC
CC
CC
CC
CC
ENDCHAR
STARTCHAR 2227
ENCODING 8572
SWIDTH 1200 0
DWIDTH 12 0
BBX 7 6 1 -1
BITMAP
18
18
2C
24
46
C2
ENDCHAR
STARTCHAR 2228
ENCODING 8573
SWIDTH 1200 0
DWIDTH 12 0
BBX 6 6 2 0
BITMAP
84
84
48
58
30
30
ENDCHAR
STARTCHAR FFE2
ENCODING 8574
SWIDTH 1200 0
DWIDTH 12 0
BBX 8 6 1 1
BITMAP
FF
03
03
03
03
03
ENDCHAR
STARTCHAR 21D2
ENCODING 8737
SWIDTH 1200 0
DWIDTH 12 0
BBX 8 4 1 1
BITMAP
04
FF
FF
04
ENDCHAR
STARTCHAR 21D4
ENCODING 8738
SWIDTH 1200 0
DWIDTH 12 0
BBX 8 4 1 1
BITMAP
66
FF
FF
66
ENDCHAR
STARTCHAR 2200
ENCODING 8739
SWIDTH 1200 0
DWIDTH 12 0
BBX 6 7 2 0
BITMAP
84
CC
FC
48
78
30
30
ENDCHAR
STARTCHAR 2203
ENCODING 8740
SWIDTH 1200 0
DWIDTH 12 0
BBX 7 7 1 0
BITMAP
FE
06
06
FE
06
06
FE
ENDCHAR
STARTCHAR 00B4
ENCODING 8741
SWIDTH 1200 0
DWIDTH 12 0
BBX 2 2 4 6
BITMAP
C0
80
ENDCHAR
STARTCHAR FF5E
ENCODING 8742
SWIDTH 1200 0
DWIDTH 12 0
BBX 4 2 3 6
BITMAP
40
B0
ENDCHAR
STARTCHAR 02C7
ENCODING 8743
SWIDTH 1200 0
DWIDTH 12 0
BBX 4 2 3 6
BITMAP
90
60
ENDCHAR
STARTCHAR 02D8
ENCODING 8744
SWIDTH 1200 0
DWIDTH 12 0
BBX 4 2 3 6
BITMAP
90
F0
ENDCHAR
STARTCHAR 02DD
ENCODING 8745
SWIDTH 1200 0
DWIDTH 12 0
BBX 4 2 3 6
BITMAP
F0
A0
ENDCHAR
STARTCHAR 02DA
ENCODING 8746
SWIDTH 1200 0
DWIDTH 12 0
BBX 3 3 4 5
BITMAP
C0
A0
C0
ENDCHAR
STARTCHAR 02D9
ENCODING 8747
SWIDTH 1200 0
DWIDTH 12 0
BBX 2 3 4 5
BITMAP
C0
C0
C0
ENDCHAR
STARTCHAR 00B8
ENCODING 8748
SWIDTH 1200 0
DWIDTH 12 0
BBX 3 3 4 -1
BITMAP
C0
60
C0
ENDCHAR
STARTCHAR 02DB
ENCODING 8749
SWIDTH 1200 0
DWIDTH 12 0
BBX 3 3 4 -1
BITMAP
E0
80
60
ENDCHAR
STARTCHAR 00A1
ENCODING 8750
SWIDTH 1200 0
DWIDTH 12 0
BBX 2 8 4 -1
BITMAP
C0
40
C0
C0
C0
C0
C0
C0
ENDCHAR
STARTCHAR 00BF
ENCODING 8751
SWIDTH 1200 0
DWIDTH 12 0
BBX 5 8 3 -1
BITMAP
30
00
30
30
70
80
98
F0
ENDCHAR
STARTCHAR 02D0
ENCODING 8752
SWIDTH 1200 0
DWIDTH 12 0
BBX 2 6 4 0
BITMAP
C0
00
00
00
00
C0
ENDCHAR
STARTCHAR 222E
ENCODING 8753
SWIDTH 1200 0
DWIDTH 12 0
BBX 8 8 1 -1
BITMAP
0E
19
1C
7E
7E
3C
18
F0
ENDCHAR
STARTCHAR 2211
ENCODING 8754
SWIDTH 1200 0
DWIDTH 12 0
BBX 8 8 1 -1
BITMAP
FF
61
21
10
18
30
60
7F
ENDCHAR
STARTCHAR 220F
ENCODING 8755
SWIDTH 1200 0
DWIDTH 12 0
BBX 8 8 1 -1
BITMAP
FF
66
66
66
66
66
66
66
ENDCHAR
STARTCHAR 00A4
ENCODING 8756
SWIDTH 1200 0
DWIDTH 12 0
BBX 10 8 0 -1
BITMAP
8040
7F80
7300
6180
6180
3300
7F80
8040
ENDCHAR
STARTCHAR 2109
ENCODING 8757
SWIDTH 1200 0
DWIDTH 12 0
BBX 10 8 0 -1
BITMAP
0FC0
6C00
EC00
0F80
0C00
0C00
0C00
0C00
ENDCHAR
STARTCHAR 2030
ENCODING 8758
SWIDTH 1200 0
DWIDTH 12 0
BBX 10 8 0 -1
BITMAP
2200
5400
D800
F000
1FC0
2B40
4D80
8900
ENDCHAR
STARTCHAR 25C1
ENCODING 8759
SWIDTH 1200 0
DWIDTH 12 0
BBX 6 8 3 -1
BITMAP
04
1C
64
84
84
64
1C
04
ENDCHAR
STARTCHAR 25C0
ENCODING 8760
SWIDTH 1200 0
DWIDTH 12 0
BBX 7 8 2 -1
BITMAP
02
0E
3E
FE
FE
3E
0E
02
ENDCHAR
STARTCHAR 25B7
ENCODING 8761
SWIDTH 1200 0
DWIDTH 12 0
BBX 7 8 2 -1
BITMAP
80
E0
D0
CC
C6
C8
F0
80
ENDCHAR
STARTCHAR 25B6
ENCODING 8762
SWIDTH 1200 0
DWIDTH 12 0
BBX 6 8 2 -1
BITMAP
80
C0
F0
FC
FC
F0
C0
80
ENDCHAR
STARTCHAR 2664
ENCODING 8763
SWIDTH 1200 0
DWIDTH 12 0
BBX 8 7 1 -1
BITMAP
38
44
82
81
BF
7E
38
ENDCHAR
STARTCHAR 2660
ENCODING 8764
SWIDTH 1200 0
DWIDTH 12 0
BBX 7 7 1 -1
BITMAP
18
3C
7E
FE
FE
7C
38
ENDCHAR
STARTCHAR 2661
ENCODING 8765
SWIDTH 1200 0
DWIDTH 12 0
BBX 8 8 1 -1
BITMAP
7E
99
81
82
42
44
28
18
ENDCHAR
STARTCHAR 2665
ENCODING 8766
SWIDTH 1200 0
DWIDTH 12 0
BBX 8 8 1 -1
BITMAP
7E
FF
FF
7E
7E
3C
18
18
ENDCHAR
STARTCHAR 2667
ENCODING 8767
SWIDTH 1200 0
DWIDTH 12 0
BBX 10 8 1 -1
BITMAP
1800
2400
2400
FF00
80C0
94C0
F780
1C00
ENDCHAR
STARTCHAR 2663
ENCODING 8768
SWIDTH 1200 0
DWIDTH 12 0
BBX 8 8 1 -1
BITMAP
1C
3C
3C
FF
FF
FF
5A
18
ENDCHAR
STARTCHAR 2299
ENCODING 8769
SWIDTH 1200 0
DWIDTH 12 0
BBX 10 9 0 -1
BITMAP
1E00
6180
4C80
BE80
BF40
BF80
5E80
6100
1E00
ENDCHAR
STARTCHAR 25C8
ENCODING 8770
SWIDTH 1200 0
DWIDTH 12 0
BBX 10 9 0 -1
BITMAP
0400
1E00
3700
7F80
FFC0
5E80
2D00
1200
0C00
ENDCHAR
STARTCHAR 25A3
ENCODING 8771
SWIDTH 1200 0
DWIDTH 12 0
BBX 9 8 1 -1
BITMAP
FF80
8080
FE80
FE80
FE80
FE80
FE80
FF80
ENDCHAR
STARTCHAR 25D0
ENCODING 8772
SWIDTH 1200 0
DWIDTH 12 0
BBX 9 9 1 -1
BITMAP
3E00
7300
F180
F080
F080
F080
F180
7300
3E00
ENDCHAR
STARTCHAR 25D1
ENCODING 8773
SWIDTH 1200 0
DWIDTH 12 0
BBX 9 9 0 -1
BITMAP
3E00
6700
C780
8780
8780
8780
C780
6700
3E00
ENDCHAR
STARTCHAR 2592
ENCODING 8774
SWIDTH 1200 0
DWIDTH 12 0
BBX 9 9 0 -2
BITMAP
FF80
D280
AD80
D280
AC80
9080
A480
9080
6F00
ENDCHAR
STARTCHAR 25A4
ENCODING 8775
SWIDTH 1200 0
DWIDTH 12 0
BBX 10 9 0 -1
BITMAP
FFC0
8040
FFC0
FFC0
FFC0
8040
FFC0
FFC0
FFC0
ENDCHAR
STARTCHAR 25A5
ENCODING 8776
SWIDTH 1200 0
DWIDTH 12 0
BBX 10 9 0 -1
BITMAP
FFC0
B740
B740
B740
B740
B740
B740
B740
FFC0
ENDCHAR
STARTCHAR 25A8
ENCODING 8777
SWIDTH 1200 0
DWIDTH 12 0
BBX 10 9 0 -1
BITMAP
FFC0
D6C0
AF40
D6C0
AD40
DAC0
BD40
DEC0
FFC0
ENDCHAR
STARTCHAR 25A7
ENCODING 8778
SWIDTH 1200 0
DWIDTH 12 0
BBX 10 9 0 -1
BITMAP
FFC0
D6C0
AD40
DAC0
AD40
D6C0
AF40
DEC0
FFC0
ENDCHAR
STARTCHAR 25A6
ENCODING 8779
SWIDTH 1200 0
DWIDTH 12 0
BBX 10 9 0 -2
BITMAP
FFC0
FFC0
FFC0
FFC0
B6C0
FFC0
FFC0
B6C0
FFC0
ENDCHAR
STARTCHAR 25A9
ENCODING 8780
SWIDTH 1200 0
DWIDTH 12 0
BBX 9 8 1 -1
BITMAP
FF80
FF80
FF80
FF80
FF80
FF80
FF80
FF80
ENDCHAR
STARTCHAR 2668
ENCODING 8781
SWIDTH 1200 0
DWIDTH 12 0
BBX 11 9 0 -1
BITMAP
0600
1E00
1E00
1E00
1E00
3EC0
DA60
F8C0
3F80
ENDCHAR
STARTCHAR 260F
ENCODING 8782
SWIDTH 1200 0
DWIDTH 12 0
BBX 10 7 0 -1
BITMAP
3F00
FD80
ED40
B3C0
5280
4C80
7F80
ENDCHAR
STARTCHAR 260E
ENCODING 8783
SWIDTH 1200 0
DWIDTH 12 0
BBX 10 7 0 -1
BITMAP
3F80
F3C0
FFC0
2100
6180
6180
7F80
ENDCHAR
STARTCHAR 261C
ENCODING 8784
SWIDTH 1200 0
DWIDTH 12 0
BBX 10 5 0 0
BITMAP
7FC0
F6C0
3EC0
3FC0
1E00
ENDCHAR
STARTCHAR 261E
ENCODING 8785
SWIDTH 1200 0
DWIDTH 12 0
BBX 10 5 0 0
BITMAP
FF80
DBC0
FF00
FF00
1E00
ENDCHAR
STARTCHAR 00B6
ENCODING 8786
SWIDTH 1200 0
DWIDTH 12 0
BBX 6 8 2 -1
BITMAP
74
F4
F4
74
34
34
34
34
ENDCHAR
STARTCHAR 2020
ENCODING 8787
SWIDTH 1200 0
DWIDTH 12 0
BBX 6 8 2 -1
BITMAP
30
30
FC
30
30
30
30
30
ENDCHAR
STARTCHAR 2021
ENCODING 8788
SWIDTH 1200 0
DWIDTH 12 0
BBX 6 8 2 -1
BITMAP
30
FC
30
FC
30
30
30
30
ENDCHAR
STARTCHAR 2195
ENCODING 8789
SWIDTH 1200 0
DWIDTH 12 0
BBX 3 7 4 0
BITMAP
40
E0
C0
C0
C0
C0
C0
ENDCHAR
STARTCHAR 2197
ENCODING 8790
SWIDTH 1200 0
DWIDTH 12 0
BBX 8 8 1 -1
BITMAP
03
03
04
08
10
20
C0
80
ENDCHAR
STARTCHAR 2199
ENCODING 8791
SWIDTH 1200 0
DWIDTH 12 0
BBX 8 8 1 -1
BITMAP
01
03
06
08
10
20
C0
C0
ENDCHAR
STARTCHAR 2196
ENCODING 8792
SWIDTH 1200 0
DWIDTH 12 0
BBX 8 8 1 -1
BITMAP
80
C0
40
30
08
04
02
01
ENDCHAR
STARTCHAR 2198
ENCODING 8793
SWIDTH 1200 0
DWIDTH 12 0
BBX 8 8 1 -1
BITMAP
80
C0
60
10
08
04
03
03
ENDCHAR
STARTCHAR 266D
ENCODING 8794
SWIDTH 1200 0
DWIDTH 12 0
BBX 5 8 3 -1
BITMAP
C0
C0
C0
F0
D8
D8
D0
E0
ENDCHAR
STARTCHAR 2669
ENCODING 8795
SWIDTH 1200 0
DWIDTH 12 0
BBX 4 8 3 -1
BITMAP
30
30
30
30
30
30
30
F0
ENDCHAR
STARTCHAR 266A
ENCODING 8796
SWIDTH 1200 0
DWIDTH 12 0
BBX 5 9 3 -2
BITMAP
40
70
58
48
48
50
40
C0
80
ENDCHAR
STARTCHAR 266C
ENCODING 8797
SWIDTH 1200 0
DWIDTH 12 0
BBX 9 8 1 -1
BITMAP
0780
3980
3F80
3180
2180
2180
2380
E200
ENDCHAR
STARTCHAR 327F
ENCODING 8798
SWIDTH 1200 0
DWIDTH 12 0
BBX 9 8 1 -1
BITMAP
3C00
4300
B500
B800
FF80
B580
4300
3C00
ENDCHAR
STARTCHAR 321C
ENCODING 8799
SWIDTH 1200 0
DWIDTH 12 0
BBX 10 8 0 -1
BITMAP
6180
7F80
DEC0
F3C0
FFC0
FFC0
4C80
6D80
ENDCHAR
STARTCHAR 2116
ENCODING 8800
SWIDTH 1200 0
DWIDTH 12 0
BBX 10 7 0 0
BITMAP
C800
CB00
EC80
EC80
DC80
DC80
CB40
ENDCHAR
STARTCHAR 33C7
ENCODING 8801
SWIDTH 1200 0
DWIDTH 12 0
BBX 10 7 0 0
BITMAP
7800
C000
8780
8CC0
CCC0
4CC0
77C0
ENDCHAR
STARTCHAR 2122
ENCODING 8802
SWIDTH 1200 0
DWIDTH 12 0
BBX 10 7 0 0
BITMAP
FE40
3640
37C0
37C0
37C0
37C0
37C0
ENDCHAR
STARTCHAR 33C2
ENCODING 8803
SWIDTH 1200 0
DWIDTH 12 0
BBX 10 4 0 0
BITMAP
E780
6780
A780
EFC0
ENDCHAR
STARTCHAR 33D8
ENCODING 8804
SWIDTH 1200 0
DWIDTH 12 0
BBX 10 6 0 -2
BITMAP
FF80
DF80
FF80
DFC0
C000
C000
ENDCHAR
STARTCHAR 2121
ENCODING 8805
SWIDTH 1200 0
DWIDTH 12 0
BBX 10 7 0 0
BITMAP
FCC0
30C0
3EC0
3BC0
3FC0
39C0
3FC0
ENDCHAR
STARTCHAR FF01
ENCODING 8993
SWIDTH 1200 0
DWIDTH 12 0
BBX 2 8 4 0
BITMAP
C0
C0
C0
C0
C0
C0
C0
C0
ENDCHAR
STARTCHAR FF02
ENCODING 8994
SWIDTH 1200 0
DWIDTH 12 0
BBX 4 3 3 5
BITMAP
F0
F0
F0
ENDCHAR
STARTCHAR FF03
ENCODING 8995
SWIDTH 1200 0
DWIDTH 12 0
BBX 6 8 2 0
BITMAP
08
28
FC
48
58
FC
50
D0
ENDCHAR
STARTCHAR FF04
ENCODING 8996
SWIDTH 1200 0
DWIDTH 12 0
BBX 6 7 2 0
BITMAP
30
F8
F0
78
B4
FC
30
ENDCHAR
STARTCHAR FF05
ENCODING 8997
SWIDTH 1200 0
DWIDTH 12 0
BBX 8 7 1 0
BITMAP
E4
EC
E8
7F
1F
2F
26
ENDCHAR
STARTCHAR FF06
ENCODING 8998
SWIDTH 1200 0
DWIDTH 12 0
BBX 6 7 2 0
BITMAP
78
58
70
70
DC
8C
F4
ENDCHAR
STARTCHAR FF07
ENCODING 8999
SWIDTH 1200 0
DWIDTH 12 0
BBX 2 3 4 5
BITMAP
C0
C0
C0
ENDCHAR
STARTCHAR FF08
ENCODING 9000
SWIDTH 1200 0
DWIDTH 12 0
BBX 3 10 5 -2
BITMAP
60
40
C0
C0
C0
C0
C0
C0
40
60
ENDCHAR
STARTCHAR FF09
ENCODING 9001
SWIDTH 1200 0
DWIDTH 12 0
BBX 3 10 1 -2
BITMAP
C0
40
60
60
60
60
60
60
40
C0
ENDCHAR
STARTCHAR FF0A
ENCODING 9002
SWIDTH 1200 0
DWIDTH 12 0
BBX 4 2 3 2
BITMAP
F0
60
ENDCHAR
STARTCHAR FF0B
ENCODING 9003
SWIDTH 1200 0
DWIDTH 12 0
BBX 6 5 2 0
BITMAP
30
30
FC
30
30
ENDCHAR
STARTCHAR FF0C
ENCODING 9004
SWIDTH 1200 0
DWIDTH 12 0
BBX 2 2 2 -1
BITMAP
C0
C0
ENDCHAR
STARTCHAR FF0D
ENCODING 9005
SWIDTH 1200 0
DWIDTH 12 0
BBX 2 1 4 2
BITMAP
C0
ENDCHAR
STARTCHAR FF0E
ENCODING 9006
SWIDTH 1200 0
DWIDTH 12 0
BBX 2 2 2 -1
BITMAP
C0
C0
ENDCHAR
STARTCHAR FF0F
ENCODING 9007
SWIDTH 1200 0
DWIDTH 12 0
BBX 3 7 3 0
BITMAP
20
20
20
40
40
40
C0
ENDCHAR
STARTCHAR FF10
ENCODING 9008
SWIDTH 1200 0
DWIDTH 12 0
BBX 6 7 2 0
BITMAP
78
CC
CC
CC
CC
CC
78
ENDCHAR
STARTCHAR FF11
ENCODING 9009
SWIDTH 1200 0
DWIDTH 12 0
BBX 3 7 3 0
BITMAP
60
E0
60
60
60
60
60
ENDCHAR
STARTCHAR FF12
ENCODING 9010
SWIDTH 1200 0
DWIDTH 12 0
BBX 5 7 2 0
BITMAP
78
C8
08
18
30
60
F8
ENDCHAR
STARTCHAR FF13
ENCODING 9011
SWIDTH 1200 0
DWIDTH 12 0
BBX 5 7 2 0
BITMAP
70
D8
18
38
08
C8
70
ENDCHAR
STARTCHAR FF14
ENCODING 9012
SWIDTH 1200 0
DWIDTH 12 0
BBX 6 7 2 0
BITMAP
18
38
78
58
D8
FC
18
ENDCHAR
STARTCHAR FF15
ENCODING 9013
SWIDTH 1200 0
DWIDTH 12 0
BBX 6 7 2 0
BITMAP
7C
40
78
0C
0C
CC
78
ENDCHAR
STARTCHAR FF16
ENCODING 9014
SWIDTH 1200 0
DWIDTH 12 0
BBX 6 8 2 0
BITMAP
10
7C
C0
F8
CC
CC
CC
78
ENDCHAR
STARTCHAR FF17
ENCODING 9015
SWIDTH 1200 0
DWIDTH 12 0
BBX 5 7 2 0
BITMAP
F8
18
10
30
20
20
60
ENDCHAR
STARTCHAR FF18
ENCODING 9016
SWIDTH 1200 0
DWIDTH 12 0
BBX 6 7 2 0
BITMAP
78
CC
5C
78
CC
CC
78
ENDCHAR
STARTCHAR FF19
ENCODING 9017
SWIDTH 1200 0
DWIDTH 12 0
BBX 6 7 2 0
BITMAP
78
CC
CC
7C
0C
CC
78
ENDCHAR
STARTCHAR FF1A
ENCODING 9018
SWIDTH 1200 0
DWIDTH 12 0
BBX 2 6 4 0
BITMAP
C0
00
00
00
00
C0
ENDCHAR
STARTCHAR FF1B
ENCODING 9019
SWIDTH 1200 0
DWIDTH 12 0
BBX 2 7 4 -1
BITMAP
C0
00
00
00
00
C0
80
ENDCHAR
STARTCHAR FF1C
ENCODING 9020
SWIDTH 1200 0
DWIDTH 12 0
BBX 6 6 2 0
BITMAP
04
1C
E0
E0
38
0C
ENDCHAR
STARTCHAR FF1D
ENCODING 9021
SWIDTH 1200 0
DWIDTH 12 0
BBX 6 4 2 1
BITMAP
FC
00
00
FC
ENDCHAR
STARTCHAR FF1E
ENCODING 9022
SWIDTH 1200 0
DWIDTH 12 0
BBX 6 6 2 0
BITMAP
80
E0
3C
18
E0
80
ENDCHAR
STARTCHAR FF1F
ENCODING 9023
SWIDTH 1200 0
DWIDTH 12 0
BBX 5 7 2 0
BITMAP
78
C8
08
18
30
20
30
ENDCHAR
STARTCHAR FF20
ENCODING 9024
SWIDTH 1200 0
DWIDTH 12 0
BBX 9 7 1 0
BITMAP
3E00
6B00
FB00
EB00
FF00
7D80
3E00
ENDCHAR
STARTCHAR FF21
ENCODING 9025
SWIDTH 1200 0
DWIDTH 12 0
BBX 8 7 1 0
BITMAP
18
18
3C
24
7E
46
C3
ENDCHAR
STARTCHAR FF22
ENCODING 9026
SWIDTH 1200 0
DWIDTH 12 0
BBX 6 7 2 0
BITMAP
F8
C4
C4
F8
CC
CC
F8
ENDCHAR
STARTCHAR FF23
ENCODING 9027
SWIDTH 1200 0
DWIDTH 12 0
BBX 7 7 1 0
BITMAP
3C
66
C0
C0
C0
66
3C
ENDCHAR
STARTCHAR FF24
ENCODING 9028
SWIDTH 1200 0
DWIDTH 12 0
BBX 7 7 2 0
BITMAP
FC
CE
C6
C6
C6
CE
F8
ENDCHAR
STARTCHAR FF25
ENCODING 9029
SWIDTH 1200 0
DWIDTH 12 0
BBX 6 7 2 0
BITMAP
FC
C0
C0
FC
C0
C0
FC
ENDCHAR
STARTCHAR FF26
ENCODING 9030
SWIDTH 1200 0
DWIDTH 12 0
BBX 6 7 2 0
BITMAP
FC
C0
C0
F8
C0
C0
C0
ENDCHAR
STARTCHAR FF27
ENCODING 9031
SWIDTH 1200 0
DWIDTH 12 0
BBX 7 7 1 0
BITMAP
3C
66
C0
DE
C6
6E
38
ENDCHAR
STARTCHAR FF28
ENCODING 9032
SWIDTH 1200 0
DWIDTH 12 0
BBX 6 7 2 0
BITMAP
CC
CC
CC
FC
CC
CC
CC
ENDCHAR
STARTCHAR FF29
ENCODING 9033
SWIDTH 1200 0
DWIDTH 12 0
BBX 2 7 4 0
BITMAP
C0
C0
C0
C0
C0
C0
C0
ENDCHAR
STARTCHAR FF2A
ENCODING 9034
SWIDTH 1200 0
DWIDTH 12 0
BBX 7 7 2 0
BITMAP
7E
18
18
18
18
98
F0
ENDCHAR
STARTCHAR FF2B
ENCODING 9035
SWIDTH 1200 0
DWIDTH 12 0
BBX 7 7 2 0
BITMAP
C4
C8
F0
F0
D8
CC
C6
ENDCHAR
STARTCHAR FF2C
ENCODING 9036
SWIDTH 1200 0
DWIDTH 12 0
BBX 6 7 2 0
BITMAP
C0
C0
C0
C0
C0
C0
FC
ENDCHAR
STARTCHAR FF2D
ENCODING 9037
SWIDTH 1200 0
DWIDTH 12 0
BBX 7 7 1 0
BITMAP
C6
C6
EE
EE
EE
D6
D6
ENDCHAR
STARTCHAR FF2E
ENCODING 9038
SWIDTH 1200 0
DWIDTH 12 0
BBX 6 7 2 0
BITMAP
CC
CC
EC
EC
DC
CC
CC
ENDCHAR
STARTCHAR FF2F
ENCODING 9039
SWIDTH 1200 0
DWIDTH 12 0
BBX 7 7 2 0
BITMAP
38
CC
86
86
86
8C
78
ENDCHAR
STARTCHAR FF30
ENCODING 9040
SWIDTH 1200 0
DWIDTH 12 0
BBX 6 7 2 0
BITMAP
F8
CC
CC
FC
C0
C0
C0
ENDCHAR
STARTCHAR FF31
ENCODING 9041
SWIDTH 1200 0
DWIDTH 12 0
BBX 8 7 1 0
BITMAP
3C
E6
C3
C3
CB
EE
7F
ENDCHAR
STARTCHAR FF32
ENCODING 9042
SWIDTH 1200 0
DWIDTH 12 0
BBX 6 7 2 0
BITMAP
F8
CC
CC
F8
D8
D8
D8
ENDCHAR
STARTCHAR FF33
ENCODING 9043
SWIDTH 1200 0
DWIDTH 12 0
BBX 6 7 2 0
BITMAP
78
CC
C0
38
0C
CC
78
ENDCHAR
STARTCHAR FF34
ENCODING 9044
SWIDTH 1200 0
DWIDTH 12 0
BBX 6 7 2 0
BITMAP
FC
30
30
30
30
30
30
ENDCHAR
STARTCHAR FF35
ENCODING 9045
SWIDTH 1200 0
DWIDTH 12 0
BBX 6 7 2 0
BITMAP
CC
CC
CC
CC
CC
CC
78
ENDCHAR
STARTCHAR FF36
ENCODING 9046
SWIDTH 1200 0
DWIDTH 12 0
BBX 6 7 2 0
BITMAP
84
CC
C8
58
78
30
30
ENDCHAR
STARTCHAR FF37
ENCODING 9047
SWIDTH 1200 0
DWIDTH 12 0
BBX 8 7 1 0
BITMAP
DB
5A
5A
5A
7A
24
24
ENDCHAR
STARTCHAR FF38
ENCODING 9048
SWIDTH 1200 0
DWIDTH 12 0
BBX 6 7 2 0
BITMAP
CC
58
70
30
78
48
CC
ENDCHAR
STARTCHAR FF39
ENCODING 9049
SWIDTH 1200 0
DWIDTH 12 0
BBX 8 7 1 0
BITMAP
C3
66
3C
18
18
18
18
ENDCHAR
STARTCHAR FF3A
ENCODING 9050
SWIDTH 1200 0
DWIDTH 12 0
BBX 6 7 2 0
BITMAP
FC
08
10
30
60
C0
FC
ENDCHAR
STARTCHAR FF3B
ENCODING 9051
SWIDTH 1200 0
DWIDTH 12 0
BBX 3 10 4 -2
BITMAP
E0
C0
C0
C0
C0
C0
C0
C0
C0
E0
ENDCHAR
STARTCHAR FFE6
ENCODING 9052
SWIDTH 1200 0
DWIDTH 12 0
BBX 8 7 1 0
BITMAP
DB
FF
5A
FF
5E
66
24
ENDCHAR
STARTCHAR FF3D
ENCODING 9053
SWIDTH 1200 0
DWIDTH 12 0
BBX 3 10 3 -2
BITMAP
E0
60
60
60
60
60
60
60
60
E0
ENDCHAR
STARTCHAR FF3E
ENCODING 9054
SWIDTH 1200 0
DWIDTH 12 0
BBX 4 2 3 6
BITMAP
60
F0
ENDCHAR
STARTCHAR FF3F
ENCODING 9055
SWIDTH 1200 0
DWIDTH 12 0
BBX 6 1 2 -2
BITMAP
FC
ENDCHAR
STARTCHAR FF40
ENCODING 9056
SWIDTH 1200 0
DWIDTH 12 0
BBX 2 2 2 6
BITMAP
80
40
ENDCHAR
STARTCHAR FF41
ENCODING 9057
SWIDTH 1200 0
DWIDTH 12 0
BBX 5 5 2 0
BITMAP
F8
98
F8
98
F8
ENDCHAR
STARTCHAR FF42
ENCODING 9058
SWIDTH 1200 0
DWIDTH 12 0
BBX 6 7 2 0
BITMAP
C0
C0
F8
CC
CC
CC
F8
ENDCHAR
STARTCHAR FF43
ENCODING 9059
SWIDTH 1200 0
DWIDTH 12 0
BBX 6 5 2 0
BITMAP
78
C8
C0
CC
78
ENDCHAR
STARTCHAR FF44
ENCODING 9060
SWIDTH 1200 0
DWIDTH 12 0
BBX 6 7 2 0
BITMAP
0C
0C
7C
CC
CC
CC
7C
ENDCHAR
STARTCHAR FF45
ENCODING 9061
SWIDTH 1200 0
DWIDTH 12 0
BBX 5 5 2 0
BITMAP
78
C8
F8
C0
78
ENDCHAR
STARTCHAR FF46
ENCODING 9062
SWIDTH 1200 0
DWIDTH 12 0
BBX 5 7 3 0
BITMAP
70
60
F8
60
60
60
60
ENDCHAR
STARTCHAR FF47
ENCODING 9063
SWIDTH 1200 0
DWIDTH 12 0
BBX 6 7 2 -2
BITMAP
7C
CC
CC
FC
0C
DC
78
ENDCHAR
STARTCHAR FF48
ENCODING 9064
SWIDTH 1200 0
DWIDTH 12 0
BBX 6 7 2 0
BITMAP
C0
C0
F8
CC
CC
CC
CC
ENDCHAR
STARTCHAR FF49
ENCODING 9065
SWIDTH 1200 0
DWIDTH 12 0
BBX 2 7 4 0
BITMAP
C0
00
C0
C0
C0
C0
C0
ENDCHAR
STARTCHAR FF4A
ENCODING 9066
SWIDTH 1200 0
DWIDTH 12 0
BBX 3 8 3 -1
BITMAP
60
00
60
60
60
60
60
E0
ENDCHAR
STARTCHAR FF4B
ENCODING 9067
SWIDTH 1200 0
DWIDTH 12 0
BBX 5 7 2 0
BITMAP
C0
C0
D8
F0
F0
D8
C8
ENDCHAR
STARTCHAR FF4C
ENCODING 9068
SWIDTH 1200 0
DWIDTH 12 0
BBX 2 7 4 0
BITMAP
C0
C0
C0
C0
C0
C0
C0
ENDCHAR
STARTCHAR FF4D
ENCODING 9069
SWIDTH 1200 0
DWIDTH 12 0
BBX 8 5 1 0
BITMAP
FE
DB
DB
DB
DB
ENDCHAR
STARTCHAR FF4E
ENCODING 9070
SWIDTH 1200 0
DWIDTH 12 0
BBX 6 5 2 0
BITMAP
F8
CC
CC
CC
CC
ENDCHAR
STARTCHAR FF4F
ENCODING 9071
SWIDTH 1200 0
DWIDTH 12 0
BBX 6 5 2 0
BITMAP
78
CC
CC
CC
78
ENDCHAR
STARTCHAR FF50
ENCODING 9072
SWIDTH 1200 0
DWIDTH 12 0
BBX 6 7 2 -2
BITMAP
F8
CC
CC
FC
F8
C0
C0
ENDCHAR
STARTCHAR FF51
ENCODING 9073
SWIDTH 1200 0
DWIDTH 12 0
BBX 6 7 2 -2
BITMAP
7C
CC
CC
FC
7C
0C
0C
ENDCHAR
STARTCHAR FF52
ENCODING 9074
SWIDTH 1200 0
DWIDTH 12 0
BBX 4 5 3 0
BITMAP
F0
C0
C0
C0
C0
ENDCHAR
STARTCHAR FF53
ENCODING 9075
SWIDTH 1200 0
DWIDTH 12 0
BBX 4 5 3 0
BITMAP
F0
90
F0
90
F0
ENDCHAR
STARTCHAR FF54
ENCODING 9076
SWIDTH 1200 0
DWIDTH 12 0
BBX 4 6 3 0
BITMAP
60
F0
60
60
60
70
ENDCHAR
STARTCHAR FF55
ENCODING 9077
SWIDTH 1200 0
DWIDTH 12 0
BBX 6 5 2 0
BITMAP
CC
CC
CC
CC
FC
ENDCHAR
STARTCHAR FF56
ENCODING 9078
SWIDTH 1200 0
DWIDTH 12 0
BBX 6 5 2 0
BITMAP
CC
48
78
70
30
ENDCHAR
STARTCHAR FF57
ENCODING 9079
SWIDTH 1200 0
DWIDTH 12 0
BBX 6 5 2 0
BITMAP
BC
BC
F8
78
58
ENDCHAR
STARTCHAR FF58
ENCODING 9080
SWIDTH 1200 0
DWIDTH 12 0
BBX 5 5 2 0
BITMAP
D8
70
30
78
C8
ENDCHAR
STARTCHAR FF59
ENCODING 9081
SWIDTH 1200 0
DWIDTH 12 0
BBX 5 6 2 -1
BITMAP
C8
78
78
30
30
60
ENDCHAR
STARTCHAR FF5A
ENCODING 9082
SWIDTH 1200 0
DWIDTH 12 0
BBX 5 5 2 0
BITMAP
78
10
30
60
F8
ENDCHAR
STARTCHAR FF5B
ENCODING 9083
SWIDTH 1200 0
DWIDTH 12 0
BBX 3 10 3 -2
BITMAP
60
40
40
40
C0
C0
60
40
60
20
ENDCHAR
STARTCHAR FF5C
ENCODING 9084
SWIDTH 1200 0
DWIDTH 12 0
BBX 2 7 4 0
BITMAP
C0
C0
C0
C0
C0
C0
C0
ENDCHAR
STARTCHAR FF5D
ENCODING 9085
SWIDTH 1200 0
DWIDTH 12 0
BBX 4 10 3 -2
BITMAP
C0
60
60
60
70
70
60
60
60
C0
ENDCHAR
STARTCHAR FFE3
ENCODING 9086
SWIDTH 1200 0
DWIDTH 12 0
BBX 6 2 2 2
BITMAP
64
B8
ENDCHAR
STARTCHAR 3131
ENCODING 9249
SWIDTH 1200 0
DWIDTH 12 0
BBX 8 7 1 0
BITMAP
FF
03
03
03
03
03
03
ENDCHAR
STARTCHAR 3132
ENCODING 9250
SWIDTH 1200 0
DWIDTH 12 0
BBX 8 7 1 0
BITMAP
FF
33
33
33
33
33
33
ENDCHAR
STARTCHAR 3133
ENCODING 9251
SWIDTH 1200 0
DWIDTH 12 0
BBX 10 7 0 0
BITMAP
F300
3300
3300
3300
3380
36C0
3400
ENDCHAR
STARTCHAR 3134
ENCODING 9252
SWIDTH 1200 0
DWIDTH 12 0
BBX 8 7 1 0
BITMAP
C0
C0
C0
C0
C0
C0
FF
ENDCHAR
STARTCHAR 3135
ENCODING 9253
SWIDTH 1200 0
DWIDTH 12 0
BBX 8 7 1 0
BITMAP
CF
C6
C6
C6
C6
CF
F9
ENDCHAR
STARTCHAR 3136
ENCODING 9254
SWIDTH 1200 0
DWIDTH 12 0
BBX 8 7 1 0
BITMAP
C6
CF
CF
CF
CF
CF
F6
ENDCHAR
STARTCHAR 3137
ENCODING 9255
SWIDTH 1200 0
DWIDTH 12 0
BBX 7 7 1 0
BITMAP
FE
C0
C0
C0
C0
C0
FE
ENDCHAR
STARTCHAR 3138
ENCODING 9256
SWIDTH 1200 0
DWIDTH 12 0
BBX 8 7 1 0
BITMAP
FF
CC
CC
CC
CC
CC
FF
ENDCHAR
STARTCHAR 3139
ENCODING 9257
SWIDTH 1200 0
DWIDTH 12 0
BBX 7 7 1 0
BITMAP
FE
06
06
FE
C0
C0
FE
ENDCHAR
STARTCHAR 313A
ENCODING 9258
SWIDTH 1200 0
DWIDTH 12 0
BBX 8 7 1 0
BITMAP
FF
33
33
F3
C3
C3
F3
ENDCHAR
STARTCHAR 313B
ENCODING 9259
SWIDTH 1200 0
DWIDTH 12 0
BBX 8 7 1 0
BITMAP
FF
3F
3F
FF
CF
CF
FF
ENDCHAR
STARTCHAR 313C
ENCODING 9260
SWIDTH 1200 0
DWIDTH 12 0
BBX 8 7 1 0
BITMAP
FF
3F
3F
FF
CF
CF
FF
ENDCHAR
STARTCHAR 313D
ENCODING 9261
SWIDTH 1200 0
DWIDTH 12 0
BBX 9 7 1 0
BITMAP
E600
2600
2600
E600
8700
8D80
E800
ENDCHAR
STARTCHAR 313E
ENCODING 9262
SWIDTH 1200 0
DWIDTH 12 0
BBX 8 7 1 0
BITMAP
FF
3C
3C
FF
CC
CC
FF
ENDCHAR
STARTCHAR 313F
ENCODING 9263
SWIDTH 1200 0
DWIDTH 12 0
BBX 8 7 1 0
BITMAP
FF
3F
3F
FF
CF
CF
FF
ENDCHAR
STARTCHAR 3140
ENCODING 9264
SWIDTH 1200 0
DWIDTH 12 0
BBX 8 7 1 0
BITMAP
F6
3F
3F
FF
CF
CF
F6
ENDCHAR
STARTCHAR 3141
ENCODING 9265
SWIDTH 1200 0
DWIDTH 12 0
BBX 8 7 1 0
BITMAP
FF
C3
C3
C3
C3
C3
FF
ENDCHAR
STARTCHAR 3142
ENCODING 9266
SWIDTH 1200 0
DWIDTH 12 0
BBX 8 7 1 0
BITMAP
C3
C3
FF
C3
C3
C3
FF
ENDCHAR
STARTCHAR 3143
ENCODING 9267
SWIDTH 1200 0
DWIDTH 12 0
BBX 8 7 1 0
BITMAP
FF
FF
FF
FF
FF
FF
FF
ENDCHAR
STARTCHAR 3144
ENCODING 9268
SWIDTH 1200 0
DWIDTH 12 0
BBX 9 7 0 0
BITMAP
DB00
DB00
FB00
DB00
DB80
DF80
FC80
ENDCHAR
STARTCHAR 3145
ENCODING 9269
SWIDTH 1200 0
DWIDTH 12 0
BBX 6 7 2 0
BITMAP
30
30
30
30
78
EC
C4
ENDCHAR
STARTCHAR 3146
ENCODING 9270
SWIDTH 1200 0
DWIDTH 12 0
BBX 9 7 1 0
BITMAP
3600
3600
3600
3600
3F00
FD80
5800
ENDCHAR
STARTCHAR 3147
ENCODING 9271
SWIDTH 1200 0
DWIDTH 12 0
BBX 8 7 1 0
BITMAP
3C
66
C3
C3
C3
66
3C
ENDCHAR
STARTCHAR 3148
ENCODING 9272
SWIDTH 1200 0
DWIDTH 12 0
BBX 7 7 2 0
BITMAP
FC
30
30
30
78
FE
C4
ENDCHAR
STARTCHAR 3149
ENCODING 9273
SWIDTH 1200 0
DWIDTH 12 0
BBX 10 7 0 0
BITMAP
7F80
3300
3300
3300
3B00
EFC0
4C00
ENDCHAR
STARTCHAR 314A
ENCODING 9274
SWIDTH 1200 0
DWIDTH 12 0
BBX 6 7 2 0
BITMAP
30
FC
30
30
30
FC
CC
ENDCHAR
STARTCHAR 314B
ENCODING 9275
SWIDTH 1200 0
DWIDTH 12 0
BBX 7 7 2 0
BITMAP
FE
06
06
FE
06
06
06
ENDCHAR
STARTCHAR 314C
ENCODING 9276
SWIDTH 1200 0
DWIDTH 12 0
BBX 7 7 1 0
BITMAP
FE
C0
C0
FE
C0
C0
FE
ENDCHAR
STARTCHAR 314D
ENCODING 9277
SWIDTH 1200 0
DWIDTH 12 0
BBX 8 7 1 0
BITMAP
FF
66
66
66
66
66
FF
ENDCHAR
STARTCHAR 314E
ENCODING 9278
SWIDTH 1200 0
DWIDTH 12 0
BBX 8 7 1 0
BITMAP
18
FF
7F
C3
C3
E7
3C
ENDCHAR
STARTCHAR 314F
ENCODING 9279
SWIDTH 1200 0
DWIDTH 12 0
BBX 3 7 4 0
BITMAP
C0
C0
C0
E0
C0
C0
C0
ENDCHAR
STARTCHAR 3150
ENCODING 9280
SWIDTH 1200 0
DWIDTH 12 0
BBX 4 7 3 0
BITMAP
C0
F0
F0
F0
F0
F0
F0
ENDCHAR
STARTCHAR 3151
ENCODING 9281
SWIDTH 1200 0
DWIDTH 12 0
BBX 3 7 4 0
BITMAP
C0
C0
E0
C0
E0
C0
C0
ENDCHAR
STARTCHAR 3152
ENCODING 9282
SWIDTH 1200 0
DWIDTH 12 0
BBX 4 7 3 0
BITMAP
F0
F0
F0
F0
F0
F0
F0
ENDCHAR
STARTCHAR 3153
ENCODING 9283
SWIDTH 1200 0
DWIDTH 12 0
BBX 3 7 4 0
BITMAP
60
60
60
E0
60
60
60
ENDCHAR
STARTCHAR 3154
ENCODING 9284
SWIDTH 1200 0
DWIDTH 12 0
BBX 5 7 3 0
BITMAP
78
78
78
F8
78
78
78
ENDCHAR
STARTCHAR 3155
ENCODING 9285
SWIDTH 1200 0
DWIDTH 12 0
BBX 3 7 4 0
BITMAP
60
60
E0
60
E0
60
60
ENDCHAR
STARTCHAR 3156
ENCODING 9286
SWIDTH 1200 0
DWIDTH 12 0
BBX 5 7 3 0
BITMAP
78
78
F8
78
F8
78
78
ENDCHAR
STARTCHAR 3157
ENCODING 9287
SWIDTH 1200 0
DWIDTH 12 0
BBX 8 5 1 0
BITMAP
18
18
18
18
FF
ENDCHAR
STARTCHAR 3158
ENCODING 9288
SWIDTH 1200 0
DWIDTH 12 0
BBX 8 7 1 0
BITMAP
06
06
36
37
36
36
FE
ENDCHAR
STARTCHAR 3159
ENCODING 9289
SWIDTH 1200 0
DWIDTH 12 0
BBX 9 8 0 -1
BITMAP
0780
0780
3780
3780
3780
3780
FF80
0780
ENDCHAR
STARTCHAR 315A
ENCODING 9290
SWIDTH 1200 0
DWIDTH 12 0
BBX 8 8 1 -1
BITMAP
03
03
33
33
33
33
FF
03
ENDCHAR
STARTCHAR 315B
ENCODING 9291
SWIDTH 1200 0
DWIDTH 12 0
BBX 9 4 0 0
BITMAP
3600
3600
3600
FF80
ENDCHAR
STARTCHAR 315C
ENCODING 9292
SWIDTH 1200 0
DWIDTH 12 0
BBX 8 5 1 -1
BITMAP
FF
18
18
18
18
ENDCHAR
STARTCHAR 315D
ENCODING 9293
SWIDTH 1200 0
DWIDTH 12 0
BBX 8 8 1 -1
BITMAP
03
03
03
FF
33
37
33
33
ENDCHAR
STARTCHAR 315E
ENCODING 9294
SWIDTH 1200 0
DWIDTH 12 0
BBX 9 8 0 -1
BITMAP
0380
0380
0380
FF80
3380
3780
3380
3380
ENDCHAR
STARTCHAR 315F
ENCODING 9295
SWIDTH 1200 0
DWIDTH 12 0
BBX 7 8 2 -1
BITMAP
06
06
06
FE
36
36
36
06
ENDCHAR
STARTCHAR 3160
ENCODING 9296
SWIDTH 1200 0
DWIDTH 12 0
BBX 10 5 0 -1
BITMAP
FFC0
3300
3300
3300
0300
ENDCHAR
STARTCHAR 3161
ENCODING 9297
SWIDTH 1200 0
DWIDTH 12 0
BBX 8 1 1 0
BITMAP
FF
ENDCHAR
STARTCHAR 3162
ENCODING 9298
SWIDTH 1200 0
DWIDTH 12 0
BBX 8 8 1 -1
BITMAP
03
03
03
03
FF
03
03
03
ENDCHAR
STARTCHAR 3163
ENCODING 9299
SWIDTH 1200 0
DWIDTH 12 0
BBX 2 8 4 -1
BITMAP
C0
C0
C0
C0
C0
C0
C0
C0
ENDCHAR
STARTCHAR 3164
ENCODING 9300
SWIDTH 1200 0
DWIDTH 12 0
BBX 0 0 0 0
BITMAP
ENDCHAR
STARTCHAR 3165
ENCODING 9301
SWIDTH 1200 0
DWIDTH 12 0
BBX 8 7 1 0
BITMAP
CC
CC
CC
CC
CC
CC
FF
ENDCHAR
STARTCHAR 3166
ENCODING 9302
SWIDTH 1200 0
DWIDTH 12 0
BBX 8 7 1 0
BITMAP
CF
CC
CC
CC
CC
CC
FF
ENDCHAR
STARTCHAR 3167
ENCODING 9303
SWIDTH 1200 0
DWIDTH 12 0
BBX 9 7 1 0
BITMAP
C600
C600
C600
C600
C700
CD80
F800
ENDCHAR
STARTCHAR 3168
ENCODING 9304
SWIDTH 1200 0
DWIDTH 12 0
BBX 8 7 1 0
BITMAP
C0
C4
C6
C6
CE
CB
FF
ENDCHAR
STARTCHAR 3169
ENCODING 9305
SWIDTH 1200 0
DWIDTH 12 0
BBX 10 7 0 0
BITMAP
FD80
6D80
6D80
ED80
CD80
CFC0
FE40
ENDCHAR
STARTCHAR 316A
ENCODING 9306
SWIDTH 1200 0
DWIDTH 12 0
BBX 8 7 1 0
BITMAP
FF
3C
3C
FC
CC
CC
FF
ENDCHAR
STARTCHAR 316B
ENCODING 9307
SWIDTH 1200 0
DWIDTH 12 0
BBX 10 7 0 0
BITMAP
FF80
7F80
7F80
FF80
DF80
DFC0
FF40
ENDCHAR
STARTCHAR 316C
ENCODING 9308
SWIDTH 1200 0
DWIDTH 12 0
BBX 8 7 1 0
BITMAP
F0
32
36
F6
C7
CD
FF
ENDCHAR
STARTCHAR 316D
ENCODING 9309
SWIDTH 1200 0
DWIDTH 12 0
BBX 10 7 0 0
BITMAP
F780
3300
3780
FCC0
CCC0
CCC0
F780
ENDCHAR
STARTCHAR 316E
ENCODING 9310
SWIDTH 1200 0
DWIDTH 12 0
BBX 8 7 1 0
BITMAP
FF
FF
FF
FF
FF
FF
FF
ENDCHAR
STARTCHAR 316F
ENCODING 9311
SWIDTH 1200 0
DWIDTH 12 0
BBX 8 7 1 0
BITMAP
F6
F6
F6
F6
F7
FF
F9
ENDCHAR
STARTCHAR 3170
ENCODING 9312
SWIDTH 1200 0
DWIDTH 12 0
BBX 8 7 1 0
BITMAP
F0
F2
F6
F6
F7
FD
FF
ENDCHAR
STARTCHAR 3171
ENCODING 9313
SWIDTH 1200 0
DWIDTH 12 0
BBX 8 9 1 -1
BITMAP
FF
C3
FF
00
18
66
66
66
3C
ENDCHAR
STARTCHAR 3172
ENCODING 9314
SWIDTH 1200 0
DWIDTH 12 0
BBX 8 7 1 0
BITMAP
FF
F3
F3
F3
F3
F3
F3
ENDCHAR
STARTCHAR 3173
ENCODING 9315
SWIDTH 1200 0
DWIDTH 12 0
BBX 8 7 1 0
BITMAP
FF
FC
FC
FC
FC
FC
F7
ENDCHAR
STARTCHAR 3174
ENCODING 9316
SWIDTH 1200 0
DWIDTH 12 0
BBX 10 7 0 0
BITMAP
F7C0
F6C0
F6C0
F6C0
F6C0
FFC0
F9C0
ENDCHAR
STARTCHAR 3175
ENCODING 9317
SWIDTH 1200 0
DWIDTH 12 0
BBX 10 7 0 0
BITMAP
FDC0
FD80
FD80
FD80
FD80
FF80
FBC0
ENDCHAR
STARTCHAR 3176
ENCODING 9318
SWIDTH 1200 0
DWIDTH 12 0
BBX 8 7 1 0
BITMAP
FF
F6
F6
F6
F6
FF
F9
ENDCHAR
STARTCHAR 3177
ENCODING 9319
SWIDTH 1200 0
DWIDTH 12 0
BBX 8 7 1 0
BITMAP
FF
FC
FC
FF
FC
FC
FF
ENDCHAR
STARTCHAR 3178
ENCODING 9320
SWIDTH 1200 0
DWIDTH 12 0
BBX 8 9 1 -1
BITMAP
C3
FF
C3
FF
18
64
66
66
3C
ENDCHAR
STARTCHAR 3179
ENCODING 9321
SWIDTH 1200 0
DWIDTH 12 0
BBX 8 9 1 -1
BITMAP
FF
FF
FF
FF
18
66
66
66
3C
ENDCHAR
STARTCHAR 317A
ENCODING 9322
SWIDTH 1200 0
DWIDTH 12 0
BBX 8 7 1 0
BITMAP
6F
63
63
63
73
DB
93
ENDCHAR
STARTCHAR 317B
ENCODING 9323
SWIDTH 1200 0
DWIDTH 12 0
BBX 9 7 1 0
BITMAP
6600
6600
6600
6600
7600
DE00
8780
ENDCHAR
STARTCHAR 317C
ENCODING 9324
SWIDTH 1200 0
DWIDTH 12 0
BBX 8 7 1 0
BITMAP
6F
6C
6C
6C
FC
DC
9F
ENDCHAR
STARTCHAR 317D
ENCODING 9325
SWIDTH 1200 0
DWIDTH 12 0
BBX 8 7 1 0
BITMAP
6F
6F
6F
6F
7F
FF
9F
ENDCHAR
STARTCHAR 317E
ENCODING 9326
SWIDTH 1200 0
DWIDTH 12 0
BBX 8 7 1 0
BITMAP
6F
66
66
66
76
FF
99
ENDCHAR
STARTCHAR 317F
ENCODING 9327
SWIDTH 1200 0
DWIDTH 12 0
BBX 6 6 2 0
BITMAP
30
30
78
48
CC
FC
ENDCHAR
STARTCHAR 3180
ENCODING 9328
SWIDTH 1200 0
DWIDTH 12 0
BBX 10 7 0 0
BITMAP
7380
DEC0
DEC0
DEC0
DEC0
DEC0
7380
ENDCHAR
STARTCHAR 3181
ENCODING 9329
SWIDTH 1200 0
DWIDTH 12 0
BBX 6 6 2 0
BITMAP
30
48
CC
CC
CC
78
ENDCHAR
STARTCHAR 3182
ENCODING 9330
SWIDTH 1200 0
DWIDTH 12 0
BBX 9 7 0 0
BITMAP
3300
4B00
CF00
CF00
CF80
CF80
7C80
ENDCHAR
STARTCHAR 3183
ENCODING 9331
SWIDTH 1200 0
DWIDTH 12 0
BBX 9 7 0 0
BITMAP
3100
4900
CD00
CF00
CF80
CE80
7F80
ENDCHAR
STARTCHAR 3184
ENCODING 9332
SWIDTH 1200 0
DWIDTH 12 0
BBX 8 9 1 -1
BITMAP
FF
66
66
FF
18
66
66
66
3C
ENDCHAR
STARTCHAR 3185
ENCODING 9333
SWIDTH 1200 0
DWIDTH 12 0
BBX 10 6 0 0
BITMAP
FFC0
2300
5680
DEC0
DEC0
7380
ENDCHAR
STARTCHAR 3186
ENCODING 9334
SWIDTH 1200 0
DWIDTH 12 0
BBX 8 6 1 0
BITMAP
FF
18
3C
66
66
3C
ENDCHAR
STARTCHAR 3187
ENCODING 9335
SWIDTH 1200 0
DWIDTH 12 0
BBX 8 8 1 -1
BITMAP
06
06
07
7E
7F
7E
FE
06
ENDCHAR
STARTCHAR 3188
ENCODING 9336
SWIDTH 1200 0
DWIDTH 12 0
BBX 9 8 1 -1
BITMAP
0780
0780
0780
7F80
7F80
7F80
FF80
0780
ENDCHAR
STARTCHAR 3189
ENCODING 9337
SWIDTH 1200 0
DWIDTH 12 0
BBX 8 8 1 -1
BITMAP
03
03
03
7B
7B
7B
FF
03
ENDCHAR
STARTCHAR 318A
ENCODING 9338
SWIDTH 1200 0
DWIDTH 12 0
BBX 9 8 0 -1
BITMAP
0180
0180
0180
FF80
3F80
3F80
3F80
0180
ENDCHAR
STARTCHAR 318B
ENCODING 9339
SWIDTH 1200 0
DWIDTH 12 0
BBX 10 8 0 -1
BITMAP
03C0
03C0
03C0
FFC0
7FC0
7FC0
7FC0
03C0
ENDCHAR
STARTCHAR 318C
ENCODING 9340
SWIDTH 1200 0
DWIDTH 12 0
BBX 8 8 1 -1
BITMAP
03
03
03
FF
3F
3F
3F
0F
ENDCHAR
STARTCHAR 318D
ENCODING 9341
SWIDTH 1200 0
DWIDTH 12 0
BBX 2 2 4 2
BITMAP
C0
C0
ENDCHAR
STARTCHAR 318E
ENCODING 9342
SWIDTH 1200 0
DWIDTH 12 0
BBX 6 8 2 -1
BITMAP
0C
0C
0C
CC
CC
0C
0C
0C
ENDCHAR
STARTCHAR 2170
ENCODING 9505
SWIDTH 1200 0
DWIDTH 12 0
BBX 2 7 4 0
BITMAP
C0
00
C0
C0
C0
C0
C0
ENDCHAR
STARTCHAR 2171
ENCODING 9506
SWIDTH 1200 0
DWIDTH 12 0
BBX 4 7 3 0
BITMAP
B0
00
B0
B0
B0
B0
B0
ENDCHAR
STARTCHAR 2172
ENCODING 9507
SWIDTH 1200 0
DWIDTH 12 0
BBX 5 7 2 0
BITMAP
F8
00
E8
E8
E8
E8
E8
ENDCHAR
STARTCHAR 2173
ENCODING 9508
SWIDTH 1200 0
DWIDTH 12 0
BBX 6 7 2 0
BITMAP
80
00
A4
B4
9C
98
98
ENDCHAR
STARTCHAR 2174
ENCODING 9509
SWIDTH 1200 0
DWIDTH 12 0
BBX 6 5 2 0
BITMAP
CC
48
68
30
30
ENDCHAR
STARTCHAR 2175
ENCODING 9510
SWIDTH 1200 0
DWIDTH 12 0
BBX 6 7 2 0
BITMAP
04
00
94
D4
74
64
64
ENDCHAR
STARTCHAR 2176
ENCODING 9511
SWIDTH 1200 0
DWIDTH 12 0
BBX 8 7 1 0
BITMAP
05
00
95
D5
55
65
25
ENDCHAR
STARTCHAR 2177
ENCODING 9512
SWIDTH 1200 0
DWIDTH 12 0
BBX 10 7 0 0
BITMAP
05C0
0000
DD80
5580
5580
7580
2580
ENDCHAR
STARTCHAR 2178
ENCODING 9513
SWIDTH 1200 0
DWIDTH 12 0
BBX 7 7 1 0
BITMAP
40
00
D2
CE
CC
CE
D2
ENDCHAR
STARTCHAR 2179
ENCODING 9514
SWIDTH 1200 0
DWIDTH 12 0
BBX 4 5 3 0
BITMAP
90
70
60
70
90
ENDCHAR
STARTCHAR 2160
ENCODING 9520
SWIDTH 1200 0
DWIDTH 12 0
BBX 2 7 4 0
BITMAP
C0
C0
C0
C0
C0
C0
C0
ENDCHAR
STARTCHAR 2161
ENCODING 9521
SWIDTH 1200 0
DWIDTH 12 0
BBX 5 7 3 0
BITMAP
D8
D8
D8
D8
D8
D8
D8
ENDCHAR
STARTCHAR 2162
ENCODING 9522
SWIDTH 1200 0
DWIDTH 12 0
BBX 6 7 2 0
BITMAP
FC
FC
FC
FC
FC
FC
FC
ENDCHAR
STARTCHAR 2163
ENCODING 9523
SWIDTH 1200 0
DWIDTH 12 0
BBX 6 7 2 0
BITMAP
E4
E4
F4
DC
D8
D8
D8
ENDCHAR
STARTCHAR 2164
ENCODING 9524
SWIDTH 1200 0
DWIDTH 12 0
BBX 4 7 3 0
BITMAP
90
90
D0
70
60
60
60
ENDCHAR
STARTCHAR 2165
ENCODING 9525
SWIDTH 1200 0
DWIDTH 12 0
BBX 7 7 2 0
BITMAP
96
D6
D6
76
66
66
66
ENDCHAR
STARTCHAR 2166
ENCODING 9526
SWIDTH 1200 0
DWIDTH 12 0
BBX 8 7 1 0
BITMAP
DF
57
57
57
77
67
27
ENDCHAR
STARTCHAR 2167
ENCODING 9527
SWIDTH 1200 0
DWIDTH 12 0
BBX 9 7 1 0
BITMAP
9F80
BF80
AF80
EF80
6F80
6F80
4F80
ENDCHAR
STARTCHAR 2168
ENCODING 9528
SWIDTH 1200 0
DWIDTH 12 0
BBX 8 7 1 0
BITMAP
F3
D6
DC
CC
DC
D6
F3
ENDCHAR
STARTCHAR 2169
ENCODING 9529
SWIDTH 1200 0
DWIDTH 12 0
BBX 6 7 2 0
BITMAP
C4
68
38
30
38
68
CC
ENDCHAR
STARTCHAR 0391
ENCODING 9537
SWIDTH 1200 0
DWIDTH 12 0
BBX 7 7 2 0
BITMAP
10
30
38
68
7C
C4
86
ENDCHAR
STARTCHAR 0392
ENCODING 9538
SWIDTH 1200 0
DWIDTH 12 0
BBX 7 7 2 0
BITMAP
FC
C6
C6
FC
C6
C6
FC
ENDCHAR
STARTCHAR 0393
ENCODING 9539
SWIDTH 1200 0
DWIDTH 12 0
BBX 6 7 2 0
BITMAP
FC
C0
C0
C0
C0
C0
C0
ENDCHAR
STARTCHAR 0394
ENCODING 9540
SWIDTH 1200 0
DWIDTH 12 0
BBX 6 7 2 0
BITMAP
04
04
0C
1C
2C
4C
FC
ENDCHAR
STARTCHAR 0395
ENCODING 9541
SWIDTH 1200 0
DWIDTH 12 0
BBX 6 7 2 0
BITMAP
FC
C0
C0
FC
C0
C0
FC
ENDCHAR
STARTCHAR 0396
ENCODING 9542
SWIDTH 1200 0
DWIDTH 12 0
BBX 6 7 2 0
BITMAP
FC
0C
18
30
60
60
FC
ENDCHAR
STARTCHAR 0397
ENCODING 9543
SWIDTH 1200 0
DWIDTH 12 0
BBX 6 7 2 0
BITMAP
84
84
84
FC
84
84
84
ENDCHAR
STARTCHAR 0398
ENCODING 9544
SWIDTH 1200 0
DWIDTH 12 0
BBX 7 7 2 0
BITMAP
3C
46
C6
FE
C6
C6
7C
ENDCHAR
STARTCHAR 0399
ENCODING 9545
SWIDTH 1200 0
DWIDTH 12 0
BBX 2 7 4 0
BITMAP
C0
C0
C0
C0
C0
C0
C0
ENDCHAR
STARTCHAR 039A
ENCODING 9546
SWIDTH 1200 0
DWIDTH 12 0
BBX 7 7 2 0
BITMAP
C6
DC
F0
F0
D8
CC
CC
ENDCHAR
STARTCHAR 039B
ENCODING 9547
SWIDTH 1200 0
DWIDTH 12 0
BBX 6 6 2 0
BITMAP
30
30
38
68
4C
CC
ENDCHAR
STARTCHAR 039C
ENCODING 9548
SWIDTH 1200 0
DWIDTH 12 0
BBX 7 7 2 0
BITMAP
CE
CE
CE
EE
BE
B6
B6
ENDCHAR
STARTCHAR 039D
ENCODING 9549
SWIDTH 1200 0
DWIDTH 12 0
BBX 7 7 2 0
BITMAP
C6
E6
F6
D6
CE
C6
C6
ENDCHAR
STARTCHAR 039E
ENCODING 9550
SWIDTH 1200 0
DWIDTH 12 0
BBX 6 6 2 0
BITMAP
FC
00
78
00
00
FC
ENDCHAR
STARTCHAR 039F
ENCODING 9551
SWIDTH 1200 0
DWIDTH 12 0
BBX 7 7 2 0
BITMAP
7C
6E
C6
C6
C6
6E
7C
ENDCHAR
STARTCHAR 03A0
ENCODING 9552
SWIDTH 1200 0
DWIDTH 12 0
BBX 6 7 2 0
BITMAP
FC
CC
CC
CC
CC
CC
CC
ENDCHAR
STARTCHAR 03A1
ENCODING 9553
SWIDTH 1200 0
DWIDTH 12 0
BBX 6 7 2 0
BITMAP
F8
CC
CC
F8
C0
C0
C0
ENDCHAR
STARTCHAR 03A3
ENCODING 9554
SWIDTH 1200 0
DWIDTH 12 0
BBX 6 7 2 0
BITMAP
FC
60
30
18
30
60
FC
ENDCHAR
STARTCHAR 03A4
ENCODING 9555
SWIDTH 1200 0
DWIDTH 12 0
BBX 6 7 2 0
BITMAP
FC
30
30
30
30
30
30
ENDCHAR
STARTCHAR 03A5
ENCODING 9556
SWIDTH 1200 0
DWIDTH 12 0
BBX 7 7 2 0
BITMAP
6E
FA
B0
30
30
30
30
ENDCHAR
STARTCHAR 03A6
ENCODING 9557
SWIDTH 1200 0
DWIDTH 12 0
BBX 8 7 1 0
BITMAP
18
7E
DB
DB
DB
7E
18
ENDCHAR
STARTCHAR 03A7
ENCODING 9558
SWIDTH 1200 0
DWIDTH 12 0
BBX 6 7 2 0
BITMAP
CC
68
38
30
38
78
CC
ENDCHAR
STARTCHAR 03A8
ENCODING 9559
SWIDTH 1200 0
DWIDTH 12 0
BBX 6 7 2 0
BITMAP
FC
78
FC
78
30
30
30
ENDCHAR
STARTCHAR 03A9
ENCODING 9560
SWIDTH 1200 0
DWIDTH 12 0
BBX 7 7 2 0
BITMAP
7C
C6
C6
C6
7C
78
FC
ENDCHAR
STARTCHAR 03B1
ENCODING 9569
SWIDTH 1200 0
DWIDTH 12 0
BBX 6 4 2 0
BITMAP
7C
D8
D8
7C
ENDCHAR
STARTCHAR 03B2
ENCODING 9570
SWIDTH 1200 0
DWIDTH 12 0
BBX 6 8 3 -1
BITMAP
78
CC
DC
CC
C4
FC
F8
C0
ENDCHAR
STARTCHAR 03B3
ENCODING 9571
SWIDTH 1200 0
DWIDTH 12 0
BBX 4 5 3 0
BITMAP
D0
F0
20
20
60
ENDCHAR
STARTCHAR 03B4
ENCODING 9572
SWIDTH 1200 0
DWIDTH 12 0
BBX 5 7 3 0
BITMAP
F0
C8
C0
F0
98
98
F0
ENDCHAR
STARTCHAR 03B5
ENCODING 9573
SWIDTH 1200 0
DWIDTH 12 0
BBX 4 5 3 0
BITMAP
60
D0
60
D0
60
ENDCHAR
STARTCHAR 03B6
ENCODING 9574
SWIDTH 1200 0
DWIDTH 12 0
BBX 5 9 3 -1
BITMAP
50
70
60
C0
C0
C0
70
18
70
ENDCHAR
STARTCHAR 03B7
ENCODING 9575
SWIDTH 1200 0
DWIDTH 12 0
BBX 6 5 2 -1
BITMAP
F8
6C
6C
6C
0C
ENDCHAR
STARTCHAR 03B8
ENCODING 9576
SWIDTH 1200 0
DWIDTH 12 0
BBX 8 7 1 0
BITMAP
3C
62
43
FF
43
62
3C
ENDCHAR
STARTCHAR 03B9
ENCODING 9577
SWIDTH 1200 0
DWIDTH 12 0
BBX 2 4 4 0
BITMAP
C0
C0
80
C0
ENDCHAR
STARTCHAR 03BA
ENCODING 9578
SWIDTH 1200 0
DWIDTH 12 0
BBX 5 4 3 0
BITMAP
D8
F0
D0
D8
ENDCHAR
STARTCHAR 03BB
ENCODING 9579
SWIDTH 1200 0
DWIDTH 12 0
BBX 5 7 3 0
BITMAP
70
30
30
30
70
D8
88
ENDCHAR
STARTCHAR 03BC
ENCODING 9580
SWIDTH 1200 0
DWIDTH 12 0
BBX 6 5 2 -1
BITMAP
D8
D8
D8
FC
C0
ENDCHAR
STARTCHAR 03BD
ENCODING 9581
SWIDTH 1200 0
DWIDTH 12 0
BBX 5 5 3 0
BITMAP
C8
D8
D0
70
60
ENDCHAR
STARTCHAR 03BE
ENCODING 9582
SWIDTH 1200 0
DWIDTH 12 0
BBX 4 9 3 -1
BITMAP
40
C0
F0
C0
F0
80
F0
10
70
ENDCHAR
STARTCHAR 03BF
ENCODING 9583
SWIDTH 1200 0
DWIDTH 12 0
BBX 5 4 3 0
BITMAP
F0
98
90
70
ENDCHAR
STARTCHAR 03C0
ENCODING 9584
SWIDTH 1200 0
DWIDTH 12 0
BBX 6 4 2 0
BITMAP
FC
78
78
7C
ENDCHAR
STARTCHAR 03C1
ENCODING 9585
SWIDTH 1200 0
DWIDTH 12 0
BBX 5 5 3 -1
BITMAP
F8
D8
D8
F0
C0
ENDCHAR
STARTCHAR 03C3
ENCODING 9586
SWIDTH 1200 0
DWIDTH 12 0
BBX 5 4 3 0
BITMAP
F8
90
F0
60
ENDCHAR
STARTCHAR 03C4
ENCODING 9587
SWIDTH 1200 0
DWIDTH 12 0
BBX 5 4 3 0
BITMAP
F8
60
60
70
ENDCHAR
STARTCHAR 03C5
ENCODING 9588
SWIDTH 1200 0
DWIDTH 12 0
BBX 5 4 3 0
BITMAP
D8
D8
F0
E0
ENDCHAR
STARTCHAR 03C6
ENCODING 9589
SWIDTH 1200 0
DWIDTH 12 0
BBX 6 5 2 -1
BITMAP
FC
B4
FC
78
30
ENDCHAR
STARTCHAR 03C7
ENCODING 9590
SWIDTH 1200 0
DWIDTH 12 0
BBX 6 5 2 0
BITMAP
EC
38
30
70
5C
ENDCHAR
STARTCHAR 03C8
ENCODING 9591
SWIDTH 1200 0
DWIDTH 12 0
BBX 6 6 2 0
BITMAP
30
F4
B4
FC
30
30
ENDCHAR
STARTCHAR 03C9
ENCODING 9592
SWIDTH 1200 0
DWIDTH 12 0
BBX 8 5 1 0
BITMAP
02
6A
DB
DB
7E
ENDCHAR
STARTCHAR 2500
ENCODING 9761
SWIDTH 1200 0
DWIDTH 12 0
BBX 8 1 1 2
BITMAP
FF
ENDCHAR
STARTCHAR 2502
ENCODING 9762
SWIDTH 1200 0
DWIDTH 12 0
BBX 1 8 4 -1
BITMAP
80
80
80
80
80
80
80
80
ENDCHAR
STARTCHAR 250C
ENCODING 9763
SWIDTH 1200 0
DWIDTH 12 0
BBX 5 4 4 -1
BITMAP
38
80
80
80
ENDCHAR
STARTCHAR 2510
ENCODING 9764
SWIDTH 1200 0
DWIDTH 12 0
BBX 4 4 1 -1
BITMAP
E0
10
10
10
ENDCHAR
STARTCHAR 2518
ENCODING 9765
SWIDTH 1200 0
DWIDTH 12 0
BBX 5 6 1 2
BITMAP
08
08
08
08
08
F0
ENDCHAR
STARTCHAR 2514
ENCODING 9766
SWIDTH 1200 0
DWIDTH 12 0
BBX 5 5 4 2
BITMAP
80
80
80
00
38
ENDCHAR
STARTCHAR 251C
ENCODING 9767
SWIDTH 1200 0
DWIDTH 12 0
BBX 6 8 4 -1
BITMAP
80
80
80
80
7C
80
80
80
ENDCHAR
STARTCHAR 252C
ENCODING 9768
SWIDTH 1200 0
DWIDTH 12 0
BBX 8 4 1 -1
BITMAP
FF
10
10
10
ENDCHAR
STARTCHAR 2524
ENCODING 9769
SWIDTH 1200 0
DWIDTH 12 0
BBX 4 8 1 -1
BITMAP
10
10
10
10
F0
10
10
10
ENDCHAR
STARTCHAR 2534
ENCODING 9770
SWIDTH 1200 0
DWIDTH 12 0
BBX 8 5 1 2
BITMAP
10
10
10
00
FF
ENDCHAR
STARTCHAR 253C
ENCODING 9771
SWIDTH 1200 0
DWIDTH 12 0
BBX 10 8 0 -1
BITMAP
0800
0800
0800
FFC0
0800
0800
0800
0800
ENDCHAR
STARTCHAR 2501
ENCODING 9772
SWIDTH 1200 0
DWIDTH 12 0
BBX 10 2 0 2
BITMAP
FFC0
FFC0
ENDCHAR
STARTCHAR 2503
ENCODING 9773
SWIDTH 1200 0
DWIDTH 12 0
BBX 2 10 4 -2
BITMAP
C0
C0
C0
C0
C0
C0
C0
C0
C0
C0
ENDCHAR
STARTCHAR 250F
ENCODING 9774
SWIDTH 1200 0
DWIDTH 12 0
BBX 6 6 4 -2
BITMAP
FC
FC
C0
C0
C0
C0
ENDCHAR
STARTCHAR 2513
ENCODING 9775
SWIDTH 1200 0
DWIDTH 12 0
BBX 6 6 0 -2
BITMAP
FC
FC
0C
0C
0C
0C
ENDCHAR
STARTCHAR 251B
ENCODING 9776
SWIDTH 1200 0
DWIDTH 12 0
BBX 6 6 0 2
BITMAP
0C
0C
0C
0C
FC
FC
ENDCHAR
STARTCHAR 2517
ENCODING 9777
SWIDTH 1200 0
DWIDTH 12 0
BBX 6 6 4 2
BITMAP
C0
C0
C0
C0
FC
FC
ENDCHAR
STARTCHAR 2523
ENCODING 9778
SWIDTH 1200 0
DWIDTH 12 0
BBX 6 10 4 -2
BITMAP
C0
C0
C0
C0
FC
FC
C0
C0
C0
C0
ENDCHAR
STARTCHAR 2533
ENCODING 9779
SWIDTH 1200 0
DWIDTH 12 0
BBX 10 6 0 -2
BITMAP
FFC0
FFC0
0C00
0C00
0C00
0C00
ENDCHAR
STARTCHAR 252B
ENCODING 9780
SWIDTH 1200 0
DWIDTH 12 0
BBX 6 10 0 -2
BITMAP
0C
0C
0C
0C
0C
FC
0C
0C
0C
0C
ENDCHAR
STARTCHAR 253B
ENCODING 9781
SWIDTH 1200 0
DWIDTH 12 0
BBX 10 6 0 2
BITMAP
0C00
0C00
0C00
0C00
FFC0
FFC0
ENDCHAR
STARTCHAR 254B
ENCODING 9782
SWIDTH 1200 0
DWIDTH 12 0
BBX 10 10 0 -2
BITMAP
0C00
0C00
0C00
0C00
0C00
FFC0
0C00
0C00
0C00
0C00
ENDCHAR
STARTCHAR 2520
ENCODING 9783
SWIDTH 1200 0
DWIDTH 12 0
BBX 5 10 4 -2
BITMAP
C0
C0
C0
C0
C0
F8
C0
C0
C0
C0
ENDCHAR
STARTCHAR 252F
ENCODING 9784
SWIDTH 1200 0
DWIDTH 12 0
BBX 10 5 0 -1
BITMAP
FFC0
FFC0
0800
0800
0800
ENDCHAR
STARTCHAR 2528
ENCODING 9785
SWIDTH 1200 0
DWIDTH 12 0
BBX 5 10 1 -2
BITMAP
18
18
18
18
18
F8
18
18
18
18
ENDCHAR
STARTCHAR 2537
ENCODING 9786
SWIDTH 1200 0
DWIDTH 12 0
BBX 10 5 0 2
BITMAP
0800
0800
0800
FFC0
FFC0
ENDCHAR
STARTCHAR 253F
ENCODING 9787
SWIDTH 1200 0
DWIDTH 12 0
BBX 11 10 -1 -2
BITMAP
0400
0400
0400
0400
0400
FFE0
0400
0400
0400
0400
ENDCHAR
STARTCHAR 251D
ENCODING 9788
SWIDTH 1200 0
DWIDTH 12 0
BBX 6 8 4 -1
BITMAP
80
80
80
80
7C
80
80
80
ENDCHAR
STARTCHAR 2530
ENCODING 9789
SWIDTH 1200 0
DWIDTH 12 0
BBX 8 5 1 -2
BITMAP
FF
18
18
18
18
ENDCHAR
STARTCHAR 2525
ENCODING 9790
SWIDTH 1200 0
DWIDTH 12 0
BBX 5 8 0 -1
BITMAP
08
08
08
08
F8
08
08
08
ENDCHAR
STARTCHAR 2538
ENCODING 9791
SWIDTH 1200 0
DWIDTH 12 0
BBX 8 6 1 2
BITMAP
18
18
18
18
18
E7
ENDCHAR
STARTCHAR 2542
ENCODING 9792
SWIDTH 1200 0
DWIDTH 12 0
BBX 10 10 0 -2
BITMAP
0C00
0C00
0C00
0C00
FFC0
0C00
0C00
0C00
0C00
0C00
ENDCHAR
STARTCHAR 2512
ENCODING 9793
SWIDTH 1200 0
DWIDTH 12 0
BBX 5 5 1 -2
BITMAP
F8
18
18
18
18
ENDCHAR
STARTCHAR 2511
ENCODING 9794
SWIDTH 1200 0
DWIDTH 12 0
BBX 5 5 0 -1
BITMAP
F8
F8
08
08
08
ENDCHAR
STARTCHAR 251A
ENCODING 9795
SWIDTH 1200 0
DWIDTH 12 0
BBX 5 6 1 2
BITMAP
18
18
18
18
18
E0
ENDCHAR
STARTCHAR 2519
ENCODING 9796
SWIDTH 1200 0
DWIDTH 12 0
BBX 6 9 0 -1
BITMAP
0C
0C
0C
0C
FC
08
08
08
08
ENDCHAR
STARTCHAR 2516
ENCODING 9797
SWIDTH 1200 0
DWIDTH 12 0
BBX 5 6 4 2
BITMAP
C0
C0
C0
C0
C0
38
ENDCHAR
STARTCHAR 2515
ENCODING 9798
SWIDTH 1200 0
DWIDTH 12 0
BBX 6 5 4 2
BITMAP
80
80
80
7C
7C
ENDCHAR
STARTCHAR 250E
ENCODING 9799
SWIDTH 1200 0
DWIDTH 12 0
BBX 5 5 4 -2
BITMAP
F8
C0
C0
C0
C0
ENDCHAR
STARTCHAR 250D
ENCODING 9800
SWIDTH 1200 0
DWIDTH 12 0
BBX 6 5 4 -1
BITMAP
7C
7C
80
80
80
ENDCHAR
STARTCHAR 251E
ENCODING 9801
SWIDTH 1200 0
DWIDTH 12 0
BBX 5 9 4 -1
BITMAP
C0
C0
C0
C0
C0
B8
80
80
80
ENDCHAR
STARTCHAR 251F
ENCODING 9802
SWIDTH 1200 0
DWIDTH 12 0
BBX 6 9 4 -2
BITMAP
80
80
80
FC
C0
C0
C0
C0
C0
ENDCHAR
STARTCHAR 2521
ENCODING 9803
SWIDTH 1200 0
DWIDTH 12 0
BBX 6 9 4 -1
BITMAP
C0
C0
C0
C0
FC
FC
80
80
80
ENDCHAR
STARTCHAR 2522
ENCODING 9804
SWIDTH 1200 0
DWIDTH 12 0
BBX 6 9 4 -2
BITMAP
80
80
80
80
FC
C0
C0
C0
C0
ENDCHAR
STARTCHAR 2526
ENCODING 9805
SWIDTH 1200 0
DWIDTH 12 0
BBX 5 9 1 -1
BITMAP
18
18
18
18
18
F0
10
10
10
ENDCHAR
STARTCHAR 2527
ENCODING 9806
SWIDTH 1200 0
DWIDTH 12 0
BBX 6 9 0 -2
BITMAP
08
08
08
FC
0C
0C
0C
0C
0C
ENDCHAR
STARTCHAR 2529
ENCODING 9807
SWIDTH 1200 0
DWIDTH 12 0
BBX 6 9 0 -1
BITMAP
0C
0C
0C
0C
FC
FC
08
08
08
ENDCHAR
STARTCHAR 252A
ENCODING 9808
SWIDTH 1200 0
DWIDTH 12 0
BBX 6 9 0 -2
BITMAP
08
08
08
F8
0C
0C
0C
0C
0C
ENDCHAR
STARTCHAR 252D
ENCODING 9809
SWIDTH 1200 0
DWIDTH 12 0
BBX 9 5 0 -1
BITMAP
F800
FF80
0800
0800
0800
ENDCHAR
STARTCHAR 252E
ENCODING 9810
SWIDTH 1200 0
DWIDTH 12 0
BBX 9 5 1 -1
BITMAP
0F80
FF80
1000
1000
1000
ENDCHAR
STARTCHAR 2531
ENCODING 9811
SWIDTH 1200 0
DWIDTH 12 0
BBX 9 6 0 -2
BITMAP
FC00
FF80
0C00
0C00
0C00
0C00
ENDCHAR
STARTCHAR 2532
ENCODING 9812
SWIDTH 1200 0
DWIDTH 12 0
BBX 9 6 1 -2
BITMAP
1F80
FF80
1800
1800
1800
1800
ENDCHAR
STARTCHAR 2535
ENCODING 9813
SWIDTH 1200 0
DWIDTH 12 0
BBX 9 5 0 2
BITMAP
0800
0800
0800
F800
FF80
ENDCHAR
STARTCHAR 2536
ENCODING 9814
SWIDTH 1200 0
DWIDTH 12 0
BBX 9 5 1 2
BITMAP
1000
1000
1000
0F80
FF80
ENDCHAR
STARTCHAR 2539
ENCODING 9815
SWIDTH 1200 0
DWIDTH 12 0
BBX 9 6 0 2
BITMAP
0C00
0C00
0C00
0C00
FC00
FF80
ENDCHAR
STARTCHAR 253A
ENCODING 9816
SWIDTH 1200 0
DWIDTH 12 0
BBX 9 6 1 2
BITMAP
1800
1800
1800
1800
1F80
FF80
ENDCHAR
STARTCHAR 253D
ENCODING 9817
SWIDTH 1200 0
DWIDTH 12 0
BBX 11 10 -1 -2
BITMAP
0400
0400
0400
0400
07E0
FC00
0400
0400
0400
0400
ENDCHAR
STARTCHAR 253E
ENCODING 9818
SWIDTH 1200 0
DWIDTH 12 0
BBX 11 10 -1 -2
BITMAP
0400
0400
0400
0400
FC00
07E0
0400
0400
0400
0400
ENDCHAR
STARTCHAR 2540
ENCODING 9819
SWIDTH 1200 0
DWIDTH 12 0
BBX 10 10 0 -2
BITMAP
0C00
0C00
0C00
0C00
FFC0
0800
0800
0800
0800
0800
ENDCHAR
STARTCHAR 2541
ENCODING 9820
SWIDTH 1200 0
DWIDTH 12 0
BBX 10 10 0 -2
BITMAP
0800
0800
0800
0800
FFC0
0C00
0C00
0C00
0C00
0C00
ENDCHAR
STARTCHAR 2543
ENCODING 9821
SWIDTH 1200 0
DWIDTH 12 0
BBX 10 10 0 -2
BITMAP
0C00
0C00
0C00
0C00
FFC0
0800
0800
0800
0800
0800
ENDCHAR
STARTCHAR 2544
ENCODING 9822
SWIDTH 1200 0
DWIDTH 12 0
BBX 10 10 0 -2
BITMAP
0C00
0C00
0C00
0C00
FC00
0FC0
0800
0800
0800
0800
ENDCHAR
STARTCHAR 2545
ENCODING 9823
SWIDTH 1200 0
DWIDTH 12 0
BBX 10 10 0 -2
BITMAP
0800
0800
0800
0800
FFC0
0C00
0C00
0C00
0C00
0C00
ENDCHAR
STARTCHAR 2546
ENCODING 9824
SWIDTH 1200 0
DWIDTH 12 0
BBX 10 10 0 -2
BITMAP
0800
0800
0800
0800
F800
0FC0
0C00
0C00
0C00
0C00
ENDCHAR
STARTCHAR 2547
ENCODING 9825
SWIDTH 1200 0
DWIDTH 12 0
BBX 10 10 0 -2
BITMAP
0C00
0C00
0C00
0C00
0C00
FFC0
0800
0800
0800
0800
ENDCHAR
STARTCHAR 2548
ENCODING 9826
SWIDTH 1200 0
DWIDTH 12 0
BBX 10 10 0 -2
BITMAP
0800
0800
0800
0800
0800
FFC0
0C00
0C00
0C00
0C00
ENDCHAR
STARTCHAR 2549
ENCODING 9827
SWIDTH 1200 0
DWIDTH 12 0
BBX 10 10 0 -2
BITMAP
0C00
0C00
0C00
0C00
0FC0
FC00
0C00
0C00
0C00
0C00
ENDCHAR
STARTCHAR 254A
ENCODING 9828
SWIDTH 1200 0
DWIDTH 12 0
BBX 10 10 0 -2
BITMAP
0C00
0C00
0C00
0C00
FC00
0FC0
0C00
0C00
0C00
0C00
ENDCHAR
STARTCHAR 3395
ENCODING 10017
SWIDTH 1200 0
DWIDTH 12 0
BBX 9 8 0 -1
BITMAP
0180
0380
2B80
2B00
7300
5E80
6F00
8000
ENDCHAR
STARTCHAR 3396
ENCODING 10018
SWIDTH 1200 0
DWIDTH 12 0
BBX 10 7 0 0
BITMAP
0080
0140
F980
A980
A980
ABC0
A980
ENDCHAR
STARTCHAR 3397
ENCODING 10019
SWIDTH 1200 0
DWIDTH 12 0
BBX 9 7 0 0
BITMAP
1800
1980
7B80
DB00
9B00
9A00
7F00
ENDCHAR
STARTCHAR 2113
ENCODING 10020
SWIDTH 1200 0
DWIDTH 12 0
BBX 4 7 3 0
BITMAP
30
30
50
70
60
50
E0
ENDCHAR
STARTCHAR 3398
ENCODING 10021
SWIDTH 1200 0
DWIDTH 12 0
BBX 8 7 1 0
BITMAP
C2
C7
F5
E6
E6
ED
DE
ENDCHAR
STARTCHAR 33C4
ENCODING 10022
SWIDTH 1200 0
DWIDTH 12 0
BBX 10 5 0 0
BITMAP
3180
CEC0
C600
CE40
3380
ENDCHAR
STARTCHAR 33A3
ENCODING 10023
SWIDTH 1200 0
DWIDTH 12 0
BBX 10 7 0 0
BITMAP
00C0
00C0
88C0
FF80
BB80
BB80
BB80
ENDCHAR
STARTCHAR 33A4
ENCODING 10024
SWIDTH 1200 0
DWIDTH 12 0
BBX 10 7 0 0
BITMAP
00C0
00C0
7FC0
9F80
8F80
DF80
6F80
ENDCHAR
STARTCHAR 33A5
ENCODING 10025
SWIDTH 1200 0
DWIDTH 12 0
BBX 8 7 1 0
BITMAP
03
01
FB
EC
EC
EC
CC
ENDCHAR
STARTCHAR 33A6
ENCODING 10026
SWIDTH 1200 0
DWIDTH 12 0
BBX 10 7 0 0
BITMAP
C040
C040
D980
EF80
EF80
DF80
DF80
ENDCHAR
STARTCHAR 3399
ENCODING 10027
SWIDTH 1200 0
DWIDTH 12 0
BBX 10 7 0 0
BITMAP
3000
6000
FF80
6F40
6F40
6F40
6F40
ENDCHAR
STARTCHAR 339A
ENCODING 10028
SWIDTH 1200 0
DWIDTH 12 0
BBX 10 5 0 0
BITMAP
FF80
DFC0
DFC0
DFC0
DFC0
ENDCHAR
STARTCHAR 339B
ENCODING 10029
SWIDTH 1200 0
DWIDTH 12 0
BBX 10 6 0 -1
BITMAP
2F80
2F40
5740
5740
7F40
8000
ENDCHAR
STARTCHAR 339C
ENCODING 10030
SWIDTH 1200 0
DWIDTH 12 0
BBX 10 6 0 -1
BITMAP
D780
FFC0
FFC0
FFC0
FFC0
F800
ENDCHAR
STARTCHAR 339D
ENCODING 10031
SWIDTH 1200 0
DWIDTH 12 0
BBX 9 5 1 0
BITMAP
7F00
BF80
9F80
BF80
FF80
ENDCHAR
STARTCHAR 339E
ENCODING 10032
SWIDTH 1200 0
DWIDTH 12 0
BBX 10 7 0 0
BITMAP
C000
C000
DF80
EFC0
EFC0
DFC0
DFC0
ENDCHAR
STARTCHAR 339F
ENCODING 10033
SWIDTH 1200 0
DWIDTH 12 0
BBX 10 7 0 0
BITMAP
00C0
00C0
EF00
FF80
FF80
FF80
FF80
ENDCHAR
STARTCHAR 33A0
ENCODING 10034
SWIDTH 1200 0
DWIDTH 12 0
BBX 10 8 0 -1
BITMAP
00C0
0040
0F00
7F00
8F00
8F00
DF00
6000
ENDCHAR
STARTCHAR 33A1
ENCODING 10035
SWIDTH 1200 0
DWIDTH 12 0
BBX 8 7 1 0
BITMAP
03
03
FB
FC
FC
FC
FC
ENDCHAR
STARTCHAR 33A2
ENCODING 10036
SWIDTH 1200 0
DWIDTH 12 0
BBX 10 7 0 0
BITMAP
80C0
8040
ADC0
EF00
CF00
AF00
BF00
ENDCHAR
STARTCHAR 33CA
ENCODING 10037
SWIDTH 1200 0
DWIDTH 12 0
BBX 8 7 1 0
BITMAP
C0
C0
E2
FE
F7
FB
FF
ENDCHAR
STARTCHAR 338D
ENCODING 10038
SWIDTH 1200 0
DWIDTH 12 0
BBX 10 6 0 -1
BITMAP
2BC0
2A80
5300
5F80
6A40
8380
ENDCHAR
STARTCHAR 338E
ENCODING 10039
SWIDTH 1200 0
DWIDTH 12 0
BBX 9 6 0 -1
BITMAP
D380
FA80
FB00
FF80
FC80
0380
ENDCHAR
STARTCHAR 338F
ENCODING 10040
SWIDTH 1200 0
DWIDTH 12 0
BBX 8 7 1 -1
BITMAP
C0
D9
F6
E6
DE
DD
07
ENDCHAR
STARTCHAR 33CF
ENCODING 10041
SWIDTH 1200 0
DWIDTH 12 0
BBX 9 7 1 0
BITMAP
C000
C600
DF00
F600
F600
D600
DF80
ENDCHAR
STARTCHAR 3388
ENCODING 10042
SWIDTH 1200 0
DWIDTH 12 0
BBX 11 7 0 0
BITMAP
0060
0060
6E60
DA60
8E60
9A60
6F60
ENDCHAR
STARTCHAR 3389
ENCODING 10043
SWIDTH 1200 0
DWIDTH 12 0
BBX 11 7 -1 0
BITMAP
0020
C020
C020
FFE0
F9E0
FAE0
DDE0
ENDCHAR
STARTCHAR 33C8
ENCODING 10044
SWIDTH 1200 0
DWIDTH 12 0
BBX 9 7 0 0
BITMAP
1F80
1E80
7E80
DF80
DE80
DE80
7F80
ENDCHAR
STARTCHAR 33A7
ENCODING 10045
SWIDTH 1200 0
DWIDTH 12 0
BBX 10 8 0 -1
BITMAP
0200
0200
0480
F540
B580
B540
B5C0
0800
ENDCHAR
STARTCHAR 33A8
ENCODING 10046
SWIDTH 1200 0
DWIDTH 12 0
BBX 10 9 0 -2
BITMAP
00C0
0480
0500
F680
B500
B480
BB80
0800
0800
ENDCHAR
STARTCHAR 33B0
ENCODING 10047
SWIDTH 1200 0
DWIDTH 12 0
BBX 8 6 1 -1
BITMAP
E6
F5
D7
CD
E7
C0
ENDCHAR
STARTCHAR 33B1
ENCODING 10048
SWIDTH 1200 0
DWIDTH 12 0
BBX 8 5 1 0
BITMAP
E6
FD
F6
F9
F6
ENDCHAR
STARTCHAR 33B2
ENCODING 10049
SWIDTH 1200 0
DWIDTH 12 0
BBX 9 6 1 -1
BITMAP
2800
5300
5480
FB00
D780
8000
ENDCHAR
STARTCHAR 33B3
ENCODING 10050
SWIDTH 1200 0
DWIDTH 12 0
BBX 9 5 0 0
BITMAP
EB80
FE80
F580
F680
F500
ENDCHAR
STARTCHAR 33B4
ENCODING 10051
SWIDTH 1200 0
DWIDTH 12 0
BBX 8 8 1 -1
BITMAP
09
09
F9
DF
CE
DE
F6
C0
ENDCHAR
STARTCHAR 33B5
ENCODING 10052
SWIDTH 1200 0
DWIDTH 12 0
BBX 8 7 1 0
BITMAP
11
09
F9
FA
F6
F6
F4
ENDCHAR
STARTCHAR 33B6
ENCODING 10053
SWIDTH 1200 0
DWIDTH 12 0
BBX 10 8 0 -1
BITMAP
0240
0280
2680
2A80
6980
5D80
7900
8000
ENDCHAR
STARTCHAR 33B7
ENCODING 10054
SWIDTH 1200 0
DWIDTH 12 0
BBX 8 7 1 0
BITMAP
09
09
D9
FD
FE
FE
FA
ENDCHAR
STARTCHAR 33B8
ENCODING 10055
SWIDTH 1200 0
DWIDTH 12 0
BBX 8 7 1 0
BITMAP
D9
C9
D9
FF
E6
D6
D6
ENDCHAR
STARTCHAR 33B9
ENCODING 10056
SWIDTH 1200 0
DWIDTH 12 0
BBX 8 7 1 0
BITMAP
D9
DD
DD
DD
DD
FA
FA
ENDCHAR
STARTCHAR 3380
ENCODING 10057
SWIDTH 1200 0
DWIDTH 12 0
BBX 8 7 1 -1
BITMAP
06
C6
F6
D7
C9
E9
C0
ENDCHAR
STARTCHAR 3381
ENCODING 10058
SWIDTH 1200 0
DWIDTH 12 0
BBX 10 6 0 0
BITMAP
0300
F380
DA80
DF80
DC80
DCC0
ENDCHAR
STARTCHAR 3382
ENCODING 10059
SWIDTH 1200 0
DWIDTH 12 0
BBX 10 8 0 -1
BITMAP
0100
0180
2980
2A80
6B80
52C0
7E40
8000
ENDCHAR
STARTCHAR 3383
ENCODING 10060
SWIDTH 1200 0
DWIDTH 12 0
BBX 10 6 0 0
BITMAP
0100
FA80
FA80
FB80
FE80
FCC0
ENDCHAR
STARTCHAR 3384
ENCODING 10061
SWIDTH 1200 0
DWIDTH 12 0
BBX 10 7 0 0
BITMAP
8000
8300
A380
E280
E380
E480
F4C0
ENDCHAR
STARTCHAR 33BA
ENCODING 10062
SWIDTH 1200 0
DWIDTH 12 0
BBX 9 8 0 -1
BITMAP
0A80
0A80
8A80
F780
D780
D700
E500
8000
ENDCHAR
STARTCHAR 33BB
ENCODING 10063
SWIDTH 1200 0
DWIDTH 12 0
BBX 10 7 0 0
BITMAP
1A40
0A40
EB80
FB80
F580
F580
F480
ENDCHAR
STARTCHAR 33BC
ENCODING 10064
SWIDTH 1200 0
DWIDTH 12 0
BBX 10 8 0 -1
BITMAP
0540
0540
2580
2F80
5380
5380
7A80
8000
ENDCHAR
STARTCHAR 33BD
ENCODING 10065
SWIDTH 1200 0
DWIDTH 12 0
BBX 10 7 0 0
BITMAP
0B40
0B80
F780
FF80
FF80
FF80
FE80
ENDCHAR
STARTCHAR 33BE
ENCODING 10066
SWIDTH 1200 0
DWIDTH 12 0
BBX 9 7 0 0
BITMAP
CA80
CB80
DB80
E780
E780
D780
D580
ENDCHAR
STARTCHAR 33BF
ENCODING 10067
SWIDTH 1200 0
DWIDTH 12 0
BBX 11 7 -1 0
BITMAP
CCA0
CAA0
DBA0
FBC0
FB40
FB40
E940
ENDCHAR
STARTCHAR 3390
ENCODING 10068
SWIDTH 1200 0
DWIDTH 12 0
BBX 10 7 0 0
BITMAP
D800
D800
DF80
F980
D900
DA00
DFC0
ENDCHAR
STARTCHAR 3391
ENCODING 10069
SWIDTH 1200 0
DWIDTH 12 0
BBX 10 7 0 0
BITMAP
9400
9400
9400
DCC0
D480
D580
B5C0
ENDCHAR
STARTCHAR 3392
ENCODING 10070
SWIDTH 1200 0
DWIDTH 12 0
BBX 10 6 0 0
BITMAP
9600
D600
FEC0
F680
F680
F7C0
ENDCHAR
STARTCHAR 3393
ENCODING 10071
SWIDTH 1200 0
DWIDTH 12 0
BBX 10 7 0 0
BITMAP
2000
DE00
CE00
CE80
FE80
FE80
FFC0
ENDCHAR
STARTCHAR 3394
ENCODING 10072
SWIDTH 1200 0
DWIDTH 12 0
BBX 9 6 1 0
BITMAP
AC00
AC00
BD80
AD00
AF00
AF80
ENDCHAR
STARTCHAR 2126
ENCODING 10073
SWIDTH 1200 0
DWIDTH 12 0
BBX 8 7 1 0
BITMAP
3C
66
42
42
3C
99
FF
ENDCHAR
STARTCHAR 33C0
ENCODING 10074
SWIDTH 1200 0
DWIDTH 12 0
BBX 10 7 0 0
BITMAP
8300
8480
9440
A440
E780
B740
97C0
ENDCHAR
STARTCHAR 33C1
ENCODING 10075
SWIDTH 1200 0
DWIDTH 12 0
BBX 10 7 0 0
BITMAP
8B00
DCC0
DC40
DC40
DF80
FF40
FFC0
ENDCHAR
STARTCHAR 338A
ENCODING 10076
SWIDTH 1200 0
DWIDTH 12 0
BBX 9 8 1 -1
BITMAP
0F80
0C00
0C00
FF00
9C00
9C00
FC00
C000
ENDCHAR
STARTCHAR 338B
ENCODING 10077
SWIDTH 1200 0
DWIDTH 12 0
BBX 9 6 0 0
BITMAP
0780
C600
FF80
DE00
DE00
DE00
ENDCHAR
STARTCHAR 338C
ENCODING 10078
SWIDTH 1200 0
DWIDTH 12 0
BBX 10 7 0 -1
BITMAP
07C0
2600
2F80
2E00
5600
7E00
8000
ENDCHAR
STARTCHAR 33D6
ENCODING 10079
SWIDTH 1200 0
DWIDTH 12 0
BBX 10 7 0 0
BITMAP
00C0
00C0
F6C0
FDC0
FDC0
FDC0
FFC0
ENDCHAR
STARTCHAR 33C5
ENCODING 10080
SWIDTH 1200 0
DWIDTH 12 0
BBX 10 7 0 0
BITMAP
00C0
00C0
03C0
7EC0
C6C0
DEC0
73C0
ENDCHAR
STARTCHAR 33AD
ENCODING 10081
SWIDTH 1200 0
DWIDTH 12 0
BBX 10 7 0 0
BITMAP
00C0
00C0
09C0
D7C0
9FC0
97C0
9FC0
ENDCHAR
STARTCHAR 33AE
ENCODING 10082
SWIDTH 1200 0
DWIDTH 12 0
BBX 10 8 0 -1
BITMAP
0040
F680
F680
FF00
0100
02C0
0240
0480
ENDCHAR
STARTCHAR 33AF
ENCODING 10083
SWIDTH 1200 0
DWIDTH 12 0
BBX 10 8 0 -1
BITMAP
0440
F480
BD40
BD40
0200
0380
0480
0180
ENDCHAR
STARTCHAR 33DB
ENCODING 10084
SWIDTH 1200 0
DWIDTH 12 0
BBX 7 5 2 0
BITMAP
D8
BE
D8
38
F8
ENDCHAR
STARTCHAR 33A9
ENCODING 10085
SWIDTH 1200 0
DWIDTH 12 0
BBX 9 7 1 0
BITMAP
F000
C800
CE00
FB00
CF00
D300
CF80
ENDCHAR
STARTCHAR 33AA
ENCODING 10086
SWIDTH 1200 0
DWIDTH 12 0
BBX 10 7 0 0
BITMAP
9C00
9E00
FE00
DFC0
DBC0
FAC0
FBC0
ENDCHAR
STARTCHAR 33AB
ENCODING 10087
SWIDTH 1200 0
DWIDTH 12 0
BBX 11 6 -1 0
BITMAP
CF80
CE80
FFC0
FEE0
FEE0
FEE0
ENDCHAR
STARTCHAR 33AC
ENCODING 10088
SWIDTH 1200 0
DWIDTH 12 0
BBX 10 7 0 0
BITMAP
1C00
FE00
BE00
9DC0
B8C0
BBC0
F9C0
ENDCHAR
STARTCHAR 33DD
ENCODING 10089
SWIDTH 1200 0
DWIDTH 12 0
BBX 10 7 0 0
BITMAP
AE00
BE00
FF00
7EC0
7EC0
7EC0
5F80
ENDCHAR
STARTCHAR 33D0
ENCODING 10090
SWIDTH 1200 0
DWIDTH 12 0
BBX 8 7 1 0
BITMAP
C0
C0
FF
FF
FF
FF
FF
ENDCHAR
STARTCHAR 33D3
ENCODING 10091
SWIDTH 1200 0
DWIDTH 12 0
BBX 7 7 1 0
BITMAP
C0
C0
F2
DC
CC
DC
D2
ENDCHAR
STARTCHAR 33C3
ENCODING 10092
SWIDTH 1200 0
DWIDTH 12 0
BBX 10 8 0 -1
BITMAP
F000
D800
D840
F7C0
CE40
CE40
FBC0
00C0
ENDCHAR
STARTCHAR 33C9
ENCODING 10093
SWIDTH 1200 0
DWIDTH 12 0
BBX 9 8 0 -1
BITMAP
7800
4C00
CE00
FE80
DA80
D980
7900
0300
ENDCHAR
STARTCHAR 33DC
ENCODING 10094
SWIDTH 1200 0
DWIDTH 12 0
BBX 8 7 1 0
BITMAP
60
90
80
E5
15
96
F2
ENDCHAR
STARTCHAR 33C6
ENCODING 10095
SWIDTH 1200 0
DWIDTH 12 0
BBX 10 7 0 -1
BITMAP
D800
B800
9FC0
9D80
BD00
5BC0
01C0
ENDCHAR
STARTCHAR 00C6
ENCODING 10273
SWIDTH 1200 0
DWIDTH 12 0
BBX 8 7 1 0
BITMAP
1F
18
38
2E
78
48
CF
ENDCHAR
STARTCHAR 00D0
ENCODING 10274
SWIDTH 1200 0
DWIDTH 12 0
BBX 7 7 2 0
BITMAP
78
6C
66
F6
66
66
7C
ENDCHAR
STARTCHAR 00AA
ENCODING 10275
SWIDTH 1200 0
DWIDTH 12 0
BBX 5 6 3 0
BITMAP
20
50
F0
F0
00
F8
ENDCHAR
STARTCHAR 0126
ENCODING 10276
SWIDTH 1200 0
DWIDTH 12 0
BBX 8 7 1 0
BITMAP
66
FF
66
7E
66
66
66
ENDCHAR
STARTCHAR 0132
ENCODING 10278
SWIDTH 1200 0
DWIDTH 12 0
BBX 6 8 2 -1
BITMAP
C4
C4
C4
C4
C4
C4
F4
1C
ENDCHAR
STARTCHAR 013F
ENCODING 10280
SWIDTH 1200 0
DWIDTH 12 0
BBX 6 7 2 0
BITMAP
C0
C0
C4
C4
C0
C0
FC
ENDCHAR
STARTCHAR 0141
ENCODING 10281
SWIDTH 1200 0
DWIDTH 12 0
BBX 7 7 2 0
BITMAP
60
68
70
E0
60
60
7E
ENDCHAR
STARTCHAR 00D8
ENCODING 10282
SWIDTH 1200 0
DWIDTH 12 0
BBX 7 6 2 0
BITMAP
3E
EC
D6
D6
6E
F8
ENDCHAR
STARTCHAR 0152
ENCODING 10283
SWIDTH 1200 0
DWIDTH 12 0
BBX 8 7 1 0
BITMAP
20
7F
C8
C7
C8
C8
7F
ENDCHAR
STARTCHAR 00BA
ENCODING 10284
SWIDTH 1200 0
DWIDTH 12 0
BBX 5 5 3 0
BITMAP
60
50
70
00
F8
ENDCHAR
STARTCHAR 00DE
ENCODING 10285
SWIDTH 1200 0
DWIDTH 12 0
BBX 6 7 2 -1
BITMAP
E0
FC
CC
CC
DC
F0
C0
ENDCHAR
STARTCHAR 0166
ENCODING 10286
SWIDTH 1200 0
DWIDTH 12 0
BBX 6 7 2 0
BITMAP
FC
30
30
FC
30
30
30
ENDCHAR
STARTCHAR 014A
ENCODING 10287
SWIDTH 1200 0
DWIDTH 12 0
BBX 5 7 3 0
BITMAP
C0
C0
F8
E8
C8
C8
D0
ENDCHAR
STARTCHAR 3260
ENCODING 10289
SWIDTH 1200 0
DWIDTH 12 0
BBX 10 9 0 -2
BITMAP
1F00
71C0
7FC0
C340
C340
C340
63C0
71C0
1F00
ENDCHAR
STARTCHAR 3261
ENCODING 10290
SWIDTH 1200 0
DWIDTH 12 0
BBX 10 9 0 -2
BITMAP
1F00
71C0
70C0
F040
F040
FF40
60C0
71C0
1F00
ENDCHAR
STARTCHAR 3262
ENCODING 10291
SWIDTH 1200 0
DWIDTH 12 0
BBX 10 9 0 -2
BITMAP
1F00
7FC0
70C0
F040
F040
F040
7EC0
71C0
1F00
ENDCHAR
STARTCHAR 3263
ENCODING 10292
SWIDTH 1200 0
DWIDTH 12 0
BBX 10 9 0 -2
BITMAP
1F00
71C0
7FC0
FF40
F040
FF40
60C0
71C0
1F00
ENDCHAR
STARTCHAR 3264
ENCODING 10293
SWIDTH 1200 0
DWIDTH 12 0
BBX 10 8 0 -1
BITMAP
1F00
71C0
FF40
F340
F340
FF40
71C0
1F00
ENDCHAR
STARTCHAR 3265
ENCODING 10294
SWIDTH 1200 0
DWIDTH 12 0
BBX 10 9 0 -2
BITMAP
1F00
73C0
73C0
FF40
F340
F340
7FC0
71C0
1F00
ENDCHAR
STARTCHAR 3266
ENCODING 10295
SWIDTH 1200 0
DWIDTH 12 0
BBX 10 9 0 -2
BITMAP
1F00
7DC0
6CC0
CC40
CC40
FF40
60C0
71C0
1F00
ENDCHAR
STARTCHAR 3267
ENCODING 10296
SWIDTH 1200 0
DWIDTH 12 0
BBX 10 9 0 -2
BITMAP
1F00
71C0
7EC0
F340
F340
F340
7EC0
71C0
1F00
ENDCHAR
STARTCHAR 3268
ENCODING 10297
SWIDTH 1200 0
DWIDTH 12 0
BBX 10 9 0 -2
BITMAP
1F00
71C0
7FC0
CC40
CC40
CC40
7BC0
7180
1F00
ENDCHAR
STARTCHAR 3269
ENCODING 10298
SWIDTH 1200 0
DWIDTH 12 0
BBX 10 9 0 -2
BITMAP
1F00
7DC0
7FC0
CC40
CC40
FE40
73C0
71C0
1F00
ENDCHAR
STARTCHAR 326A
ENCODING 10299
SWIDTH 1200 0
DWIDTH 12 0
BBX 10 9 0 -2
BITMAP
1F00
71C0
7FC0
C340
DF40
C340
63C0
71C0
1F00
ENDCHAR
STARTCHAR 326B
ENCODING 10300
SWIDTH 1200 0
DWIDTH 12 0
BBX 10 8 0 -1
BITMAP
1F00
7FC0
D840
D840
DF40
D840
7FC0
1F00
ENDCHAR
STARTCHAR 326C
ENCODING 10301
SWIDTH 1200 0
DWIDTH 12 0
BBX 10 9 0 -2
BITMAP
1F00
71C0
7FC0
DE40
DE40
FF40
60C0
71C0
1F00
ENDCHAR
STARTCHAR 326D
ENCODING 10302
SWIDTH 1200 0
DWIDTH 12 0
BBX 10 9 0 -2
BITMAP
1F00
6DC0
7FC0
FF40
F340
F340
7EC0
71C0
1F00
ENDCHAR
STARTCHAR 326E
ENCODING 10303
SWIDTH 1200 0
DWIDTH 12 0
BBX 10 9 0 -2
BITMAP
1F00
73C0
7FC0
CFC0
CF40
DB40
70C0
71C0
1F00
ENDCHAR
STARTCHAR 326F
ENCODING 10304
SWIDTH 1200 0
DWIDTH 12 0
BBX 10 9 0 -2
BITMAP
1F00
71C0
73C0
F340
F3C0
FF40
63C0
71C0
1F00
ENDCHAR
STARTCHAR 3270
ENCODING 10305
SWIDTH 1200 0
DWIDTH 12 0
BBX 10 9 0 -2
BITMAP
1F00
71C0
7FC0
F340
F3C0
FF40
63C0
71C0
1F00
ENDCHAR
STARTCHAR 3271
ENCODING 10306
SWIDTH 1200 0
DWIDTH 12 0
BBX 10 9 0 -2
BITMAP
1F00
73C0
7FC0
FFC0
F340
FF40
63C0
7180
1F00
ENDCHAR
STARTCHAR 3272
ENCODING 10307
SWIDTH 1200 0
DWIDTH 12 0
BBX 10 9 0 -2
BITMAP
1F00
73C0
7FC0
FFC0
FF40
FF40
60C0
71C0
1F00
ENDCHAR
STARTCHAR 3273
ENCODING 10308
SWIDTH 1200 0
DWIDTH 12 0
BBX 10 9 0 -2
BITMAP
1E00
6380
FFC0
FFC0
FEC0
FEC0
E380
6180
1E00
ENDCHAR
STARTCHAR 3274
ENCODING 10309
SWIDTH 1200 0
DWIDTH 12 0
BBX 10 9 1 -2
BITMAP
1E00
6780
B7C0
B7C0
36C0
CEC0
8180
4380
3E00
ENDCHAR
STARTCHAR 3275
ENCODING 10310
SWIDTH 1200 0
DWIDTH 12 0
BBX 10 9 0 -2
BITMAP
1E00
7B80
FFC0
FFC0
FEC0
DAC0
6380
6180
1E00
ENDCHAR
STARTCHAR 3276
ENCODING 10311
SWIDTH 1200 0
DWIDTH 12 0
BBX 10 9 0 -2
BITMAP
1E00
7F80
FB80
DBC0
FEC0
C2C0
6380
6180
1E00
ENDCHAR
STARTCHAR 3277
ENCODING 10312
SWIDTH 1200 0
DWIDTH 12 0
BBX 10 9 0 -2
BITMAP
1E00
7B80
FFC0
DAC0
DAC0
F6C0
6380
6180
1E00
ENDCHAR
STARTCHAR 3278
ENCODING 10313
SWIDTH 1200 0
DWIDTH 12 0
BBX 10 9 0 -2
BITMAP
1E00
7F80
EFC0
FFC0
CAC0
FAC0
6380
2100
1E00
ENDCHAR
STARTCHAR 3279
ENCODING 10314
SWIDTH 1200 0
DWIDTH 12 0
BBX 10 9 1 -2
BITMAP
1E00
7F80
67C0
7FC0
E6C0
FEC0
87C0
4380
3E00
ENDCHAR
STARTCHAR 327A
ENCODING 10315
SWIDTH 1200 0
DWIDTH 12 0
BBX 10 9 0 -2
BITMAP
1F00
73C0
7FC0
FFC0
FF40
FF40
63C0
7180
1F00
ENDCHAR
STARTCHAR 327B
ENCODING 10316
SWIDTH 1200 0
DWIDTH 12 0
BBX 10 9 0 -2
BITMAP
1E00
7B80
FFC0
FEC0
E7C0
FEC0
6380
6380
1E00
ENDCHAR
STARTCHAR 24D0
ENCODING 10317
SWIDTH 1200 0
DWIDTH 12 0
BBX 10 9 0 -2
BITMAP
1F00
7DC0
72C0
DE40
F240
DF40
60C0
71C0
1F00
ENDCHAR
STARTCHAR 24D1
ENCODING 10318
SWIDTH 1200 0
DWIDTH 12 0
BBX 10 8 0 -1
BITMAP
1F00
79C0
DA40
DF40
DB40
DB40
7FC0
1F00
ENDCHAR
STARTCHAR 24D2
ENCODING 10319
SWIDTH 1200 0
DWIDTH 12 0
BBX 10 9 0 -2
BITMAP
1F00
71C0
7EC0
D040
D240
DE40
6CC0
71C0
1F00
ENDCHAR
STARTCHAR 24D3
ENCODING 10320
SWIDTH 1200 0
DWIDTH 12 0
BBX 10 8 0 -1
BITMAP
1F00
77C0
C640
FE40
F640
F640
7FC0
1F00
ENDCHAR
STARTCHAR 24D4
ENCODING 10321
SWIDTH 1200 0
DWIDTH 12 0
BBX 10 9 0 -2
BITMAP
1F00
7FC0
72C0
FF40
F040
D240
6EC0
71C0
1F00
ENDCHAR
STARTCHAR 24D5
ENCODING 10322
SWIDTH 1200 0
DWIDTH 12 0
BBX 10 9 0 -2
BITMAP
1F00
7FC0
6CC0
FF40
CC40
CC40
6CC0
71C0
1F00
ENDCHAR
STARTCHAR 24D6
ENCODING 10323
SWIDTH 1200 0
DWIDTH 12 0
BBX 10 9 0 -2
BITMAP
1F00
7FC0
73C0
F340
DF40
F340
7EC0
71C0
1F00
ENDCHAR
STARTCHAR 24D7
ENCODING 10324
SWIDTH 1200 0
DWIDTH 12 0
BBX 10 8 0 -1
BITMAP
1F00
71C0
F040
FF40
F340
F340
73C0
1F00
ENDCHAR
STARTCHAR 24D8
ENCODING 10325
SWIDTH 1200 0
DWIDTH 12 0
BBX 10 9 0 -2
BITMAP
1F00
7DC0
60C0
CC40
CC40
CC40
6CC0
71C0
1F00
ENDCHAR
STARTCHAR 24D9
ENCODING 10326
SWIDTH 1200 0
DWIDTH 12 0
BBX 10 9 1 -2
BITMAP
1E00
6B80
81C0
8CC0
0CC0
8CC0
9DC0
4380
3E00
ENDCHAR
STARTCHAR 24DA
ENCODING 10327
SWIDTH 1200 0
DWIDTH 12 0
BBX 10 8 0 -1
BITMAP
1F00
71C0
F040
FE40
FC40
F640
73C0
1F00
ENDCHAR
STARTCHAR 24DB
ENCODING 10328
SWIDTH 1200 0
DWIDTH 12 0
BBX 10 9 0 -2
BITMAP
1F00
7DC0
6CC0
CC40
CC40
CC40
6CC0
71C0
1F00
ENDCHAR
STARTCHAR 24DC
ENCODING 10329
SWIDTH 1200 0
DWIDTH 12 0
BBX 10 8 0 -1
BITMAP
1F00
71C0
FF40
FF40
FF40
FF40
71C0
1F00
ENDCHAR
STARTCHAR 24DD
ENCODING 10330
SWIDTH 1200 0
DWIDTH 12 0
BBX 10 9 0 -2
BITMAP
1F00
71C0
7FC0
DB40
DB40
DB40
60C0
71C0
1F00
ENDCHAR
STARTCHAR 24DE
ENCODING 10331
SWIDTH 1200 0
DWIDTH 12 0
BBX 10 9 0 -2
BITMAP
1F00
71C0
7EC0
F340
F340
F340
7EC0
71C0
1F00
ENDCHAR
STARTCHAR 24DF
ENCODING 10332
SWIDTH 1200 0
DWIDTH 12 0
BBX 10 9 0 -2
BITMAP
1F00
77C0
7BC0
DB40
DB40
DE40
78C0
71C0
1F00
ENDCHAR
STARTCHAR 24E0
ENCODING 10333
SWIDTH 1200 0
DWIDTH 12 0
BBX 10 9 0 -2
BITMAP
1F00
7FC0
66C0
E640
FE40
D640
66C0
71C0
1F00
ENDCHAR
STARTCHAR 24E1
ENCODING 10334
SWIDTH 1200 0
DWIDTH 12 0
BBX 10 9 0 -2
BITMAP
1F00
71C0
7FC0
D940
D840
D840
60C0
71C0
1F00
ENDCHAR
STARTCHAR 24E2
ENCODING 10335
SWIDTH 1200 0
DWIDTH 12 0
BBX 10 9 1 -2
BITMAP
1E00
6380
BDC0
B8C0
1CC0
BCC0
99C0
4380
3E00
ENDCHAR
STARTCHAR 24E3
ENCODING 10336
SWIDTH 1200 0
DWIDTH 12 0
BBX 10 9 0 -2
BITMAP
1F00
7DC0
6CC0
DE40
CC40
CC40
6FC0
71C0
1F00
ENDCHAR
STARTCHAR 24E4
ENCODING 10337
SWIDTH 1200 0
DWIDTH 12 0
BBX 10 9 0 -2
BITMAP
1F00
71C0
7BC0
DB40
DB40
DF40
60C0
71C0
1F00
ENDCHAR
STARTCHAR 24E5
ENCODING 10338
SWIDTH 1200 0
DWIDTH 12 0
BBX 10 9 0 -2
BITMAP
1F00
71C0
73C0
D240
DE40
CC40
6CC0
71C0
1F00
ENDCHAR
STARTCHAR 24E6
ENCODING 10339
SWIDTH 1200 0
DWIDTH 12 0
BBX 10 9 1 -2
BITMAP
1E00
6380
7BC0
BEC0
3CC0
BCC0
B5C0
4380
3E00
ENDCHAR
STARTCHAR 24E7
ENCODING 10340
SWIDTH 1200 0
DWIDTH 12 0
BBX 10 9 0 -2
BITMAP
1F00
73C0
7EC0
CC40
CC40
CC40
7EC0
73C0
1F00
ENDCHAR
STARTCHAR 24E8
ENCODING 10341
SWIDTH 1200 0
DWIDTH 12 0
BBX 10 9 0 -2
BITMAP
1F00
71C0
7AC0
CE40
C440
CC40
78C0
71C0
1F00
ENDCHAR
STARTCHAR 24E9
ENCODING 10342
SWIDTH 1200 0
DWIDTH 12 0
BBX 10 9 0 -2
BITMAP
1F00
71C0
7FC0
C640
CC40
D840
7FC0
71C0
1F00
ENDCHAR
STARTCHAR 2460
ENCODING 10343
SWIDTH 1200 0
DWIDTH 12 0
BBX 10 9 0 -2
BITMAP
1F00
7DC0
7CC0
CC40
CC40
CC40
6CC0
71C0
1F00
ENDCHAR
STARTCHAR 2461
ENCODING 10344
SWIDTH 1200 0
DWIDTH 12 0
BBX 10 9 0 -2
BITMAP
1F00
7FC0
66C0
C440
D840
DE40
60C0
71C0
1F00
ENDCHAR
STARTCHAR 2462
ENCODING 10345
SWIDTH 1200 0
DWIDTH 12 0
BBX 10 9 0 -2
BITMAP
1F00
7FC0
62C0
CE40
C240
D240
6EC0
71C0
1F00
ENDCHAR
STARTCHAR 2463
ENCODING 10346
SWIDTH 1200 0
DWIDTH 12 0
BBX 10 8 0 -1
BITMAP
1F00
77C0
CE40
DE40
FF40
C640
71C0
1F00
ENDCHAR
STARTCHAR 2464
ENCODING 10347
SWIDTH 1200 0
DWIDTH 12 0
BBX 10 9 0 -2
BITMAP
1F00
7FC0
78C0
DE40
C240
DE40
60C0
71C0
1F00
ENDCHAR
STARTCHAR 2465
ENCODING 10348
SWIDTH 1200 0
DWIDTH 12 0
BBX 10 8 0 -1
BITMAP
1F00
75C0
CC40
DC40
D640
D640
7DC0
1F00
ENDCHAR
STARTCHAR 2466
ENCODING 10349
SWIDTH 1200 0
DWIDTH 12 0
BBX 10 9 0 -2
BITMAP
1F00
71C0
7EC0
C640
C640
CC40
6CC0
71C0
1F00
ENDCHAR
STARTCHAR 2467
ENCODING 10350
SWIDTH 1200 0
DWIDTH 12 0
BBX 10 9 0 -2
BITMAP
1F00
7DC0
7EC0
DE40
DE40
DA40
6CC0
7180
1F00
ENDCHAR
STARTCHAR 2468
ENCODING 10351
SWIDTH 1200 0
DWIDTH 12 0
BBX 10 9 0 -2
BITMAP
1F00
7DC0
7EC0
DE40
CE40
DA40
6CC0
71C0
1F00
ENDCHAR
STARTCHAR 2469
ENCODING 10352
SWIDTH 1200 0
DWIDTH 12 0
BBX 10 9 0 -2
BITMAP
1F00
77C0
7DC0
FDC0
FDC0
FDC0
77C0
71C0
1F00
ENDCHAR
STARTCHAR 246A
ENCODING 10353
SWIDTH 1200 0
DWIDTH 12 0
BBX 10 9 0 -2
BITMAP
1F00
7FC0
7EC0
DE40
DE40
DE40
7EC0
71C0
1F00
ENDCHAR
STARTCHAR 246B
ENCODING 10354
SWIDTH 1200 0
DWIDTH 12 0
BBX 10 9 0 -2
BITMAP
1F00
77C0
7FC0
F140
F340
F640
7CC0
7FC0
1F00
ENDCHAR
STARTCHAR 246C
ENCODING 10355
SWIDTH 1200 0
DWIDTH 12 0
BBX 10 9 0 -2
BITMAP
1F00
77C0
7DC0
F740
F140
FD40
76C0
7180
1F00
ENDCHAR
STARTCHAR 246D
ENCODING 10356
SWIDTH 1200 0
DWIDTH 12 0
BBX 10 8 0 -1
BITMAP
1F00
73C0
F740
FF40
FFC0
F340
71C0
1F00
ENDCHAR
STARTCHAR 246E
ENCODING 10357
SWIDTH 1200 0
DWIDTH 12 0
BBX 10 9 0 -2
BITMAP
1F00
36C0
55C0
F740
D4C0
D0C0
7540
72C0
1F00
ENDCHAR
STARTCHAR 00BD
ENCODING 10358
SWIDTH 1200 0
DWIDTH 12 0
BBX 8 8 1 -2
BITMAP
C2
46
4C
5E
32
26
47
80
ENDCHAR
STARTCHAR 2153
ENCODING 10359
SWIDTH 1200 0
DWIDTH 12 0
BBX 8 8 1 -1
BITMAP
62
E4
6C
78
37
63
C1
87
ENDCHAR
STARTCHAR 2154
ENCODING 10360
SWIDTH 1200 0
DWIDTH 12 0
BBX 8 8 1 -1
BITMAP
E0
E2
C4
E8
17
23
41
87
ENDCHAR
STARTCHAR 00BC
ENCODING 10361
SWIDTH 1200 0
DWIDTH 12 0
BBX 8 7 1 -1
BITMAP
E2
64
6C
7E
3E
7F
46
ENDCHAR
STARTCHAR 00BE
ENCODING 10362
SWIDTH 1200 0
DWIDTH 12 0
BBX 8 8 1 -1
BITMAP
41
E2
64
AC
FE
36
6F
C2
ENDCHAR
STARTCHAR 215B
ENCODING 10363
SWIDTH 1200 0
DWIDTH 12 0
BBX 9 8 0 -1
BITMAP
6000
E300
6600
6C00
1B80
3380
6280
4380
ENDCHAR
STARTCHAR 215C
ENCODING 10364
SWIDTH 1200 0
DWIDTH 12 0
BBX 9 8 1 -1
BITMAP
E000
6600
6C00
E800
1700
2700
4580
8700
ENDCHAR
STARTCHAR 215D
ENCODING 10365
SWIDTH 1200 0
DWIDTH 12 0
BBX 9 8 1 -1
BITMAP
E000
C200
E400
A800
D780
3780
6580
C700
ENDCHAR
STARTCHAR 215E
ENCODING 10366
SWIDTH 1200 0
DWIDTH 12 0
BBX 9 9 1 -2
BITMAP
F000
2600
6400
4800
5700
2700
4580
8700
8000
ENDCHAR
STARTCHAR 00E6
ENCODING 10529
SWIDTH 1200 0
DWIDTH 12 0
BBX 7 5 2 0
BITMAP
FC
B6
FE
B6
FC
ENDCHAR
STARTCHAR 0111
ENCODING 10530
SWIDTH 1200 0
DWIDTH 12 0
BBX 7 7 2 0
BITMAP
0C
7E
0C
FC
CC
CC
7C
ENDCHAR
STARTCHAR 00F0
ENCODING 10531
SWIDTH 1200 0
DWIDTH 12 0
BBX 6 7 2 0
BITMAP
04
78
DC
24
FC
C4
78
ENDCHAR
STARTCHAR 0127
ENCODING 10532
SWIDTH 1200 0
DWIDTH 12 0
BBX 6 7 2 0
BITMAP
60
FC
60
7C
6C
6C
6C
ENDCHAR
STARTCHAR 0131
ENCODING 10533
SWIDTH 1200 0
DWIDTH 12 0
BBX 2 7 4 0
BITMAP
C0
C0
C0
C0
C0
C0
C0
ENDCHAR
STARTCHAR 0133
ENCODING 10534
SWIDTH 1200 0
DWIDTH 12 0
BBX 6 8 2 -1
BITMAP
CC
00
CC
CC
CC
CC
CC
1C
ENDCHAR
STARTCHAR 0138
ENCODING 10535
SWIDTH 1200 0
DWIDTH 12 0
BBX 6 7 2 0
BITMAP
C0
C0
CC
F8
F0
C8
CC
ENDCHAR
STARTCHAR 0140
ENCODING 10536
SWIDTH 1200 0
DWIDTH 12 0
BBX 4 7 3 0
BITMAP
C0
C0
C0
D0
C0
C0
C0
ENDCHAR
STARTCHAR 0142
ENCODING 10537
SWIDTH 1200 0
DWIDTH 12 0
BBX 6 7 2 0
BITMAP
34
3C
38
30
70
70
B0
ENDCHAR
STARTCHAR 00F8
ENCODING 10538
SWIDTH 1200 0
DWIDTH 12 0
BBX 7 9 2 -2
BITMAP
0C
08
7C
94
B6
A4
7C
78
40
ENDCHAR
STARTCHAR 0153
ENCODING 10539
SWIDTH 1200 0
DWIDTH 12 0
BBX 8 5 1 0
BITMAP
7E
D9
DF
D9
7E
ENDCHAR
STARTCHAR 00DF
ENCODING 10540
SWIDTH 1200 0
DWIDTH 12 0
BBX 7 8 2 -1
BITMAP
78
CC
CC
DC
C6
C6
FC
80
ENDCHAR
STARTCHAR 00FE
ENCODING 10541
SWIDTH 1200 0
DWIDTH 12 0
BBX 6 7 2 0
BITMAP
C0
F0
C8
CC
CC
F8
C0
ENDCHAR
STARTCHAR 0167
ENCODING 10542
SWIDTH 1200 0
DWIDTH 12 0
BBX 6 8 2 -1
BITMAP
34
78
B0
FC
30
30
34
3C
ENDCHAR
STARTCHAR 014B
ENCODING 10543
SWIDTH 1200 0
DWIDTH 12 0
BBX 5 6 3 -1
BITMAP
F0
D8
D8
D8
18
70
ENDCHAR
STARTCHAR 0149
ENCODING 10544
SWIDTH 1200 0
DWIDTH 12 0
BBX 5 5 3 0
BITMAP
F8
D8
D8
D8
D8
ENDCHAR
STARTCHAR 3200
ENCODING 10545
SWIDTH 1200 0
DWIDTH 12 0
BBX 10 8 0 -1
BITMAP
2100
7F80
C3C0
C3C0
C3C0
C3C0
6380
3300
ENDCHAR
STARTCHAR 3201
ENCODING 10546
SWIDTH 1200 0
DWIDTH 12 0
BBX 10 8 0 -1
BITMAP
6100
7180
B0C0
B0C0
B0C0
FFC0
4180
2100
ENDCHAR
STARTCHAR 3202
ENCODING 10547
SWIDTH 1200 0
DWIDTH 12 0
BBX 10 8 0 -1
BITMAP
2180
7E80
F040
F040
F040
FEC0
6080
3100
ENDCHAR
STARTCHAR 3203
ENCODING 10548
SWIDTH 1200 0
DWIDTH 12 0
BBX 10 8 0 -1
BITMAP
2180
7F80
C340
FF40
F040
FFC0
6080
3100
ENDCHAR
STARTCHAR 3204
ENCODING 10549
SWIDTH 1200 0
DWIDTH 12 0
BBX 10 8 0 -1
BITMAP
2100
7F80
F3C0
F3C0
F3C0
FFC0
6180
3100
ENDCHAR
STARTCHAR 3205
ENCODING 10550
SWIDTH 1200 0
DWIDTH 12 0
BBX 10 8 0 -1
BITMAP
2100
7380
F3C0
FFC0
F3C0
FFC0
6180
3300
ENDCHAR
STARTCHAR 3206
ENCODING 10551
SWIDTH 1200 0
DWIDTH 12 0
BBX 10 8 0 -1
BITMAP
2100
6D80
CCC0
CCC0
DEC0
F3C0
6180
3300
ENDCHAR
STARTCHAR 3207
ENCODING 10552
SWIDTH 1200 0
DWIDTH 12 0
BBX 10 8 0 -1
BITMAP
2100
7F80
F3C0
F3C0
F3C0
DEC0
6180
3300
ENDCHAR
STARTCHAR 3208
ENCODING 10553
SWIDTH 1200 0
DWIDTH 12 0
BBX 10 8 0 -1
BITMAP
2100
7F80
CCC0
CCC0
CEC0
FBC0
6180
3300
ENDCHAR
STARTCHAR 3209
ENCODING 10554
SWIDTH 1200 0
DWIDTH 12 0
BBX 10 8 0 -1
BITMAP
2100
6D80
FFC0
CCC0
CCC0
FFC0
6180
3300
ENDCHAR
STARTCHAR 320A
ENCODING 10555
SWIDTH 1200 0
DWIDTH 12 0
BBX 10 8 0 -1
BITMAP
2100
7F80
C3C0
DFC0
C3C0
C3C0
6180
3300
ENDCHAR
STARTCHAR 320B
ENCODING 10556
SWIDTH 1200 0
DWIDTH 12 0
BBX 10 8 0 -1
BITMAP
2100
7F80
D8C0
DFC0
D8C0
DFC0
6180
3300
ENDCHAR
STARTCHAR 320C
ENCODING 10557
SWIDTH 1200 0
DWIDTH 12 0
BBX 10 8 0 -1
BITMAP
2180
7F80
DE40
DE40
DE40
FFC0
6080
3100
ENDCHAR
STARTCHAR 320D
ENCODING 10558
SWIDTH 1200 0
DWIDTH 12 0
BBX 10 8 0 -1
BITMAP
2100
6D80
FFC0
FFC0
F3C0
F3C0
7F80
3300
ENDCHAR
STARTCHAR 320E
ENCODING 10559
SWIDTH 1200 0
DWIDTH 12 0
BBX 10 8 0 -1
BITMAP
2100
7F80
CFC0
CFC0
FBC0
C3C0
6380
3300
ENDCHAR
STARTCHAR 320F
ENCODING 10560
SWIDTH 1200 0
DWIDTH 12 0
BBX 10 8 0 -1
BITMAP
2180
6380
F340
F3C0
F340
FFC0
6380
3100
ENDCHAR
STARTCHAR 3210
ENCODING 10561
SWIDTH 1200 0
DWIDTH 12 0
BBX 10 8 0 -1
BITMAP
2100
7F80
F3C0
F3C0
F3C0
FFC0
6380
3300
ENDCHAR
STARTCHAR 3211
ENCODING 10562
SWIDTH 1200 0
DWIDTH 12 0
BBX 10 8 0 -1
BITMAP
2100
7F80
CFC0
FFC0
F3C0
FFC0
6380
3300
ENDCHAR
STARTCHAR 3212
ENCODING 10563
SWIDTH 1200 0
DWIDTH 12 0
BBX 10 8 0 -1
BITMAP
2100
7F80
FFC0
FFC0
FFC0
FFC0
6380
3300
ENDCHAR
STARTCHAR 3213
ENCODING 10564
SWIDTH 1200 0
DWIDTH 12 0
BBX 10 8 0 -1
BITMAP
6100
4380
BFC0
BFC0
BFC0
FFC0
4380
2300
ENDCHAR
STARTCHAR 3214
ENCODING 10565
SWIDTH 1200 0
DWIDTH 12 0
BBX 10 8 0 -1
BITMAP
2100
7B80
DBC0
DBC0
FFC0
C3C0
6380
3300
ENDCHAR
STARTCHAR 3215
ENCODING 10566
SWIDTH 1200 0
DWIDTH 12 0
BBX 10 8 0 -1
BITMAP
2100
7B80
FFC0
FFC0
FFC0
DBC0
6380
3300
ENDCHAR
STARTCHAR 3216
ENCODING 10567
SWIDTH 1200 0
DWIDTH 12 0
BBX 10 8 0 -1
BITMAP
2100
7F80
DBC0
DBC0
FFC0
E7C0
6380
3300
ENDCHAR
STARTCHAR 3217
ENCODING 10568
SWIDTH 1200 0
DWIDTH 12 0
BBX 10 8 0 -1
BITMAP
3980
7F80
DB40
DBC0
FF40
C3C0
6380
3100
ENDCHAR
STARTCHAR 3218
ENCODING 10569
SWIDTH 1200 0
DWIDTH 12 0
BBX 10 8 0 -1
BITMAP
2180
7F80
CF40
FFC0
CB40
FBC0
6380
3100
ENDCHAR
STARTCHAR 3219
ENCODING 10570
SWIDTH 1200 0
DWIDTH 12 0
BBX 10 8 0 -1
BITMAP
2100
7F80
F3C0
FFC0
F3C0
FFC0
6380
3300
ENDCHAR
STARTCHAR 321A
ENCODING 10571
SWIDTH 1200 0
DWIDTH 12 0
BBX 10 8 0 -1
BITMAP
2100
7F80
FFC0
FFC0
FFC0
FFC0
6380
3300
ENDCHAR
STARTCHAR 321B
ENCODING 10572
SWIDTH 1200 0
DWIDTH 12 0
BBX 10 8 0 -1
BITMAP
2100
7B80
FFC0
FFC0
FFC0
FFC0
6380
3300
ENDCHAR
STARTCHAR 249C
ENCODING 10573
SWIDTH 1200 0
DWIDTH 12 0
BBX 10 8 0 -1
BITMAP
2100
7F80
D2C0
DEC0
F2C0
FFC0
6180
3300
ENDCHAR
STARTCHAR 249D
ENCODING 10574
SWIDTH 1200 0
DWIDTH 12 0
BBX 10 8 0 -1
BITMAP
2180
7880
DE40
DB40
DB40
DBC0
7480
3100
ENDCHAR
STARTCHAR 249E
ENCODING 10575
SWIDTH 1200 0
DWIDTH 12 0
BBX 10 8 0 -1
BITMAP
2100
6180
DEC0
D0C0
D0C0
D3C0
6F80
3300
ENDCHAR
STARTCHAR 249F
ENCODING 10576
SWIDTH 1200 0
DWIDTH 12 0
BBX 10 8 0 -1
BITMAP
2780
6680
DE40
F640
F640
F6C0
6A80
3100
ENDCHAR
STARTCHAR 24A0
ENCODING 10577
SWIDTH 1200 0
DWIDTH 12 0
BBX 10 8 0 -1
BITMAP
2100
7F80
D3C0
FFC0
D3C0
DEC0
6180
3300
ENDCHAR
STARTCHAR 24A1
ENCODING 10578
SWIDTH 1200 0
DWIDTH 12 0
BBX 10 8 0 -1
BITMAP
2100
6D80
C8C0
FEC0
CCC0
CCC0
6D80
3300
ENDCHAR
STARTCHAR 24A2
ENCODING 10579
SWIDTH 1200 0
DWIDTH 12 0
BBX 10 8 0 -1
BITMAP
2300
7F80
F3C0
F3C0
DFC0
F3C0
7F80
3300
ENDCHAR
STARTCHAR 24A3
ENCODING 10580
SWIDTH 1200 0
DWIDTH 12 0
BBX 10 8 0 -1
BITMAP
2100
7180
FCC0
FEC0
F2C0
F2C0
7380
3300
ENDCHAR
STARTCHAR 24A4
ENCODING 10581
SWIDTH 1200 0
DWIDTH 12 0
BBX 10 8 0 -1
BITMAP
6100
4D80
C0C0
8CC0
8CC0
CCC0
4D80
2300
ENDCHAR
STARTCHAR 24A5
ENCODING 10582
SWIDTH 1200 0
DWIDTH 12 0
BBX 10 8 0 -1
BITMAP
2580
6480
C640
C640
C640
C6C0
6E80
3100
ENDCHAR
STARTCHAR 24A6
ENCODING 10583
SWIDTH 1200 0
DWIDTH 12 0
BBX 10 8 0 -1
BITMAP
6100
7180
B6C0
BCC0
BCC0
F6C0
4380
2300
ENDCHAR
STARTCHAR 24A7
ENCODING 10584
SWIDTH 1200 0
DWIDTH 12 0
BBX 10 8 0 -1
BITMAP
6100
4D80
CCC0
8CC0
8CC0
CCC0
4D80
2300
ENDCHAR
STARTCHAR 24A8
ENCODING 10585
SWIDTH 1200 0
DWIDTH 12 0
BBX 10 8 0 -1
BITMAP
6180
4080
BF40
AD40
AD40
EDC0
4080
2100
ENDCHAR
STARTCHAR 24A9
ENCODING 10586
SWIDTH 1200 0
DWIDTH 12 0
BBX 10 8 0 -1
BITMAP
2100
6180
FEC0
F2C0
F2C0
F2C0
6180
3300
ENDCHAR
STARTCHAR 24AA
ENCODING 10587
SWIDTH 1200 0
DWIDTH 12 0
BBX 10 8 0 -1
BITMAP
2100
6F80
F1C0
F1C0
F1C0
F3C0
7F80
3100
ENDCHAR
STARTCHAR 24AB
ENCODING 10588
SWIDTH 1200 0
DWIDTH 12 0
BBX 10 8 0 -1
BITMAP
2100
7F80
DBC0
DBC0
DBC0
DEC0
7980
3300
ENDCHAR
STARTCHAR 24AC
ENCODING 10589
SWIDTH 1200 0
DWIDTH 12 0
BBX 10 8 0 -1
BITMAP
2100
7F80
F6C0
F6C0
FEC0
CAC0
6380
3300
ENDCHAR
STARTCHAR 24AD
ENCODING 10590
SWIDTH 1200 0
DWIDTH 12 0
BBX 10 8 0 -1
BITMAP
2100
7980
DFC0
D8C0
D8C0
D8C0
7980
3300
ENDCHAR
STARTCHAR 24AE
ENCODING 10591
SWIDTH 1200 0
DWIDTH 12 0
BBX 10 8 0 -1
BITMAP
2180
6C80
DE40
DC40
C640
DEC0
6C80
3100
ENDCHAR
STARTCHAR 24AF
ENCODING 10592
SWIDTH 1200 0
DWIDTH 12 0
BBX 10 8 0 -1
BITMAP
2D00
6D80
FEC0
CCC0
CCC0
CFC0
6780
3300
ENDCHAR
STARTCHAR 24B0
ENCODING 10593
SWIDTH 1200 0
DWIDTH 12 0
BBX 10 8 0 -1
BITMAP
2100
6080
F3C0
F3C0
F3C0
FFC0
6180
3000
ENDCHAR
STARTCHAR 24B1
ENCODING 10594
SWIDTH 1200 0
DWIDTH 12 0
BBX 10 8 0 -1
BITMAP
2100
6180
F3C0
D2C0
DEC0
CCC0
6D80
3300
ENDCHAR
STARTCHAR 24B2
ENCODING 10595
SWIDTH 1200 0
DWIDTH 12 0
BBX 10 8 0 -1
BITMAP
2100
6180
EDC0
FDC0
DFC0
DEC0
6B80
3300
ENDCHAR
STARTCHAR 24B3
ENCODING 10596
SWIDTH 1200 0
DWIDTH 12 0
BBX 10 8 0 -1
BITMAP
2100
6180
DAC0
CCC0
CCC0
DAC0
6180
3300
ENDCHAR
STARTCHAR 24B4
ENCODING 10597
SWIDTH 1200 0
DWIDTH 12 0
BBX 10 8 0 -1
BITMAP
2100
6180
DBC0
CEC0
C6C0
DCC0
7980
3300
ENDCHAR
STARTCHAR 24B5
ENCODING 10598
SWIDTH 1200 0
DWIDTH 12 0
BBX 10 8 0 -1
BITMAP
2180
7F80
C640
CC40
D840
DFC0
6080
3100
ENDCHAR
STARTCHAR 2474
ENCODING 10599
SWIDTH 1200 0
DWIDTH 12 0
BBX 10 8 0 -1
BITMAP
2180
6C80
DC40
CC40
CC40
CCC0
6C80
3100
ENDCHAR
STARTCHAR 2475
ENCODING 10600
SWIDTH 1200 0
DWIDTH 12 0
BBX 10 8 0 -1
BITMAP
6500
5F80
D2C0
86C0
88C0
DFC0
4180
2300
ENDCHAR
STARTCHAR 2476
ENCODING 10601
SWIDTH 1200 0
DWIDTH 12 0
BBX 10 8 0 -1
BITMAP
2100
6F80
DAC0
C6C0
CEC0
D3C0
6F80
3300
ENDCHAR
STARTCHAR 2477
ENCODING 10602
SWIDTH 1200 0
DWIDTH 12 0
BBX 10 8 0 -1
BITMAP
2100
6F80
DEC0
D6C0
FFC0
C6C0
6180
3100
ENDCHAR
STARTCHAR 2478
ENCODING 10603
SWIDTH 1200 0
DWIDTH 12 0
BBX 10 8 0 -1
BITMAP
2100
7F80
DCC0
DEC0
C3C0
DEC0
6D80
3300
ENDCHAR
STARTCHAR 2479
ENCODING 10604
SWIDTH 1200 0
DWIDTH 12 0
BBX 10 8 0 -1
BITMAP
6180
4280
C640
8E40
8F40
D3C0
4E80
2100
ENDCHAR
STARTCHAR 247A
ENCODING 10605
SWIDTH 1200 0
DWIDTH 12 0
BBX 10 8 0 -1
BITMAP
2100
7F80
C6C0
C6C0
C4C0
CCC0
6D80
3300
ENDCHAR
STARTCHAR 247B
ENCODING 10606
SWIDTH 1200 0
DWIDTH 12 0
BBX 10 8 0 -1
BITMAP
2180
6C80
DA40
DE40
DE40
D2C0
6E80
3100
ENDCHAR
STARTCHAR 247C
ENCODING 10607
SWIDTH 1200 0
DWIDTH 12 0
BBX 10 8 0 -1
BITMAP
6100
4F80
9AC0
9EC0
82C0
DAC0
4D80
2300
ENDCHAR
STARTCHAR 247D
ENCODING 10608
SWIDTH 1200 0
DWIDTH 12 0
BBX 10 8 0 -1
BITMAP
2180
7780
FDC0
FDC0
FDC0
FDC0
7780
3100
ENDCHAR
STARTCHAR 247E
ENCODING 10609
SWIDTH 1200 0
DWIDTH 12 0
BBX 10 8 0 -1
BITMAP
2100
7B80
FFC0
DBC0
DBC0
DBC0
7B80
3300
ENDCHAR
STARTCHAR 247F
ENCODING 10610
SWIDTH 1200 0
DWIDTH 12 0
BBX 10 8 0 -1
BITMAP
2100
7F80
F1C0
F2C0
F4C0
FFC0
7180
3300
ENDCHAR
STARTCHAR 2480
ENCODING 10611
SWIDTH 1200 0
DWIDTH 12 0
BBX 10 8 0 -1
BITMAP
2100
7F80
F1C0
F7C0
F1C0
FDC0
7780
3300
ENDCHAR
STARTCHAR 2481
ENCODING 10612
SWIDTH 1200 0
DWIDTH 12 0
BBX 10 8 0 -1
BITMAP
2100
7380
F7C0
FFC0
FFC0
F3C0
7180
3300
ENDCHAR
STARTCHAR 2482
ENCODING 10613
SWIDTH 1200 0
DWIDTH 12 0
BBX 10 8 0 -1
BITMAP
2100
7F80
FCC0
FFC0
F1C0
FFC0
7380
3300
ENDCHAR
STARTCHAR 00B9
ENCODING 10614
SWIDTH 1200 0
DWIDTH 12 0
BBX 3 5 3 3
BITMAP
60
E0
60
60
60
ENDCHAR
STARTCHAR 00B2
ENCODING 10615
SWIDTH 1200 0
DWIDTH 12 0
BBX 4 5 3 2
BITMAP
F0
30
60
F0
F0
ENDCHAR
STARTCHAR 00B3
ENCODING 10616
SWIDTH 1200 0
DWIDTH 12 0
BBX 5 5 3 2
BITMAP
F8
38
78
D8
70
ENDCHAR
STARTCHAR 2074
ENCODING 10617
SWIDTH 1200 0
DWIDTH 12 0
BBX 6 5 2 2
BITMAP
18
38
78
FC
18
ENDCHAR
STARTCHAR 207F
ENCODING 10618
SWIDTH 1200 0
DWIDTH 12 0
BBX 5 4 3 3
BITMAP
D0
F8
D8
D8
ENDCHAR
STARTCHAR 2081
ENCODING 10619
SWIDTH 1200 0
DWIDTH 12 0
BBX 3 5 3 -2
BITMAP
60
E0
60
60
60
ENDCHAR
STARTCHAR 2082
ENCODING 10620
SWIDTH 1200 0
DWIDTH 12 0
BBX 4 4 3 -1
BITMAP
F0
30
60
F0
ENDCHAR
STARTCHAR 2083
ENCODING 10621
SWIDTH 1200 0
DWIDTH 12 0
BBX 4 5 3 -1
BITMAP
60
D0
30
10
70
ENDCHAR
STARTCHAR 2084
ENCODING 10622
SWIDTH 1200 0
DWIDTH 12 0
BBX 6 5 2 -2
BITMAP
38
78
FC
18
18
ENDCHAR
STARTCHAR 3041
ENCODING 10785
SWIDTH 1200 0
DWIDTH 12 0
BBX 6 6 2 -1
BITMAP
30
68
78
B4
FC
68
ENDCHAR
STARTCHAR 3042
ENCODING 10786
SWIDTH 1200 0
DWIDTH 12 0
BBX 8 8 1 -1
BITMAP
30
FC
36
7E
FF
B9
F3
52
ENDCHAR
STARTCHAR 3043
ENCODING 10787
SWIDTH 1200 0
DWIDTH 12 0
BBX 7 5 2 0
BITMAP
C0
C0
CC
C6
74
ENDCHAR
STARTCHAR 3044
ENCODING 10788
SWIDTH 1200 0
DWIDTH 12 0
BBX 8 7 1 0
BITMAP
C0
C0
C4
C6
C3
EB
78
ENDCHAR
STARTCHAR 3045
ENCODING 10789
SWIDTH 1200 0
DWIDTH 12 0
BBX 4 6 3 -1
BITMAP
60
30
F0
10
30
20
ENDCHAR
STARTCHAR 3046
ENCODING 10790
SWIDTH 1200 0
DWIDTH 12 0
BBX 6 8 2 -1
BITMAP
60
3C
38
FC
04
0C
18
10
ENDCHAR
STARTCHAR 3047
ENCODING 10791
SWIDTH 1200 0
DWIDTH 12 0
BBX 6 6 2 0
BITMAP
20
10
78
30
70
9C
ENDCHAR
STARTCHAR 3048
ENCODING 10792
SWIDTH 1200 0
DWIDTH 12 0
BBX 7 7 2 0
BITMAP
60
38
F8
18
70
F8
9E
ENDCHAR
STARTCHAR 3049
ENCODING 10793
SWIDTH 1200 0
DWIDTH 12 0
BBX 7 5 1 0
BITMAP
30
7A
3C
F2
FE
ENDCHAR
STARTCHAR 304A
ENCODING 10794
SWIDTH 1200 0
DWIDTH 12 0
BBX 8 7 1 0
BITMAP
20
7A
13
3E
F1
B1
E7
ENDCHAR
STARTCHAR 304B
ENCODING 10795
SWIDTH 1200 0
DWIDTH 12 0
BBX 7 5 2 0
BITMAP
60
FC
5E
DA
B0
ENDCHAR
STARTCHAR 304C
ENCODING 10796
SWIDTH 1200 0
DWIDTH 12 0
BBX 10 8 0 0
BITMAP
0080
31C0
3180
7F00
3D00
3C00
6C00
F800
ENDCHAR
STARTCHAR 304D
ENCODING 10797
SWIDTH 1200 0
DWIDTH 12 0
BBX 6 8 2 -1
BITMAP
20
F8
1C
F8
7C
C0
80
7C
ENDCHAR
STARTCHAR 304E
ENCODING 10798
SWIDTH 1200 0
DWIDTH 12 0
BBX 10 9 0 -1
BITMAP
0080
3FC0
7B00
1E00
FC00
3C00
4000
4200
7E00
ENDCHAR
STARTCHAR 304F
ENCODING 10799
SWIDTH 1200 0
DWIDTH 12 0
BBX 4 7 3 0
BITMAP
10
30
C0
C0
60
30
10
ENDCHAR
STARTCHAR 3050
ENCODING 10800
SWIDTH 1200 0
DWIDTH 12 0
BBX 8 7 1 0
BITMAP
1A
35
66
C0
60
30
10
ENDCHAR
STARTCHAR 3051
ENCODING 10801
SWIDTH 1200 0
DWIDTH 12 0
BBX 8 7 1 0
BITMAP
46
C7
DE
C4
44
44
7C
ENDCHAR
STARTCHAR 3052
ENCODING 10802
SWIDTH 1200 0
DWIDTH 12 0
BBX 9 8 0 0
BITMAP
0080
CF80
8D00
BE00
8C00
CC00
D800
5800
ENDCHAR
STARTCHAR 3053
ENCODING 10803
SWIDTH 1200 0
DWIDTH 12 0
BBX 8 7 1 0
BITMAP
20
3E
00
00
80
C0
7F
ENDCHAR
STARTCHAR 3054
ENCODING 10804
SWIDTH 1200 0
DWIDTH 12 0
BBX 10 8 0 0
BITMAP
0080
03C0
3F00
0000
0000
0000
C000
7F00
ENDCHAR
STARTCHAR 3055
ENCODING 10805
SWIDTH 1200 0
DWIDTH 12 0
BBX 6 8 2 -1
BITMAP
24
3C
F0
98
7C
C0
C4
7C
ENDCHAR
STARTCHAR 3056
ENCODING 10806
SWIDTH 1200 0
DWIDTH 12 0
BBX 8 9 1 -1
BITMAP
03
27
3A
F0
3C
FC
80
FC
30
ENDCHAR
STARTCHAR 3057
ENCODING 10807
SWIDTH 1200 0
DWIDTH 12 0
BBX 6 7 3 0
BITMAP
C0
C0
C0
C0
C0
CC
78
ENDCHAR
STARTCHAR 3058
ENCODING 10808
SWIDTH 1200 0
DWIDTH 12 0
BBX 6 8 3 0
BITMAP
08
C4
D0
D0
C0
C0
CC
78
ENDCHAR
STARTCHAR 3059
ENCODING 10809
SWIDTH 1200 0
DWIDTH 12 0
BBX 7 8 2 -1
BITMAP
18
FE
18
78
D8
78
18
30
ENDCHAR
STARTCHAR 305A
ENCODING 10810
SWIDTH 1200 0
DWIDTH 12 0
BBX 9 9 1 -1
BITMAP
0100
1A80
FD00
1800
7800
D800
7800
3800
3000
ENDCHAR
STARTCHAR 305B
ENCODING 10811
SWIDTH 1200 0
DWIDTH 12 0
BBX 8 7 0 0
BITMAP
32
36
FF
36
3E
30
1F
ENDCHAR
STARTCHAR 305C
ENCODING 10812
SWIDTH 1200 0
DWIDTH 12 0
BBX 9 8 0 0
BITMAP
0080
3380
3700
FF00
3600
3E00
3000
1F00
ENDCHAR
STARTCHAR 305D
ENCODING 10813
SWIDTH 1200 0
DWIDTH 12 0
BBX 7 7 2 0
BITMAP
8C
68
7E
F0
20
60
3C
ENDCHAR
STARTCHAR 305E
ENCODING 10814
SWIDTH 1200 0
DWIDTH 12 0
BBX 10 8 0 0
BITMAP
0080
6740
2D80
7E00
F000
2000
3000
1E00
ENDCHAR
STARTCHAR 305F
ENCODING 10815
SWIDTH 1200 0
DWIDTH 12 0
BBX 9 7 1 0
BITMAP
2000
3800
F000
6F00
6000
D800
8F80
ENDCHAR
STARTCHAR 3060
ENCODING 10816
SWIDTH 1200 0
DWIDTH 12 0
BBX 9 8 1 0
BITMAP
0200
2500
2A00
F800
6F00
6000
D800
8F80
ENDCHAR
STARTCHAR 3061
ENCODING 10817
SWIDTH 1200 0
DWIDTH 12 0
BBX 6 7 2 0
BITMAP
20
F8
60
7C
44
0C
38
ENDCHAR
STARTCHAR 3062
ENCODING 10818
SWIDTH 1200 0
DWIDTH 12 0
BBX 8 8 1 0
BITMAP
02
25
FA
20
7C
44
0C
38
ENDCHAR
STARTCHAR 3063
ENCODING 10819
SWIDTH 1200 0
DWIDTH 12 0
BBX 6 5 3 0
BITMAP
F8
8C
0C
18
30
ENDCHAR
STARTCHAR 3064
ENCODING 10820
SWIDTH 1200 0
DWIDTH 12 0
BBX 8 6 1 0
BITMAP
3E
C3
03
02
06
18
ENDCHAR
STARTCHAR 3065
ENCODING 10821
SWIDTH 1200 0
DWIDTH 12 0
BBX 10 8 0 0
BITMAP
0080
0140
3F80
E300
0300
0300
0600
0C00
ENDCHAR
STARTCHAR 3066
ENCODING 10822
SWIDTH 1200 0
DWIDTH 12 0
BBX 7 6 2 0
BITMAP
3E
F8
20
60
60
1C
ENDCHAR
STARTCHAR 3067
ENCODING 10823
SWIDTH 1200 0
DWIDTH 12 0
BBX 9 7 1 0
BITMAP
0100
7E80
E000
4000
C000
6000
3800
ENDCHAR
STARTCHAR 3068
ENCODING 10824
SWIDTH 1200 0
DWIDTH 12 0
BBX 7 7 1 0
BITMAP
20
32
1E
70
C0
C0
7E
ENDCHAR
STARTCHAR 3069
ENCODING 10825
SWIDTH 1200 0
DWIDTH 12 0
BBX 9 8 1 0
BITMAP
0100
6280
2500
3C00
6000
C000
C000
7E00
ENDCHAR
STARTCHAR 306A
ENCODING 10826
SWIDTH 1200 0
DWIDTH 12 0
BBX 9 7 0 0
BITMAP
3100
FD80
3300
3300
6F00
DB80
8E80
ENDCHAR
STARTCHAR 306B
ENCODING 10827
SWIDTH 1200 0
DWIDTH 12 0
BBX 8 7 1 0
BITMAP
C0
CF
C0
C0
F0
DF
C0
ENDCHAR
STARTCHAR 306C
ENCODING 10828
SWIDTH 1200 0
DWIDTH 12 0
BBX 8 7 1 0
BITMAP
08
DC
7E
F3
B3
BF
EF
ENDCHAR
STARTCHAR 306D
ENCODING 10829
SWIDTH 1200 0
DWIDTH 12 0
BBX 10 8 0 -1
BITMAP
3000
3F00
7F80
3880
7B80
FD80
5FC0
1B00
ENDCHAR
STARTCHAR 306E
ENCODING 10830
SWIDTH 1200 0
DWIDTH 12 0
BBX 8 7 1 -1
BITMAP
3C
4E
9B
93
F3
66
04
ENDCHAR
STARTCHAR 306F
ENCODING 10831
SWIDTH 1200 0
DWIDTH 12 0
BBX 9 8 1 -1
BITMAP
C000
C600
DF80
C200
CE00
D700
5F80
0800
ENDCHAR
STARTCHAR 3070
ENCODING 10832
SWIDTH 1200 0
DWIDTH 12 0
BBX 10 9 0 -1
BITMAP
0080
C140
CC80
DF00
C400
CC00
FE00
7F00
1800
ENDCHAR
STARTCHAR 3071
ENCODING 10833
SWIDTH 1200 0
DWIDTH 12 0
BBX 10 9 0 -1
BITMAP
0080
C140
C680
DF00
C600
CE00
F700
7E80
1800
ENDCHAR
STARTCHAR 3072
ENCODING 10834
SWIDTH 1200 0
DWIDTH 12 0
BBX 8 7 1 -1
BITMAP
24
E6
67
47
44
7C
10
ENDCHAR
STARTCHAR 3073
ENCODING 10835
SWIDTH 1200 0
DWIDTH 12 0
BBX 9 8 1 0
BITMAP
0100
0380
EF00
CE00
8E00
8C00
D800
F800
ENDCHAR
STARTCHAR 3074
ENCODING 10836
SWIDTH 1200 0
DWIDTH 12 0
BBX 8 7 1 0
BITMAP
03
E5
E6
C7
C4
CC
78
ENDCHAR
STARTCHAR 3075
ENCODING 10837
SWIDTH 1200 0
DWIDTH 12 0
BBX 8 7 1 0
BITMAP
38
08
30
1B
ED
64
1C
ENDCHAR
STARTCHAR 3076
ENCODING 10838
SWIDTH 1200 0
DWIDTH 12 0
BBX 9 8 1 0
BITMAP
0100
3780
0A00
2000
B600
8B00
4C00
3800
ENDCHAR
STARTCHAR 3077
ENCODING 10839
SWIDTH 1200 0
DWIDTH 12 0
BBX 8 7 1 0
BITMAP
33
09
20
B2
CD
6C
38
ENDCHAR
STARTCHAR 3078
ENCODING 10840
SWIDTH 1200 0
DWIDTH 12 0
BBX 8 5 1 0
BITMAP
38
6C
86
03
01
ENDCHAR
STARTCHAR 3079
ENCODING 10841
SWIDTH 1200 0
DWIDTH 12 0
BBX 8 6 1 0
BITMAP
06
3B
6C
86
03
01
ENDCHAR
STARTCHAR 307A
ENCODING 10842
SWIDTH 1200 0
DWIDTH 12 0
BBX 8 7 1 0
BITMAP
02
05
3A
6C
86
03
01
ENDCHAR
STARTCHAR 307B
ENCODING 10843
SWIDTH 1200 0
DWIDTH 12 0
BBX 8 8 1 -1
BITMAP
BF
CC
FF
CC
FE
F7
F8
60
ENDCHAR
STARTCHAR 307C
ENCODING 10844
SWIDTH 1200 0
DWIDTH 12 0
BBX 10 8 0 -1
BITMAP
BE80
CDC0
FF00
CC00
FE00
FF00
F800
6000
ENDCHAR
STARTCHAR 307D
ENCODING 10845
SWIDTH 1200 0
DWIDTH 12 0
BBX 10 8 0 0
BITMAP
8080
FF40
CC80
FF00
CC00
FE00
FF00
7800
ENDCHAR
STARTCHAR 307E
ENCODING 10846
SWIDTH 1200 0
DWIDTH 12 0
BBX 6 8 2 -1
BITMAP
14
FC
34
F8
10
FC
B4
60
ENDCHAR
STARTCHAR 307F
ENCODING 10847
SWIDTH 1200 0
DWIDTH 12 0
BBX 9 8 0 -1
BITMAP
3E00
0C00
0D00
3F00
5B80
F280
6600
0C00
ENDCHAR
STARTCHAR 3080
ENCODING 10848
SWIDTH 1200 0
DWIDTH 12 0
BBX 8 7 1 0
BITMAP
30
FE
73
F1
B0
62
3E
ENDCHAR
STARTCHAR 3081
ENCODING 10849
SWIDTH 1200 0
DWIDTH 12 0
BBX 8 7 1 0
BITMAP
18
9C
F6
F3
B3
BE
C4
ENDCHAR
STARTCHAR 3082
ENCODING 10850
SWIDTH 1200 0
DWIDTH 12 0
BBX 6 7 2 0
BITMAP
20
F0
70
C0
F8
CC
78
ENDCHAR
STARTCHAR 3083
ENCODING 10851
SWIDTH 1200 0
DWIDTH 12 0
BBX 6 6 2 0
BITMAP
20
C8
7C
EC
38
30
ENDCHAR
STARTCHAR 3084
ENCODING 10852
SWIDTH 1200 0
DWIDTH 12 0
BBX 8 8 1 -1
BITMAP
10
52
5F
73
F3
16
18
08
ENDCHAR
STARTCHAR 3085
ENCODING 10853
SWIDTH 1200 0
DWIDTH 12 0
BBX 7 6 2 -1
BITMAP
18
FE
FA
FE
DC
30
ENDCHAR
STARTCHAR 3086
ENCODING 10854
SWIDTH 1200 0
DWIDTH 12 0
BBX 8 8 1 -1
BITMAP
0C
5E
FF
6F
5F
5E
58
10
ENDCHAR
STARTCHAR 3087
ENCODING 10855
SWIDTH 1200 0
DWIDTH 12 0
BBX 6 5 2 0
BITMAP
30
3C
30
F8
EC
ENDCHAR
STARTCHAR 3088
ENCODING 10856
SWIDTH 1200 0
DWIDTH 12 0
BBX 7 7 1 0
BITMAP
18
1E
1C
38
FC
DE
F2
ENDCHAR
STARTCHAR 3089
ENCODING 10857
SWIDTH 1200 0
DWIDTH 12 0
BBX 7 7 2 0
BITMAP
60
F0
DC
F6
C2
06
1C
ENDCHAR
STARTCHAR 308A
ENCODING 10858
SWIDTH 1200 0
DWIDTH 12 0
BBX 5 7 3 0
BITMAP
D8
D8
D8
D8
98
30
60
ENDCHAR
STARTCHAR 308B
ENCODING 10859
SWIDTH 1200 0
DWIDTH 12 0
BBX 8 8 1 -1
BITMAP
7C
18
3E
C2
1B
3F
16
08
ENDCHAR
STARTCHAR 308C
ENCODING 10860
SWIDTH 1200 0
DWIDTH 12 0
BBX 8 7 2 0
BITMAP
60
F0
7C
74
EC
ED
66
ENDCHAR
STARTCHAR 308D
ENCODING 10861
SWIDTH 1200 0
DWIDTH 12 0
BBX 7 7 2 0
BITMAP
F8
30
7C
E6
86
06
38
ENDCHAR
STARTCHAR 308E
ENCODING 10862
SWIDTH 1200 0
DWIDTH 12 0
BBX 7 5 2 0
BITMAP
30
F4
3E
E2
64
ENDCHAR
STARTCHAR 308F
ENCODING 10863
SWIDTH 1200 0
DWIDTH 12 0
BBX 9 7 1 0
BITMAP
3000
F800
3F00
3900
F180
B300
3600
ENDCHAR
STARTCHAR 3090
ENCODING 10864
SWIDTH 1200 0
DWIDTH 12 0
BBX 8 8 1 -1
BITMAP
7C
08
3E
73
D1
AF
CB
0C
ENDCHAR
STARTCHAR 3091
ENCODING 10865
SWIDTH 1200 0
DWIDTH 12 0
BBX 7 8 1 -1
BITMAP
78
3C
66
32
3E
62
FE
18
ENDCHAR
STARTCHAR 3092
ENCODING 10866
SWIDTH 1200 0
DWIDTH 12 0
BBX 6 7 2 0
BITMAP
30
F8
70
DC
B8
40
7C
ENDCHAR
STARTCHAR 3093
ENCODING 10867
SWIDTH 1200 0
DWIDTH 12 0
BBX 8 7 1 0
BITMAP
18
30
20
78
58
DB
8E
ENDCHAR
STARTCHAR 30A1
ENCODING 11041
SWIDTH 1200 0
DWIDTH 12 0
BBX 6 5 2 0
BITMAP
7C
0C
78
E0
80
ENDCHAR
STARTCHAR 30A2
ENCODING 11042
SWIDTH 1200 0
DWIDTH 12 0
BBX 8 6 1 0
BITMAP
FF
03
33
3E
60
C0
ENDCHAR
STARTCHAR 30A3
ENCODING 11043
SWIDTH 1200 0
DWIDTH 12 0
BBX 5 5 2 0
BITMAP
10
78
F0
30
30
ENDCHAR
STARTCHAR 30A4
ENCODING 11044
SWIDTH 1200 0
DWIDTH 12 0
BBX 6 7 2 0
BITMAP
04
0C
38
F8
18
18
18
ENDCHAR
STARTCHAR 30A5
ENCODING 11045
SWIDTH 1200 0
DWIDTH 12 0
BBX 6 5 2 0
BITMAP
30
FC
CC
18
10
ENDCHAR
STARTCHAR 30A6
ENCODING 11046
SWIDTH 1200 0
DWIDTH 12 0
BBX 7 7 2 0
BITMAP
30
FE
C6
06
0C
1C
10
ENDCHAR
STARTCHAR 30A7
ENCODING 11047
SWIDTH 1200 0
DWIDTH 12 0
BBX 6 5 2 0
BITMAP
FC
30
30
30
FC
ENDCHAR
STARTCHAR 30A8
ENCODING 11048
SWIDTH 1200 0
DWIDTH 12 0
BBX 8 7 1 0
BITMAP
FF
18
18
18
18
18
FF
ENDCHAR
STARTCHAR 30A9
ENCODING 11049
SWIDTH 1200 0
DWIDTH 12 0
BBX 7 5 2 0
BITMAP
18
FE
58
D8
B8
ENDCHAR
STARTCHAR 30AA
ENCODING 11050
SWIDTH 1200 0
DWIDTH 12 0
BBX 8 7 1 0
BITMAP
0C
7F
0C
3C
2C
6C
D8
ENDCHAR
STARTCHAR 30AB
ENCODING 11051
SWIDTH 1200 0
DWIDTH 12 0
BBX 7 7 1 0
BITMAP
30
FE
36
36
66
EE
C8
ENDCHAR
STARTCHAR 30AC
ENCODING 11052
SWIDTH 1200 0
DWIDTH 12 0
BBX 10 7 0 0
BITMAP
3080
31C0
FE00
3600
3600
6600
CC00
ENDCHAR
STARTCHAR 30AD
ENCODING 11053
SWIDTH 1200 0
DWIDTH 12 0
BBX 8 7 1 0
BITMAP
30
3C
F0
1F
F8
48
0C
ENDCHAR
STARTCHAR 30AE
ENCODING 11054
SWIDTH 1200 0
DWIDTH 12 0
BBX 8 7 1 0
BITMAP
67
7F
E4
3C
F0
10
18
ENDCHAR
STARTCHAR 30AF
ENCODING 11055
SWIDTH 1200 0
DWIDTH 12 0
BBX 8 7 1 0
BITMAP
10
30
7F
E2
06
1C
30
ENDCHAR
STARTCHAR 30B0
ENCODING 11056
SWIDTH 1200 0
DWIDTH 12 0
BBX 9 8 0 0
BITMAP
0080
1380
3100
7E00
C600
0400
1C00
3000
ENDCHAR
STARTCHAR 30B1
ENCODING 11057
SWIDTH 1200 0
DWIDTH 12 0
BBX 8 7 1 0
BITMAP
30
30
7F
CC
0C
18
10
ENDCHAR
STARTCHAR 30B2
ENCODING 11058
SWIDTH 1200 0
DWIDTH 12 0
BBX 9 8 1 0
BITMAP
0100
2780
6200
7C00
D800
9800
1000
2000
ENDCHAR
STARTCHAR 30B3
ENCODING 11059
SWIDTH 1200 0
DWIDTH 12 0
BBX 7 6 2 0
BITMAP
FE
06
06
06
06
FE
ENDCHAR
STARTCHAR 30B4
ENCODING 11060
SWIDTH 1200 0
DWIDTH 12 0
BBX 10 8 0 0
BITMAP
0080
01C0
FF80
0600
0600
0600
0600
FE00
ENDCHAR
STARTCHAR 30B5
ENCODING 11061
SWIDTH 1200 0
DWIDTH 12 0
BBX 9 7 1 0
BITMAP
3600
3600
FF80
3600
3600
0C00
3800
ENDCHAR
STARTCHAR 30B6
ENCODING 11062
SWIDTH 1200 0
DWIDTH 12 0
BBX 10 8 0 0
BITMAP
0080
3FC0
3D80
FE00
3C00
3C00
1800
7000
ENDCHAR
STARTCHAR 30B7
ENCODING 11063
SWIDTH 1200 0
DWIDTH 12 0
BBX 7 7 2 0
BITMAP
C0
62
C6
CC
18
F0
C0
ENDCHAR
STARTCHAR 30B8
ENCODING 11064
SWIDTH 1200 0
DWIDTH 12 0
BBX 8 8 2 0
BITMAP
02
4F
64
86
CC
98
F0
C0
ENDCHAR
STARTCHAR 30B9
ENCODING 11065
SWIDTH 1200 0
DWIDTH 12 0
BBX 6 7 2 0
BITMAP
FC
0C
18
30
78
CC
84
ENDCHAR
STARTCHAR 30BA
ENCODING 11066
SWIDTH 1200 0
DWIDTH 12 0
BBX 10 8 0 0
BITMAP
0080
FF40
0D00
0800
1800
3C00
6600
4400
ENDCHAR
STARTCHAR 30BB
ENCODING 11067
SWIDTH 1200 0
DWIDTH 12 0
BBX 8 7 0 0
BITMAP
33
3F
FB
B6
30
30
3F
ENDCHAR
STARTCHAR 30BC
ENCODING 11068
SWIDTH 1200 0
DWIDTH 12 0
BBX 10 8 0 0
BITMAP
0080
33C0
3700
7E00
F600
3400
3000
3F00
ENDCHAR
STARTCHAR 30BD
ENCODING 11069
SWIDTH 1200 0
DWIDTH 12 0
BBX 7 7 2 0
BITMAP
06
C6
4C
08
38
60
C0
ENDCHAR
STARTCHAR 30BE
ENCODING 11070
SWIDTH 1200 0
DWIDTH 12 0
BBX 8 7 1 0
BITMAP
03
CE
48
18
30
E0
80
ENDCHAR
STARTCHAR 30BF
ENCODING 11071
SWIDTH 1200 0
DWIDTH 12 0
BBX 6 7 2 0
BITMAP
20
60
7C
E4
BC
1C
64
ENDCHAR
STARTCHAR 30C0
ENCODING 11072
SWIDTH 1200 0
DWIDTH 12 0
BBX 9 7 0 0
BITMAP
0080
3100
3E00
E600
5C00
1E00
3000
ENDCHAR
STARTCHAR 30C1
ENCODING 11073
SWIDTH 1200 0
DWIDTH 12 0
BBX 7 7 1 0
BITMAP
0C
7C
58
FE
18
38
20
ENDCHAR
STARTCHAR 30C2
ENCODING 11074
SWIDTH 1200 0
DWIDTH 12 0
BBX 10 7 0 0
BITMAP
0680
7D40
5800
FE00
1800
3800
2000
ENDCHAR
STARTCHAR 30C3
ENCODING 11075
SWIDTH 1200 0
DWIDTH 12 0
BBX 8 5 1 0
BITMAP
13
DA
56
3C
70
ENDCHAR
STARTCHAR 30C4
ENCODING 11076
SWIDTH 1200 0
DWIDTH 12 0
BBX 8 7 1 0
BITMAP
01
13
D3
56
0C
78
60
ENDCHAR
STARTCHAR 30C5
ENCODING 11077
SWIDTH 1200 0
DWIDTH 12 0
BBX 9 7 1 0
BITMAP
0100
0780
EC00
BC00
9800
F000
C000
ENDCHAR
STARTCHAR 30C6
ENCODING 11078
SWIDTH 1200 0
DWIDTH 12 0
BBX 8 7 1 0
BITMAP
3C
00
FF
18
18
30
20
ENDCHAR
STARTCHAR 30C7
ENCODING 11079
SWIDTH 1200 0
DWIDTH 12 0
BBX 9 8 1 0
BITMAP
0100
7980
0200
FE00
3000
3000
6000
4000
ENDCHAR
STARTCHAR 30C8
ENCODING 11080
SWIDTH 1200 0
DWIDTH 12 0
BBX 6 7 3 0
BITMAP
C0
C0
F0
CC
C4
C0
C0
ENDCHAR
STARTCHAR 30C9
ENCODING 11081
SWIDTH 1200 0
DWIDTH 12 0
BBX 7 8 2 0
BITMAP
04
DE
C8
C0
F8
CC
C8
C0
ENDCHAR
STARTCHAR 30CA
ENCODING 11082
SWIDTH 1200 0
DWIDTH 12 0
BBX 8 7 1 0
BITMAP
18
18
FF
18
18
30
20
ENDCHAR
STARTCHAR 30CB
ENCODING 11083
SWIDTH 1200 0
DWIDTH 12 0
BBX 8 5 1 1
BITMAP
7E
00
00
00
FF
ENDCHAR
STARTCHAR 30CC
ENCODING 11084
SWIDTH 1200 0
DWIDTH 12 0
BBX 7 7 2 0
BITMAP
FC
0C
2C
78
38
6E
C4
ENDCHAR
STARTCHAR 30CD
ENCODING 11085
SWIDTH 1200 0
DWIDTH 12 0
BBX 8 7 1 0
BITMAP
18
7E
0C
38
FE
1B
18
ENDCHAR
STARTCHAR 30CE
ENCODING 11086
SWIDTH 1200 0
DWIDTH 12 0
BBX 6 7 2 0
BITMAP
04
0C
08
18
30
E0
C0
ENDCHAR
STARTCHAR 30CF
ENCODING 11087
SWIDTH 1200 0
DWIDTH 12 0
BBX 8 5 1 1
BITMAP
0C
24
66
43
C1
ENDCHAR
STARTCHAR 30D0
ENCODING 11088
SWIDTH 1200 0
DWIDTH 12 0
BBX 8 7 1 1
BITMAP
01
05
0A
6C
66
C2
C2
ENDCHAR
STARTCHAR 30D1
ENCODING 11089
SWIDTH 1200 0
DWIDTH 12 0
BBX 8 6 1 1
BITMAP
03
0B
6C
66
C2
82
ENDCHAR
STARTCHAR 30D2
ENCODING 11090
SWIDTH 1200 0
DWIDTH 12 0
BBX 7 7 2 0
BITMAP
C0
C4
FC
E0
C0
C0
FE
ENDCHAR
STARTCHAR 30D3
ENCODING 11091
SWIDTH 1200 0
DWIDTH 12 0
BBX 9 8 1 0
BITMAP
0100
C780
C600
FC00
E000
C000
C000
FE00
ENDCHAR
STARTCHAR 30D4
ENCODING 11092
SWIDTH 1200 0
DWIDTH 12 0
BBX 8 7 1 0
BITMAP
C3
C7
FC
E0
C0
C0
FC
ENDCHAR
STARTCHAR 30D5
ENCODING 11093
SWIDTH 1200 0
DWIDTH 12 0
BBX 6 7 2 0
BITMAP
FC
0C
0C
18
30
60
40
ENDCHAR
STARTCHAR 30D6
ENCODING 11094
SWIDTH 1200 0
DWIDTH 12 0
BBX 10 8 0 0
BITMAP
0080
02C0
FD00
0C00
0C00
1800
3000
6000
ENDCHAR
STARTCHAR 30D7
ENCODING 11095
SWIDTH 1200 0
DWIDTH 12 0
BBX 8 7 1 0
BITMAP
03
FD
0C
18
30
60
40
ENDCHAR
STARTCHAR 30D8
ENCODING 11096
SWIDTH 1200 0
DWIDTH 12 0
BBX 6 4 2 0
BITMAP
30
78
CC
04
ENDCHAR
STARTCHAR 30D9
ENCODING 11097
SWIDTH 1200 0
DWIDTH 12 0
BBX 8 6 1 0
BITMAP
02
05
34
78
CC
06
ENDCHAR
STARTCHAR 30DA
ENCODING 11098
SWIDTH 1200 0
DWIDTH 12 0
BBX 8 5 1 0
BITMAP
03
33
6C
C6
02
ENDCHAR
STARTCHAR 30DB
ENCODING 11099
SWIDTH 1200 0
DWIDTH 12 0
BBX 8 7 1 0
BITMAP
18
7E
18
7E
5B
F9
30
ENDCHAR
STARTCHAR 30DC
ENCODING 11100
SWIDTH 1200 0
DWIDTH 12 0
BBX 8 8 1 0
BITMAP
01
1B
1A
FE
5C
DE
9A
38
ENDCHAR
STARTCHAR 30DD
ENCODING 11101
SWIDTH 1200 0
DWIDTH 12 0
BBX 9 8 1 0
BITMAP
0100
1A80
1900
FE00
5C00
DE00
9A00
3800
ENDCHAR
STARTCHAR 30DE
ENCODING 11102
SWIDTH 1200 0
DWIDTH 12 0
BBX 5 6 3 0
BITMAP
F8
18
B0
E0
60
30
ENDCHAR
STARTCHAR 30DF
ENCODING 11103
SWIDTH 1200 0
DWIDTH 12 0
BBX 6 7 2 0
BITMAP
60
38
60
B8
F8
1C
04
ENDCHAR
STARTCHAR 30E0
ENCODING 11104
SWIDTH 1200 0
DWIDTH 12 0
BBX 8 7 1 0
BITMAP
30
30
20
20
66
7F
F1
ENDCHAR
STARTCHAR 30E1
ENCODING 11105
SWIDTH 1200 0
DWIDTH 12 0
BBX 6 7 2 0
BITMAP
04
0C
48
78
3C
E4
80
ENDCHAR
STARTCHAR 30E2
ENCODING 11106
SWIDTH 1200 0
DWIDTH 12 0
BBX 8 7 1 0
BITMAP
7E
18
18
FF
18
18
1F
ENDCHAR
STARTCHAR 30E3
ENCODING 11107
SWIDTH 1200 0
DWIDTH 12 0
BBX 6 5 2 0
BITMAP
6C
7C
FC
B0
10
ENDCHAR
STARTCHAR 30E4
ENCODING 11108
SWIDTH 1200 0
DWIDTH 12 0
BBX 8 7 1 0
BITMAP
60
2F
3A
F2
18
18
08
ENDCHAR
STARTCHAR 30E5
ENCODING 11109
SWIDTH 1200 0
DWIDTH 12 0
BBX 7 4 1 0
BITMAP
7C
0C
0C
FE
ENDCHAR
STARTCHAR 30E6
ENCODING 11110
SWIDTH 1200 0
DWIDTH 12 0
BBX 10 6 0 0
BITMAP
3F00
0300
0300
0300
0300
FFC0
ENDCHAR
STARTCHAR 30E7
ENCODING 11111
SWIDTH 1200 0
DWIDTH 12 0
BBX 8 5 2 0
BITMAP
FE
06
FE
06
FF
ENDCHAR
STARTCHAR 30E8
ENCODING 11112
SWIDTH 1200 0
DWIDTH 12 0
BBX 9 6 1 0
BITMAP
FF00
0300
0300
FF00
0300
FF80
ENDCHAR
STARTCHAR 30E9
ENCODING 11113
SWIDTH 1200 0
DWIDTH 12 0
BBX 7 7 2 0
BITMAP
7C
00
FE
0C
18
30
40
ENDCHAR
STARTCHAR 30EA
ENCODING 11114
SWIDTH 1200 0
DWIDTH 12 0
BBX 5 8 3 -1
BITMAP
D8
D8
D8
D8
D8
30
30
60
ENDCHAR
STARTCHAR 30EB
ENCODING 11115
SWIDTH 1200 0
DWIDTH 12 0
BBX 8 7 1 0
BITMAP
3C
3C
3C
3C
3D
6F
CE
ENDCHAR
STARTCHAR 30EC
ENCODING 11116
SWIDTH 1200 0
DWIDTH 12 0
BBX 6 7 3 0
BITMAP
C0
C0
C0
C0
CC
F8
C0
ENDCHAR
STARTCHAR 30ED
ENCODING 11117
SWIDTH 1200 0
DWIDTH 12 0
BBX 8 6 1 0
BITMAP
FF
C3
C3
C3
C3
FF
ENDCHAR
STARTCHAR 30EE
ENCODING 11118
SWIDTH 1200 0
DWIDTH 12 0
BBX 6 5 3 0
BITMAP
1C
FC
CC
0C
10
ENDCHAR
STARTCHAR 30EF
ENCODING 11119
SWIDTH 1200 0
DWIDTH 12 0
BBX 8 7 1 0
BITMAP
FF
C3
C3
03
03
07
04
ENDCHAR
STARTCHAR 30F0
ENCODING 11120
SWIDTH 1200 0
DWIDTH 12 0
BBX 8 7 1 0
BITMAP
0C
7E
3C
3C
FF
0C
0C
ENDCHAR
STARTCHAR 30F1
ENCODING 11121
SWIDTH 1200 0
DWIDTH 12 0
BBX 8 6 1 0
BITMAP
7F
03
06
36
30
FF
ENDCHAR
STARTCHAR 30F2
ENCODING 11122
SWIDTH 1200 0
DWIDTH 12 0
BBX 6 6 2 0
BITMAP
FC
0C
F8
18
10
30
ENDCHAR
STARTCHAR 30F3
ENCODING 11123
SWIDTH 1200 0
DWIDTH 12 0
BBX 7 6 2 0
BITMAP
40
62
46
0C
F8
C0
ENDCHAR
STARTCHAR 30F4
ENCODING 11124
SWIDTH 1200 0
DWIDTH 12 0
BBX 9 7 1 0
BITMAP
3780
FF00
CC00
0C00
0C00
0C00
0800
ENDCHAR
STARTCHAR 30F5
ENCODING 11125
SWIDTH 1200 0
DWIDTH 12 0
BBX 6 5 2 0
BITMAP
30
FC
2C
6C
D8
ENDCHAR
STARTCHAR 30F6
ENCODING 11126
SWIDTH 1200 0
DWIDTH 12 0
BBX 6 6 2 0
BITMAP
20
60
FC
88
18
30
ENDCHAR
STARTCHAR 0410
ENCODING 11297
SWIDTH 1200 0
DWIDTH 12 0
BBX 8 7 1 0
BITMAP
08
18
1C
34
7E
63
C3
ENDCHAR
STARTCHAR 0411
ENCODING 11298
SWIDTH 1200 0
DWIDTH 12 0
BBX 5 7 3 0
BITMAP
F8
C0
C0
F8
D8
D8
F0
ENDCHAR
STARTCHAR 0412
ENCODING 11299
SWIDTH 1200 0
DWIDTH 12 0
BBX 6 7 2 0
BITMAP
F8
C4
C4
FC
C4
C4
F8
ENDCHAR
STARTCHAR 0413
ENCODING 11300
SWIDTH 1200 0
DWIDTH 12 0
BBX 7 7 2 0
BITMAP
FE
C0
C0
C0
C0
C0
C0
ENDCHAR
STARTCHAR 0414
ENCODING 11301
SWIDTH 1200 0
DWIDTH 12 0
BBX 8 8 1 -1
BITMAP
7E
66
66
66
E6
FF
C3
C3
ENDCHAR
STARTCHAR 0415
ENCODING 11302
SWIDTH 1200 0
DWIDTH 12 0
BBX 7 7 2 0
BITMAP
FE
FE
C0
FC
C0
C0
FE
ENDCHAR
STARTCHAR 0401
ENCODING 11303
SWIDTH 1200 0
DWIDTH 12 0
BBX 6 7 2 0
BITMAP
CC
00
FC
C0
F8
C0
FC
ENDCHAR
STARTCHAR 0416
ENCODING 11304
SWIDTH 1200 0
DWIDTH 12 0
BBX 8 7 1 0
BITMAP
99
DB
7E
7E
7E
FF
DB
ENDCHAR
STARTCHAR 0417
ENCODING 11305
SWIDTH 1200 0
DWIDTH 12 0
BBX 6 7 2 0
BITMAP
38
EC
0C
3C
0C
CC
78
ENDCHAR
STARTCHAR 0418
ENCODING 11306
SWIDTH 1200 0
DWIDTH 12 0
BBX 7 7 2 0
BITMAP
C6
CE
DE
D6
F6
E6
C6
ENDCHAR
STARTCHAR 0419
ENCODING 11307
SWIDTH 1200 0
DWIDTH 12 0
BBX 7 7 2 0
BITMAP
68
D6
CE
DE
F6
E6
C6
ENDCHAR
STARTCHAR 041A
ENCODING 11308
SWIDTH 1200 0
DWIDTH 12 0
BBX 7 7 2 0
BITMAP
CE
D8
F0
F8
D8
CC
C6
ENDCHAR
STARTCHAR 041B
ENCODING 11309
SWIDTH 1200 0
DWIDTH 12 0
BBX 7 7 2 0
BITMAP
7E
66
66
66
66
E6
C6
ENDCHAR
STARTCHAR 041C
ENCODING 11310
SWIDTH 1200 0
DWIDTH 12 0
BBX 8 7 1 0
BITMAP
C3
E3
E7
FF
DB
DB
C3
ENDCHAR
STARTCHAR 041D
ENCODING 11311
SWIDTH 1200 0
DWIDTH 12 0
BBX 7 7 2 0
BITMAP
C6
C6
C6
FE
C6
C6
C6
ENDCHAR
STARTCHAR 041E
ENCODING 11312
SWIDTH 1200 0
DWIDTH 12 0
BBX 8 7 1 0
BITMAP
3C
66
C3
C3
C3
66
3C
ENDCHAR
STARTCHAR 041F
ENCODING 11313
SWIDTH 1200 0
DWIDTH 12 0
BBX 7 7 2 0
BITMAP
FE
C6
C6
C6
C6
C6
C6
ENDCHAR
STARTCHAR 0420
ENCODING 11314
SWIDTH 1200 0
DWIDTH 12 0
BBX 6 7 2 0
BITMAP
FC
CC
CC
F8
C0
C0
C0
ENDCHAR
STARTCHAR 0421
ENCODING 11315
SWIDTH 1200 0
DWIDTH 12 0
BBX 7 7 2 0
BITMAP
7C
CC
80
80
84
CE
7C
ENDCHAR
STARTCHAR 0422
ENCODING 11316
SWIDTH 1200 0
DWIDTH 12 0
BBX 7 7 2 0
BITMAP
FE
30
30
30
30
30
30
ENDCHAR
STARTCHAR 0423
ENCODING 11317
SWIDTH 1200 0
DWIDTH 12 0
BBX 6 7 2 0
BITMAP
C4
6C
38
38
10
30
60
ENDCHAR
STARTCHAR 0424
ENCODING 11318
SWIDTH 1200 0
DWIDTH 12 0
BBX 8 7 1 0
BITMAP
18
7E
DB
DB
DB
7E
18
ENDCHAR
STARTCHAR 0425
ENCODING 11319
SWIDTH 1200 0
DWIDTH 12 0
BBX 8 7 1 0
BITMAP
63
66
3C
18
3C
66
E3
ENDCHAR
STARTCHAR 0426
ENCODING 11320
SWIDTH 1200 0
DWIDTH 12 0
BBX 8 7 1 0
BITMAP
C6
C6
C6
C6
C6
FF
03
ENDCHAR
STARTCHAR 0427
ENCODING 11321
SWIDTH 1200 0
DWIDTH 12 0
BBX 7 7 2 0
BITMAP
C6
C6
C6
C6
7E
06
06
ENDCHAR
STARTCHAR 0428
ENCODING 11322
SWIDTH 1200 0
DWIDTH 12 0
BBX 8 7 1 0
BITMAP
DB
DB
DB
DB
DB
DB
FF
ENDCHAR
STARTCHAR 0429
ENCODING 11323
SWIDTH 1200 0
DWIDTH 12 0
BBX 8 7 1 0
BITMAP
DB
DB
DB
DB
DB
FF
03
ENDCHAR
STARTCHAR 042A
ENCODING 11324
SWIDTH 1200 0
DWIDTH 12 0
BBX 7 7 2 0
BITMAP
E0
60
60
7E
46
46
7C
ENDCHAR
STARTCHAR 042B
ENCODING 11325
SWIDTH 1200 0
DWIDTH 12 0
BBX 8 7 1 0
BITMAP
C3
C3
C3
FF
C7
CF
FB
ENDCHAR
STARTCHAR 042C
ENCODING 11326
SWIDTH 1200 0
DWIDTH 12 0
BBX 6 7 2 0
BITMAP
C0
C0
C0
FC
C4
CC
F8
ENDCHAR
STARTCHAR 042D
ENCODING 11327
SWIDTH 1200 0
DWIDTH 12 0
BBX 6 7 2 0
BITMAP
78
FC
04
3C
04
CC
78
ENDCHAR
STARTCHAR 042E
ENCODING 11328
SWIDTH 1200 0
DWIDTH 12 0
BBX 8 7 1 0
BITMAP
CE
D7
D3
F3
F3
FE
DC
ENDCHAR
STARTCHAR 042F
ENCODING 11329
SWIDTH 1200 0
DWIDTH 12 0
BBX 6 7 2 0
BITMAP
7C
CC
CC
7C
6C
6C
CC
ENDCHAR
STARTCHAR 0430
ENCODING 11345
SWIDTH 1200 0
DWIDTH 12 0
BBX 5 5 2 0
BITMAP
70
58
78
D8
78
ENDCHAR
STARTCHAR 0431
ENCODING 11346
SWIDTH 1200 0
DWIDTH 12 0
BBX 4 6 3 0
BITMAP
10
E0
F0
90
90
F0
ENDCHAR
STARTCHAR 0432
ENCODING 11347
SWIDTH 1200 0
DWIDTH 12 0
BBX 5 5 3 0
BITMAP
F8
C8
F8
C8
F8
ENDCHAR
STARTCHAR 0433
ENCODING 11348
SWIDTH 1200 0
DWIDTH 12 0
BBX 5 5 3 0
BITMAP
F8
C0
C0
C0
C0
ENDCHAR
STARTCHAR 0434
ENCODING 11349
SWIDTH 1200 0
DWIDTH 12 0
BBX 5 5 3 0
BITMAP
78
58
58
F8
88
ENDCHAR
STARTCHAR 0435
ENCODING 11350
SWIDTH 1200 0
DWIDTH 12 0
BBX 6 5 2 0
BITMAP
78
4C
FC
4C
78
ENDCHAR
STARTCHAR 0451
ENCODING 11351
SWIDTH 1200 0
DWIDTH 12 0
BBX 6 7 2 0
BITMAP
40
4C
78
48
FC
4C
78
ENDCHAR
STARTCHAR 0436
ENCODING 11352
SWIDTH 1200 0
DWIDTH 12 0
BBX 8 5 1 0
BITMAP
7B
7E
7E
7E
DB
ENDCHAR
STARTCHAR 0437
ENCODING 11353
SWIDTH 1200 0
DWIDTH 12 0
BBX 4 5 3 0
BITMAP
70
10
70
90
F0
ENDCHAR
STARTCHAR 0438
ENCODING 11354
SWIDTH 1200 0
DWIDTH 12 0
BBX 6 5 2 0
BITMAP
CC
DC
FC
EC
CC
ENDCHAR
STARTCHAR 0439
ENCODING 11355
SWIDTH 1200 0
DWIDTH 12 0
BBX 6 6 2 0
BITMAP
30
CC
DC
FC
EC
CC
ENDCHAR
STARTCHAR 043A
ENCODING 11356
SWIDTH 1200 0
DWIDTH 12 0
BBX 5 5 2 0
BITMAP
D8
F0
F0
D0
D8
ENDCHAR
STARTCHAR 043B
ENCODING 11357
SWIDTH 1200 0
DWIDTH 12 0
BBX 6 5 2 0
BITMAP
7C
6C
6C
6C
CC
ENDCHAR
STARTCHAR 043C
ENCODING 11358
SWIDTH 1200 0
DWIDTH 12 0
BBX 6 5 2 0
BITMAP
CC
CC
FC
EC
CC
ENDCHAR
STARTCHAR 043D
ENCODING 11359
SWIDTH 1200 0
DWIDTH 12 0
BBX 6 5 2 0
BITMAP
CC
CC
FC
CC
CC
ENDCHAR
STARTCHAR 043E
ENCODING 11360
SWIDTH 1200 0
DWIDTH 12 0
BBX 6 5 2 0
BITMAP
78
CC
CC
CC
78
ENDCHAR
STARTCHAR 043F
ENCODING 11361
SWIDTH 1200 0
DWIDTH 12 0
BBX 6 5 2 0
BITMAP
FC
CC
CC
CC
CC
ENDCHAR
STARTCHAR 0440
ENCODING 11362
SWIDTH 1200 0
DWIDTH 12 0
BBX 5 6 3 -1
BITMAP
F0
C8
D8
F8
C0
C0
ENDCHAR
STARTCHAR 0441
ENCODING 11363
SWIDTH 1200 0
DWIDTH 12 0
BBX 5 5 2 0
BITMAP
78
C8
C0
C8
78
ENDCHAR
STARTCHAR 0442
ENCODING 11364
SWIDTH 1200 0
DWIDTH 12 0
BBX 6 5 2 0
BITMAP
FC
30
30
30
30
ENDCHAR
STARTCHAR 0443
ENCODING 11365
SWIDTH 1200 0
DWIDTH 12 0
BBX 4 6 3 -1
BITMAP
90
F0
60
60
C0
80
ENDCHAR
STARTCHAR 0444
ENCODING 11366
SWIDTH 1200 0
DWIDTH 12 0
BBX 6 5 2 0
BITMAP
30
FC
B4
FC
30
ENDCHAR
STARTCHAR 0445
ENCODING 11367
SWIDTH 1200 0
DWIDTH 12 0
BBX 5 5 3 0
BITMAP
98
F0
60
F0
98
ENDCHAR
STARTCHAR 0446
ENCODING 11368
SWIDTH 1200 0
DWIDTH 12 0
BBX 6 5 2 0
BITMAP
CC
CC
CC
FC
04
ENDCHAR
STARTCHAR 0447
ENCODING 11369
SWIDTH 1200 0
DWIDTH 12 0
BBX 6 5 2 0
BITMAP
CC
CC
DC
7C
0C
ENDCHAR
STARTCHAR 0448
ENCODING 11370
SWIDTH 1200 0
DWIDTH 12 0
BBX 6 5 2 0
BITMAP
FC
FC
FC
FC
FC
ENDCHAR
STARTCHAR 0449
ENCODING 11371
SWIDTH 1200 0
DWIDTH 12 0
BBX 6 5 2 0
BITMAP
FC
FC
FC
FC
0C
ENDCHAR
STARTCHAR 044A
ENCODING 11372
SWIDTH 1200 0
DWIDTH 12 0
BBX 6 5 2 0
BITMAP
E0
60
7C
6C
7C
ENDCHAR
STARTCHAR 044B
ENCODING 11373
SWIDTH 1200 0
DWIDTH 12 0
BBX 6 5 2 0
BITMAP
CC
8C
FC
DC
FC
ENDCHAR
STARTCHAR 044C
ENCODING 11374
SWIDTH 1200 0
DWIDTH 12 0
BBX 5 5 3 0
BITMAP
C0
C0
F8
C8
F0
ENDCHAR
STARTCHAR 044D
ENCODING 11375
SWIDTH 1200 0
DWIDTH 12 0
BBX 5 5 3 0
BITMAP
F0
90
78
90
F0
ENDCHAR
STARTCHAR 044E
ENCODING 11376
SWIDTH 1200 0
DWIDTH 12 0
BBX 6 5 2 0
BITMAP
D8
EC
EC
EC
D8
ENDCHAR
STARTCHAR 044F
ENCODING 11377
SWIDTH 1200 0
DWIDTH 12 0
BBX 5 5 2 0
BITMAP
78
D8
78
58
D8
ENDCHAR
STARTCHAR AC00
ENCODING 12321
SWIDTH 1200 0
DWIDTH 12 0
BBX 9 8 1 -1
BITMAP
FB00
1B00
1B00
1B80
3300
E300
0300
0300
ENDCHAR
STARTCHAR AC01
ENCODING 12322
SWIDTH 1200 0
DWIDTH 12 0
BBX 9 8 1 -1
BITMAP
FB00
1B80
3300
E300
0000
7F00
0300
0300
ENDCHAR
STARTCHAR AC04
ENCODING 12323
SWIDTH 1200 0
DWIDTH 12 0
BBX 9 8 1 -1
BITMAP
FB00
1B80
3B00
F300
4300
6000
6000
7F80
ENDCHAR
STARTCHAR AC07
ENCODING 12324
SWIDTH 1200 0
DWIDTH 12 0
BBX 9 8 1 -1
BITMAP
FB00
1B80
3300
E300
0000
FE00
C000
FE00
ENDCHAR
STARTCHAR AC08
ENCODING 12325
SWIDTH 1200 0
DWIDTH 12 0
BBX 9 8 1 -1
BITMAP
FB00
1B80
F300
6300
FF00
0300
FF00
FF00
ENDCHAR
STARTCHAR AC09
ENCODING 12326
SWIDTH 1200 0
DWIDTH 12 0
BBX 9 8 1 -1
BITMAP
FB00
1B80
F300
6300
FF00
3300
F300
F300
ENDCHAR
STARTCHAR AC0A
ENCODING 12327
SWIDTH 1200 0
DWIDTH 12 0
BBX 9 8 1 -1
BITMAP
FB00
1B80
F300
C300
FF00
3F00
FF00
FF00
ENDCHAR
STARTCHAR AC10
ENCODING 12328
SWIDTH 1200 0
DWIDTH 12 0
BBX 9 8 1 -1
BITMAP
FB00
1B80
3300
E300
0000
FF00
C300
FF00
ENDCHAR
STARTCHAR AC11
ENCODING 12329
SWIDTH 1200 0
DWIDTH 12 0
BBX 9 8 1 -1
BITMAP
FB00
1B80
7300
E300
C300
FF00
C300
FF00
ENDCHAR
STARTCHAR AC12
ENCODING 12330
SWIDTH 1200 0
DWIDTH 12 0
BBX 9 8 1 -1
BITMAP
FB00
1B80
7300
E300
F000
F300
F780
F480
ENDCHAR
STARTCHAR AC13
ENCODING 12331
SWIDTH 1200 0
DWIDTH 12 0
BBX 9 8 1 -1
BITMAP
FB00
1B80
3300
F300
5800
3C00
FF00
C200
ENDCHAR
STARTCHAR AC14
ENCODING 12332
SWIDTH 1200 0
DWIDTH 12 0
BBX 9 8 1 -1
BITMAP
FB00
1B80
3300
E300
0000
3600
7700
D900
ENDCHAR
STARTCHAR AC15
ENCODING 12333
SWIDTH 1200 0
DWIDTH 12 0
BBX 9 8 1 -1
BITMAP
FB00
1B80
3300
E300
1F00
3300
3300
1E00
ENDCHAR
STARTCHAR AC16
ENCODING 12334
SWIDTH 1200 0
DWIDTH 12 0
BBX 9 8 1 -1
BITMAP
FB00
1B80
7300
E300
0000
FF00
1800
F700
ENDCHAR
STARTCHAR AC17
ENCODING 12335
SWIDTH 1200 0
DWIDTH 12 0
BBX 9 8 1 -1
BITMAP
FB00
1B80
7300
E300
1800
FF00
1800
E700
ENDCHAR
STARTCHAR AC19
ENCODING 12336
SWIDTH 1200 0
DWIDTH 12 0
BBX 9 8 1 -1
BITMAP
FB00
1B80
7300
E300
FF00
C000
FF00
7F00
ENDCHAR
STARTCHAR AC1A
ENCODING 12337
SWIDTH 1200 0
DWIDTH 12 0
BBX 9 8 1 -1
BITMAP
FB00
1B80
7300
E300
0000
FF00
6600
FF00
ENDCHAR
STARTCHAR AC1B
ENCODING 12338
SWIDTH 1200 0
DWIDTH 12 0
BBX 9 8 1 -1
BITMAP
FB00
1B80
3300
E300
1800
E700
6600
3C00
ENDCHAR
STARTCHAR AC1C
ENCODING 12339
SWIDTH 1200 0
DWIDTH 12 0
BBX 8 8 1 -1
BITMAP
FF
3F
3F
3F
7F
EF
8F
0F
ENDCHAR
STARTCHAR AC1D
ENCODING 12340
SWIDTH 1200 0
DWIDTH 12 0
BBX 9 8 0 -1
BITMAP
F780
3780
7780
E780
0780
7F80
0180
0180
ENDCHAR
STARTCHAR AC20
ENCODING 12341
SWIDTH 1200 0
DWIDTH 12 0
BBX 9 8 0 -1
BITMAP
F780
3780
7780
E780
C780
6780
6000
7F80
ENDCHAR
STARTCHAR AC24
ENCODING 12342
SWIDTH 1200 0
DWIDTH 12 0
BBX 9 8 0 -1
BITMAP
F780
3780
7780
C780
7F80
0180
7F80
7F80
ENDCHAR
STARTCHAR AC2C
ENCODING 12343
SWIDTH 1200 0
DWIDTH 12 0
BBX 9 8 0 -1
BITMAP
F780
3780
7780
E780
0780
7F80
6180
7F80
ENDCHAR
STARTCHAR AC2D
ENCODING 12344
SWIDTH 1200 0
DWIDTH 12 0
BBX 9 8 0 -1
BITMAP
F780
3780
7780
C780
6780
7F80
6180
7F80
ENDCHAR
STARTCHAR AC2F
ENCODING 12345
SWIDTH 1200 0
DWIDTH 12 0
BBX 8 8 1 -1
BITMAP
FF
3F
7F
EF
80
18
7E
C2
ENDCHAR
STARTCHAR AC30
ENCODING 12346
SWIDTH 1200 0
DWIDTH 12 0
BBX 8 8 1 -1
BITMAP
FF
3F
7F
EF
80
66
FE
9B
ENDCHAR
STARTCHAR AC31
ENCODING 12347
SWIDTH 1200 0
DWIDTH 12 0
BBX 8 8 1 -1
BITMAP
FF
3F
7F
EF
9E
33
33
1E
ENDCHAR
STARTCHAR AC38
ENCODING 12348
SWIDTH 1200 0
DWIDTH 12 0
BBX 9 8 1 -1
BITMAP
FB00
1B80
1B00
1B80
3300
E300
0300
0300
ENDCHAR
STARTCHAR AC39
ENCODING 12349
SWIDTH 1200 0
DWIDTH 12 0
BBX 9 8 1 -1
BITMAP
FB00
1B80
3380
E300
0000
7F00
0300
0300
ENDCHAR
STARTCHAR AC3C
ENCODING 12350
SWIDTH 1200 0
DWIDTH 12 0
BBX 9 8 1 -1
BITMAP
FB00
1B80
3B80
F300
C300
C000
C000
FF00
ENDCHAR
STARTCHAR AC40
ENCODING 12351
SWIDTH 1200 0
DWIDTH 12 0
BBX 9 8 1 -1
BITMAP
FB00
1B80
3380
E300
7F00
0300
7F00
7F00
ENDCHAR
STARTCHAR AC4B
ENCODING 12352
SWIDTH 1200 0
DWIDTH 12 0
BBX 9 8 1 -1
BITMAP
FB00
1B80
3380
E300
8C00
1E00
7F80
6100
ENDCHAR
STARTCHAR AC4D
ENCODING 12353
SWIDTH 1200 0
DWIDTH 12 0
BBX 9 8 1 -1
BITMAP
FB00
1B80
3380
E300
1F00
3300
3300
1E00
ENDCHAR
STARTCHAR AC54
ENCODING 12354
SWIDTH 1200 0
DWIDTH 12 0
BBX 9 8 0 -1
BITMAP
F780
3780
3780
3780
6780
E780
8780
0780
ENDCHAR
STARTCHAR AC58
ENCODING 12355
SWIDTH 1200 0
DWIDTH 12 0
BBX 9 8 0 -1
BITMAP
F780
3780
7780
E780
8780
6780
6000
7F80
ENDCHAR
STARTCHAR AC5C
ENCODING 12356
SWIDTH 1200 0
DWIDTH 12 0
BBX 9 8 0 -1
BITMAP
F780
3780
7780
4780
7F80
0180
7F80
7F80
ENDCHAR
STARTCHAR AC70
ENCODING 12357
SWIDTH 1200 0
DWIDTH 12 0
BBX 9 8 0 -1
BITMAP
F980
1980
1F80
1980
3180
E180
C180
0180
ENDCHAR
STARTCHAR AC71
ENCODING 12358
SWIDTH 1200 0
DWIDTH 12 0
BBX 9 8 0 -1
BITMAP
F980
1980
3F80
F180
8180
7F80
0180
0180
ENDCHAR
STARTCHAR AC74
ENCODING 12359
SWIDTH 1200 0
DWIDTH 12 0
BBX 9 8 0 -1
BITMAP
F980
1980
3B80
F180
C180
6000
6000
7F80
ENDCHAR
STARTCHAR AC77
ENCODING 12360
SWIDTH 1200 0
DWIDTH 12 0
BBX 8 8 1 -1
BITMAP
F3
33
77
C3
00
FF
C0
FF
ENDCHAR
STARTCHAR AC78
ENCODING 12361
SWIDTH 1200 0
DWIDTH 12 0
BBX 8 8 1 -1
BITMAP
F3
33
77
C3
FF
03
FF
FF
ENDCHAR
STARTCHAR AC7A
ENCODING 12362
SWIDTH 1200 0
DWIDTH 12 0
BBX 8 8 1 -1
BITMAP
F3
33
77
C3
FF
3F
FF
FF
ENDCHAR
STARTCHAR AC80
ENCODING 12363
SWIDTH 1200 0
DWIDTH 12 0
BBX 8 8 1 -1
BITMAP
F3
33
77
C3
03
FF
C3
FF
ENDCHAR
STARTCHAR AC81
ENCODING 12364
SWIDTH 1200 0
DWIDTH 12 0
BBX 8 8 1 -1
BITMAP
F3
33
77
C3
C3
FF
C3
FF
ENDCHAR
STARTCHAR AC83
ENCODING 12365
SWIDTH 1200 0
DWIDTH 12 0
BBX 9 8 0 -1
BITMAP
F980
1980
1B80
3180
CD80
1E00
7F80
6100
ENDCHAR
STARTCHAR AC84
ENCODING 12366
SWIDTH 1200 0
DWIDTH 12 0
BBX 9 8 0 -1
BITMAP
7980
1980
1B80
F180
6000
3300
7F00
4D80
ENDCHAR
STARTCHAR AC85
ENCODING 12367
SWIDTH 1200 0
DWIDTH 12 0
BBX 9 8 0 -1
BITMAP
F980
1980
1B80
3180
CF80
1980
1980
0F00
ENDCHAR
STARTCHAR AC86
ENCODING 12368
SWIDTH 1200 0
DWIDTH 12 0
BBX 8 8 1 -1
BITMAP
F3
33
77
C3
00
FF
18
E7
ENDCHAR
STARTCHAR AC89
ENCODING 12369
SWIDTH 1200 0
DWIDTH 12 0
BBX 9 8 0 -1
BITMAP
7980
1980
1B80
E180
7F80
6000
7F80
7F80
ENDCHAR
STARTCHAR AC8A
ENCODING 12370
SWIDTH 1200 0
DWIDTH 12 0
BBX 9 8 0 -1
BITMAP
F980
1980
3780
E180
0000
7F80
3300
7F80
ENDCHAR
STARTCHAR AC8B
ENCODING 12371
SWIDTH 1200 0
DWIDTH 12 0
BBX 9 8 0 -1
BITMAP
F980
1980
3780
E180
0C00
7380
3300
1E00
ENDCHAR
STARTCHAR AC8C
ENCODING 12372
SWIDTH 1200 0
DWIDTH 12 0
BBX 9 8 0 -1
BITMAP
F780
3780
3F80
3780
6780
C780
8780
0780
ENDCHAR
STARTCHAR AC90
ENCODING 12373
SWIDTH 1200 0
DWIDTH 12 0
BBX 9 8 0 -1
BITMAP
7780
3F80
3780
E780
4780
6180
6000
7F80
ENDCHAR
STARTCHAR AC94
ENCODING 12374
SWIDTH 1200 0
DWIDTH 12 0
BBX 8 8 1 -1
BITMAP
EF
7F
EF
CF
FF
03
FF
FF
ENDCHAR
STARTCHAR AC9C
ENCODING 12375
SWIDTH 1200 0
DWIDTH 12 0
BBX 9 8 0 -1
BITMAP
7780
3F80
3780
E780
0180
7F80
6180
7F80
ENDCHAR
STARTCHAR AC9D
ENCODING 12376
SWIDTH 1200 0
DWIDTH 12 0
BBX 8 8 1 -1
BITMAP
EF
7F
6F
CF
C3
FF
C3
FF
ENDCHAR
STARTCHAR AC9F
ENCODING 12377
SWIDTH 1200 0
DWIDTH 12 0
BBX 9 8 0 -1
BITMAP
7780
3F80
3F80
F780
4D80
1E00
7780
6100
ENDCHAR
STARTCHAR ACA0
ENCODING 12378
SWIDTH 1200 0
DWIDTH 12 0
BBX 8 8 1 -1
BITMAP
EF
7F
6F
CF
00
66
FE
9B
ENDCHAR
STARTCHAR ACA1
ENCODING 12379
SWIDTH 1200 0
DWIDTH 12 0
BBX 9 8 0 -1
BITMAP
7780
3F80
3780
E780
5F80
1980
1980
0F00
ENDCHAR
STARTCHAR ACA8
ENCODING 12380
SWIDTH 1200 0
DWIDTH 12 0
BBX 9 8 0 -1
BITMAP
F980
1F80
1980
3980
3780
E180
4180
0180
ENDCHAR
STARTCHAR ACA9
ENCODING 12381
SWIDTH 1200 0
DWIDTH 12 0
BBX 9 8 0 -1
BITMAP
F980
1F80
3980
E780
0000
7F80
0180
0180
ENDCHAR
STARTCHAR ACAA
ENCODING 12382
SWIDTH 1200 0
DWIDTH 12 0
BBX 9 8 0 -1
BITMAP
F980
1F80
3980
E780
0000
7F80
1980
1980
ENDCHAR
STARTCHAR ACAC
ENCODING 12383
SWIDTH 1200 0
DWIDTH 12 0
BBX 9 8 0 -1
BITMAP
F980
1F80
1980
3780
E180
6000
6000
7F80
ENDCHAR
STARTCHAR ACAF
ENCODING 12384
SWIDTH 1200 0
DWIDTH 12 0
BBX 9 8 0 -1
BITMAP
F980
1F80
3980
E780
0000
7F80
6000
7F80
ENDCHAR
STARTCHAR ACB0
ENCODING 12385
SWIDTH 1200 0
DWIDTH 12 0
BBX 9 8 0 -1
BITMAP
F980
1F80
3780
E180
7F80
0180
7F80
7F80
ENDCHAR
STARTCHAR ACB8
ENCODING 12386
SWIDTH 1200 0
DWIDTH 12 0
BBX 9 8 0 -1
BITMAP
F980
1F80
3980
E780
0000
7F80
6180
7F80
ENDCHAR
STARTCHAR ACB9
ENCODING 12387
SWIDTH 1200 0
DWIDTH 12 0
BBX 9 8 0 -1
BITMAP
F980
1F80
3980
E780
0180
6180
7F80
7F80
ENDCHAR
STARTCHAR ACBB
ENCODING 12388
SWIDTH 1200 0
DWIDTH 12 0
BBX 9 8 0 -1
BITMAP
F980
1F80
1980
3780
E180
0C00
7F00
6380
ENDCHAR
STARTCHAR ACBC
ENCODING 12389
SWIDTH 1200 0
DWIDTH 12 0
BBX 9 8 0 -1
BITMAP
F980
1B80
1980
3380
E000
3300
7F00
4D80
ENDCHAR
STARTCHAR ACBD
ENCODING 12390
SWIDTH 1200 0
DWIDTH 12 0
BBX 9 8 0 -1
BITMAP
F980
1F80
1980
3780
EF80
1980
1980
0F00
ENDCHAR
STARTCHAR ACC1
ENCODING 12391
SWIDTH 1200 0
DWIDTH 12 0
BBX 9 8 0 -1
BITMAP
FF80
1980
3F80
6180
7F80
6000
7F80
7F80
ENDCHAR
STARTCHAR ACC4
ENCODING 12392
SWIDTH 1200 0
DWIDTH 12 0
BBX 9 10 0 -2
BITMAP
0600
F780
3F80
3780
6780
6F80
C780
0780
0780
0600
ENDCHAR
STARTCHAR ACC8
ENCODING 12393
SWIDTH 1200 0
DWIDTH 12 0
BBX 9 8 0 -1
BITMAP
F780
3F80
7780
EF80
8780
6780
6000
7F80
ENDCHAR
STARTCHAR ACCC
ENCODING 12394
SWIDTH 1200 0
DWIDTH 12 0
BBX 9 8 0 -1
BITMAP
F780
3F80
6F80
4780
7F80
0180
7F80
7F80
ENDCHAR
STARTCHAR ACD5
ENCODING 12395
SWIDTH 1200 0
DWIDTH 12 0
BBX 9 8 0 -1
BITMAP
F780
3F80
7F80
6780
6180
7F80
6180
7F80
ENDCHAR
STARTCHAR ACD7
ENCODING 12396
SWIDTH 1200 0
DWIDTH 12 0
BBX 9 9 0 -1
BITMAP
0600
FF80
3780
7F80
E780
0000
0C00
3F00
6380
ENDCHAR
STARTCHAR ACE0
ENCODING 12397
SWIDTH 1200 0
DWIDTH 12 0
BBX 9 8 1 -1
BITMAP
7F00
0300
0300
0300
3300
3300
3300
FF80
ENDCHAR
STARTCHAR ACE1
ENCODING 12398
SWIDTH 1200 0
DWIDTH 12 0
BBX 10 8 0 -1
BITMAP
7F80
0180
1980
FFC0
0000
7F80
0180
0180
ENDCHAR
STARTCHAR ACE4
ENCODING 12399
SWIDTH 1200 0
DWIDTH 12 0
BBX 10 8 0 -1
BITMAP
3F80
0180
1980
1980
FFC0
6000
6000
7F80
ENDCHAR
STARTCHAR ACE7
ENCODING 12400
SWIDTH 1200 0
DWIDTH 12 0
BBX 10 8 0 -1
BITMAP
7F80
0180
1980
FFC0
0000
7F80
6000
7F80
ENDCHAR
STARTCHAR ACE8
ENCODING 12401
SWIDTH 1200 0
DWIDTH 12 0
BBX 9 8 0 -1
BITMAP
7F00
0100
1900
FF80
7F80
0180
7F80
7F80
ENDCHAR
STARTCHAR ACEA
ENCODING 12402
SWIDTH 1200 0
DWIDTH 12 0
BBX 9 8 0 -1
BITMAP
7F00
0100
1900
FF80
7F80
1F80
7F80
7F80
ENDCHAR
STARTCHAR ACEC
ENCODING 12403
SWIDTH 1200 0
DWIDTH 12 0
BBX 10 8 0 -1
BITMAP
7F80
0180
1980
FFC0
7300
1300
7780
7C80
ENDCHAR
STARTCHAR ACEF
ENCODING 12404
SWIDTH 1200 0
DWIDTH 12 0
BBX 9 9 0 -2
BITMAP
7F00
0100
1900
FF80
7300
1780
7480
7F80
0700
ENDCHAR
STARTCHAR ACF0
ENCODING 12405
SWIDTH 1200 0
DWIDTH 12 0
BBX 10 8 0 -1
BITMAP
7F80
0180
1980
FFC0
0000
7F80
6180
7F80
ENDCHAR
STARTCHAR ACF1
ENCODING 12406
SWIDTH 1200 0
DWIDTH 12 0
BBX 10 8 0 -1
BITMAP
7F80
0180
1980
FFC0
6180
7F80
6180
7F80
ENDCHAR
STARTCHAR ACF3
ENCODING 12407
SWIDTH 1200 0
DWIDTH 12 0
BBX 10 8 0 -1
BITMAP
7F80
0180
1980
FFC0
0C00
1E00
7F80
6100
ENDCHAR
STARTCHAR ACF5
ENCODING 12408
SWIDTH 1200 0
DWIDTH 12 0
BBX 10 8 0 -1
BITMAP
7F80
0180
1980
FFC0
3F00
3300
3300
1E00
ENDCHAR
STARTCHAR ACF6
ENCODING 12409
SWIDTH 1200 0
DWIDTH 12 0
BBX 10 8 0 -1
BITMAP
7F80
0180
1980
FFC0
0000
7F80
0E00
7380
ENDCHAR
STARTCHAR ACFC
ENCODING 12410
SWIDTH 1200 0
DWIDTH 12 0
BBX 9 8 1 -1
BITMAP
FB00
1B00
1B80
7B00
7B00
FF00
0300
0300
ENDCHAR
STARTCHAR ACFD
ENCODING 12411
SWIDTH 1200 0
DWIDTH 12 0
BBX 9 8 1 -1
BITMAP
FB00
1B80
7B00
FF00
0000
7F00
0300
0300
ENDCHAR
STARTCHAR AD00
ENCODING 12412
SWIDTH 1200 0
DWIDTH 12 0
BBX 9 8 1 -1
BITMAP
FB00
1B00
7B80
7B00
FF00
C300
C000
FF00
ENDCHAR
STARTCHAR AD04
ENCODING 12413
SWIDTH 1200 0
DWIDTH 12 0
BBX 9 8 1 -1
BITMAP
FB00
0B80
6B00
FF00
7F00
0300
FF00
7F00
ENDCHAR
STARTCHAR AD06
ENCODING 12414
SWIDTH 1200 0
DWIDTH 12 0
BBX 9 8 1 -1
BITMAP
FB00
0B80
6B00
FF00
FF00
3F00
FF00
FF00
ENDCHAR
STARTCHAR AD0C
ENCODING 12577
SWIDTH 1200 0
DWIDTH 12 0
BBX 10 8 0 -1
BITMAP
FD80
0D80
3DC0
7F80
0000
7F80
6180
7F80
ENDCHAR
STARTCHAR AD0D
ENCODING 12578
SWIDTH 1200 0
DWIDTH 12 0
BBX 10 8 0 -1
BITMAP
FD80
0D80
3DC0
7F80
0000
6180
7F80
7F80
ENDCHAR
STARTCHAR AD0F
ENCODING 12579
SWIDTH 1200 0
DWIDTH 12 0
BBX 10 8 0 -1
BITMAP
FD80
0D80
3DC0
7F80
0180
0D80
1E00
7380
ENDCHAR
STARTCHAR AD11
ENCODING 12580
SWIDTH 1200 0
DWIDTH 12 0
BBX 10 8 0 -1
BITMAP
FD80
0D80
3DC0
7F80
1F80
1980
1980
0F00
ENDCHAR
STARTCHAR AD18
ENCODING 12581
SWIDTH 1200 0
DWIDTH 12 0
BBX 9 8 0 -1
BITMAP
FF80
1F80
7F80
7F80
7F80
FF80
0780
0780
ENDCHAR
STARTCHAR AD1C
ENCODING 12582
SWIDTH 1200 0
DWIDTH 12 0
BBX 9 8 0 -1
BITMAP
FF80
1F80
7F80
7F80
FF80
6780
6000
7F80
ENDCHAR
STARTCHAR AD20
ENCODING 12583
SWIDTH 1200 0
DWIDTH 12 0
BBX 9 8 0 -1
BITMAP
FF80
1F80
7F80
FF80
0000
7F80
7F80
7F80
ENDCHAR
STARTCHAR AD29
ENCODING 12584
SWIDTH 1200 0
DWIDTH 12 0
BBX 9 8 0 -1
BITMAP
FF80
1F80
7F80
FF80
6180
7F80
6180
7F80
ENDCHAR
STARTCHAR AD2C
ENCODING 12585
SWIDTH 1200 0
DWIDTH 12 0
BBX 9 8 0 -1
BITMAP
0780
FF80
1F80
FF80
0000
3300
7F00
4D80
ENDCHAR
STARTCHAR AD2D
ENCODING 12586
SWIDTH 1200 0
DWIDTH 12 0
BBX 9 8 0 -1
BITMAP
FF80
7F80
7F80
FF80
1F00
1980
1980
0F00
ENDCHAR
STARTCHAR AD34
ENCODING 12587
SWIDTH 1200 0
DWIDTH 12 0
BBX 9 8 0 -1
BITMAP
FD80
0D80
3D80
3D80
3D80
7F80
0180
0180
ENDCHAR
STARTCHAR AD35
ENCODING 12588
SWIDTH 1200 0
DWIDTH 12 0
BBX 9 8 0 -1
BITMAP
FD80
0D80
3D80
7F80
0000
7F80
0180
0180
ENDCHAR
STARTCHAR AD38
ENCODING 12589
SWIDTH 1200 0
DWIDTH 12 0
BBX 9 8 0 -1
BITMAP
FD80
0D80
3D80
3D80
FF80
6180
6000
7F80
ENDCHAR
STARTCHAR AD3C
ENCODING 12590
SWIDTH 1200 0
DWIDTH 12 0
BBX 9 8 0 -1
BITMAP
7D80
0580
3580
FF80
7F80
0180
7F80
7F80
ENDCHAR
STARTCHAR AD44
ENCODING 12591
SWIDTH 1200 0
DWIDTH 12 0
BBX 9 8 0 -1
BITMAP
FD80
0D80
3D80
FF80
0000
7F80
6180
7F80
ENDCHAR
STARTCHAR AD45
ENCODING 12592
SWIDTH 1200 0
DWIDTH 12 0
BBX 9 8 0 -1
BITMAP
7D80
0580
3580
FF80
6180
7F80
6180
7F80
ENDCHAR
STARTCHAR AD47
ENCODING 12593
SWIDTH 1200 0
DWIDTH 12 0
BBX 9 8 0 -1
BITMAP
0180
7D80
0580
FF80
0D80
1E00
7380
6100
ENDCHAR
STARTCHAR AD49
ENCODING 12594
SWIDTH 1200 0
DWIDTH 12 0
BBX 9 8 0 -1
BITMAP
FD80
0D80
3D80
FF80
1F80
1980
1980
0F00
ENDCHAR
STARTCHAR AD50
ENCODING 12595
SWIDTH 1200 0
DWIDTH 12 0
BBX 10 8 0 -1
BITMAP
7F80
0180
0180
3D80
3D80
3D80
3D80
FFC0
ENDCHAR
STARTCHAR AD54
ENCODING 12596
SWIDTH 1200 0
DWIDTH 12 0
BBX 10 8 0 -1
BITMAP
7F80
0180
3D80
3D80
FFC0
6000
6000
7F80
ENDCHAR
STARTCHAR AD58
ENCODING 12597
SWIDTH 1200 0
DWIDTH 12 0
BBX 10 8 0 -1
BITMAP
7F80
0180
3D80
FFC0
7F80
0180
7F80
7F80
ENDCHAR
STARTCHAR AD61
ENCODING 12598
SWIDTH 1200 0
DWIDTH 12 0
BBX 10 8 0 -1
BITMAP
7F80
3D80
3D80
FFC0
6180
7F80
6180
7F80
ENDCHAR
STARTCHAR AD63
ENCODING 12599
SWIDTH 1200 0
DWIDTH 12 0
BBX 10 8 0 -1
BITMAP
7F80
0180
3D80
3D80
FFC0
0C00
7F80
6100
ENDCHAR
STARTCHAR AD6C
ENCODING 12600
SWIDTH 1200 0
DWIDTH 12 0
BBX 9 8 1 -1
BITMAP
FF00
0300
0300
0300
FF80
1800
1800
1800
ENDCHAR
STARTCHAR AD6D
ENCODING 12601
SWIDTH 1200 0
DWIDTH 12 0
BBX 10 8 0 -1
BITMAP
7F80
0180
0180
FFC0
0C00
7F80
0180
0180
ENDCHAR
STARTCHAR AD70
ENCODING 12602
SWIDTH 1200 0
DWIDTH 12 0
BBX 10 8 0 -1
BITMAP
7F80
0180
0180
FFC0
0C00
6C00
6000
7F80
ENDCHAR
STARTCHAR AD73
ENCODING 12603
SWIDTH 1200 0
DWIDTH 12 0
BBX 10 8 0 -1
BITMAP
7F80
0180
0180
FFC0
0C00
7F80
6000
7F80
ENDCHAR
STARTCHAR AD74
ENCODING 12604
SWIDTH 1200 0
DWIDTH 12 0
BBX 9 8 0 -1
BITMAP
7F80
0180
0180
FF80
7F80
0180
7F80
7F80
ENDCHAR
STARTCHAR AD75
ENCODING 12605
SWIDTH 1200 0
DWIDTH 12 0
BBX 9 9 1 -2
BITMAP
FF00
0300
0300
FF80
0000
FF00
F300
F300
0300
ENDCHAR
STARTCHAR AD76
ENCODING 12606
SWIDTH 1200 0
DWIDTH 12 0
BBX 9 8 1 -1
BITMAP
FF00
0300
0300
FF80
FF00
3F00
FF00
FF00
ENDCHAR
STARTCHAR AD7B
ENCODING 12607
SWIDTH 1200 0
DWIDTH 12 0
BBX 9 8 1 -1
BITMAP
FF00
0300
0300
FF80
0600
FF00
FD00
FF00
ENDCHAR
STARTCHAR AD7C
ENCODING 12608
SWIDTH 1200 0
DWIDTH 12 0
BBX 10 8 0 -1
BITMAP
7F80
0180
0180
FFC0
0C00
7F80
6180
7F80
ENDCHAR
STARTCHAR AD7D
ENCODING 12609
SWIDTH 1200 0
DWIDTH 12 0
BBX 10 8 0 -1
BITMAP
7F80
0180
0180
FFC0
6D80
7F80
6180
7F80
ENDCHAR
STARTCHAR AD7F
ENCODING 12610
SWIDTH 1200 0
DWIDTH 12 0
BBX 9 8 1 -1
BITMAP
FF00
0300
FF80
1800
0000
1800
FF00
C200
ENDCHAR
STARTCHAR AD81
ENCODING 12611
SWIDTH 1200 0
DWIDTH 12 0
BBX 9 8 1 -1
BITMAP
FF00
0300
0300
FF80
1800
6C00
6600
3C00
ENDCHAR
STARTCHAR AD82
ENCODING 12612
SWIDTH 1200 0
DWIDTH 12 0
BBX 9 8 1 -1
BITMAP
FF00
0300
0300
FF80
0000
FF00
3800
E700
ENDCHAR
STARTCHAR AD88
ENCODING 12613
SWIDTH 1200 0
DWIDTH 12 0
BBX 9 8 0 -1
BITMAP
7D80
0D80
0D80
0D80
FF80
3180
3780
3180
ENDCHAR
STARTCHAR AD89
ENCODING 12614
SWIDTH 1200 0
DWIDTH 12 0
BBX 8 8 1 -1
BITMAP
FB
1F
1B
FF
33
FF
03
03
ENDCHAR
STARTCHAR AD8C
ENCODING 12615
SWIDTH 1200 0
DWIDTH 12 0
BBX 9 8 0 -1
BITMAP
7D80
0F80
0D80
FF80
1980
6000
6000
7F80
ENDCHAR
STARTCHAR AD90
ENCODING 12616
SWIDTH 1200 0
DWIDTH 12 0
BBX 9 8 0 -1
BITMAP
7D80
0F80
0D80
FF80
7F80
0180
7F80
3F80
ENDCHAR
STARTCHAR AD9C
ENCODING 12617
SWIDTH 1200 0
DWIDTH 12 0
BBX 9 8 0 -1
BITMAP
7D80
0F80
0D80
FF80
1000
3300
7F00
4D80
ENDCHAR
STARTCHAR AD9D
ENCODING 12618
SWIDTH 1200 0
DWIDTH 12 0
BBX 8 8 1 -1
BITMAP
FB
1F
1B
FF
3F
36
36
1E
ENDCHAR
STARTCHAR ADA4
ENCODING 12619
SWIDTH 1200 0
DWIDTH 12 0
BBX 9 8 0 -1
BITMAP
7F80
1F80
1F80
1F80
FF80
3780
3F80
3780
ENDCHAR
STARTCHAR ADB7
ENCODING 12620
SWIDTH 1200 0
DWIDTH 12 0
BBX 9 9 0 -1
BITMAP
0180
7F80
1F80
FF80
3F80
0780
0C00
FF80
6100
ENDCHAR
STARTCHAR ADC0
ENCODING 12621
SWIDTH 1200 0
DWIDTH 12 0
BBX 9 8 0 -1
BITMAP
7D80
0D80
0D80
0D80
FF80
3180
3180
3180
ENDCHAR
STARTCHAR ADC1
ENCODING 12622
SWIDTH 1200 0
DWIDTH 12 0
BBX 9 8 0 -1
BITMAP
FD80
0D80
0D80
FF80
3180
7F80
0180
0180
ENDCHAR
STARTCHAR ADC4
ENCODING 12623
SWIDTH 1200 0
DWIDTH 12 0
BBX 8 8 1 -1
BITMAP
FB
1B
1B
FF
33
C3
C0
FF
ENDCHAR
STARTCHAR ADC8
ENCODING 12624
SWIDTH 1200 0
DWIDTH 12 0
BBX 8 8 1 -1
BITMAP
FB
1B
1B
FF
00
FF
FF
FF
ENDCHAR
STARTCHAR ADD0
ENCODING 12625
SWIDTH 1200 0
DWIDTH 12 0
BBX 8 8 1 -1
BITMAP
FB
1B
1B
FF
00
FF
C3
FF
ENDCHAR
STARTCHAR ADD1
ENCODING 12626
SWIDTH 1200 0
DWIDTH 12 0
BBX 8 8 1 -1
BITMAP
FB
1B
1B
FF
C3
FF
C3
FF
ENDCHAR
STARTCHAR ADD3
ENCODING 12627
SWIDTH 1200 0
DWIDTH 12 0
BBX 10 8 0 -1
BITMAP
FD80
0D80
0D80
FF80
3780
0F00
3FC0
3080
ENDCHAR
STARTCHAR ADDC
ENCODING 12628
SWIDTH 1200 0
DWIDTH 12 0
BBX 10 9 0 -2
BITMAP
7F80
0180
0180
0180
FFC0
3300
3300
3300
3000
ENDCHAR
STARTCHAR ADE0
ENCODING 12629
SWIDTH 1200 0
DWIDTH 12 0
BBX 10 8 0 -1
BITMAP
7F80
0180
0180
FFC0
1B00
6000
6000
7F80
ENDCHAR
STARTCHAR ADE4
ENCODING 12630
SWIDTH 1200 0
DWIDTH 12 0
BBX 9 8 1 -1
BITMAP
FF00
0300
0300
FF80
FF00
0300
FF00
FF00
ENDCHAR
STARTCHAR ADF8
ENCODING 12631
SWIDTH 1200 0
DWIDTH 12 0
BBX 9 8 1 -1
BITMAP
7F00
0300
0300
0300
0300
0300
0300
FF80
ENDCHAR
STARTCHAR ADF9
ENCODING 12632
SWIDTH 1200 0
DWIDTH 12 0
BBX 9 8 1 -1
BITMAP
FF00
0300
0300
FF80
0000
FF00
0300
0300
ENDCHAR
STARTCHAR ADFC
ENCODING 12633
SWIDTH 1200 0
DWIDTH 12 0
BBX 9 8 1 -1
BITMAP
FF00
0300
0300
0300
FF80
C000
C000
FF00
ENDCHAR
STARTCHAR ADFF
ENCODING 12634
SWIDTH 1200 0
DWIDTH 12 0
BBX 9 8 1 -1
BITMAP
FF00
0300
0300
FF80
0000
FF00
C000
FF00
ENDCHAR
STARTCHAR AE00
ENCODING 12635
SWIDTH 1200 0
DWIDTH 12 0
BBX 9 8 1 -1
BITMAP
FF00
0300
0300
FF80
7F00
0300
FF00
7F00
ENDCHAR
STARTCHAR AE01
ENCODING 12636
SWIDTH 1200 0
DWIDTH 12 0
BBX 9 8 1 -1
BITMAP
FF00
0300
0300
FF80
FF00
3300
F300
F300
ENDCHAR
STARTCHAR AE08
ENCODING 12637
SWIDTH 1200 0
DWIDTH 12 0
BBX 9 8 1 -1
BITMAP
FF00
0300
0300
FF80
0000
FF00
C300
FF00
ENDCHAR
STARTCHAR AE09
ENCODING 12638
SWIDTH 1200 0
DWIDTH 12 0
BBX 9 8 1 -1
BITMAP
FF00
0300
0300
FF80
C300
FF00
C300
FF00
ENDCHAR
STARTCHAR AE0B
ENCODING 12639
SWIDTH 1200 0
DWIDTH 12 0
BBX 9 7 1 -1
BITMAP
FF00
0300
FF80
0000
1800
7C00
C300
ENDCHAR
STARTCHAR AE0D
ENCODING 12640
SWIDTH 1200 0
DWIDTH 12 0
BBX 9 8 1 -1
BITMAP
FF00
0300
0300
FF80
3C00
2600
2600
1C00
ENDCHAR
STARTCHAR AE14
ENCODING 12641
SWIDTH 1200 0
DWIDTH 12 0
BBX 9 8 0 -1
BITMAP
7D80
0D80
0D80
0D80
0D80
FF80
0180
0180
ENDCHAR
STARTCHAR AE30
ENCODING 12642
SWIDTH 1200 0
DWIDTH 12 0
BBX 8 8 1 -1
BITMAP
FB
1B
1B
1B
1B
33
C3
03
ENDCHAR
STARTCHAR AE31
ENCODING 12643
SWIDTH 1200 0
DWIDTH 12 0
BBX 8 8 1 -1
BITMAP
FB
1B
33
E3
00
FF
03
03
ENDCHAR
STARTCHAR AE34
ENCODING 12644
SWIDTH 1200 0
DWIDTH 12 0
BBX 8 8 1 -1
BITMAP
FB
1B
33
73
C3
C3
C0
FF
ENDCHAR
STARTCHAR AE37
ENCODING 12645
SWIDTH 1200 0
DWIDTH 12 0
BBX 8 8 1 -1
BITMAP
FB
1B
33
E3
00
FF
C0
FF
ENDCHAR
STARTCHAR AE38
ENCODING 12646
SWIDTH 1200 0
DWIDTH 12 0
BBX 8 8 1 -1
BITMAP
FB
1B
33
E3
FF
03
FF
FF
ENDCHAR
STARTCHAR AE3A
ENCODING 12647
SWIDTH 1200 0
DWIDTH 12 0
BBX 8 8 1 -1
BITMAP
FB
1B
33
E3
FF
3F
FF
FF
ENDCHAR
STARTCHAR AE40
ENCODING 12648
SWIDTH 1200 0
DWIDTH 12 0
BBX 8 8 1 -1
BITMAP
FB
1B
33
E3
00
FF
C3
FF
ENDCHAR
STARTCHAR AE41
ENCODING 12649
SWIDTH 1200 0
DWIDTH 12 0
BBX 8 8 1 -1
BITMAP
FB
1B
33
E3
C3
FF
C3
FF
ENDCHAR
STARTCHAR AE43
ENCODING 12650
SWIDTH 1200 0
DWIDTH 12 0
BBX 8 8 1 -1
BITMAP
FB
1B
33
E3
1B
3C
E7
C2
ENDCHAR
STARTCHAR AE45
ENCODING 12651
SWIDTH 1200 0
DWIDTH 12 0
BBX 8 8 1 -1
BITMAP
FB
1B
33
E3
1F
33
33
1E
ENDCHAR
STARTCHAR AE46
ENCODING 12652
SWIDTH 1200 0
DWIDTH 12 0
BBX 8 8 1 -1
BITMAP
FB
1B
33
E3
00
FF
18
E7
ENDCHAR
STARTCHAR AE4A
ENCODING 12653
SWIDTH 1200 0
DWIDTH 12 0
BBX 8 8 1 -1
BITMAP
FB
1B
33
E3
00
FF
66
FF
ENDCHAR
STARTCHAR AE4C
ENCODING 12654
SWIDTH 1200 0
DWIDTH 12 0
BBX 9 8 1 -1
BITMAP
FF00
6F00
6F00
6F80
EF00
DB00
1300
0300
ENDCHAR
STARTCHAR AE4D
ENCODING 12655
SWIDTH 1200 0
DWIDTH 12 0
BBX 9 8 1 -1
BITMAP
FB00
5B80
DB00
F300
2000
FF00
0300
0300
ENDCHAR
STARTCHAR AE4E
ENCODING 12656
SWIDTH 1200 0
DWIDTH 12 0
BBX 10 8 0 -1
BITMAP
7D80
2DC0
6D80
7980
1000
F780
3180
3180
ENDCHAR
STARTCHAR AE50
ENCODING 12657
SWIDTH 1200 0
DWIDTH 12 0
BBX 9 8 1 -1
BITMAP
FB00
5B80
DB00
F300
A300
C000
C000
FF00
ENDCHAR
STARTCHAR AE54
ENCODING 12658
SWIDTH 1200 0
DWIDTH 12 0
BBX 9 8 1 -1
BITMAP
DB00
4B80
DB00
9000
FF00
0300
FF00
FF00
ENDCHAR
STARTCHAR AE56
ENCODING 12659
SWIDTH 1200 0
DWIDTH 12 0
BBX 9 8 1 -1
BITMAP
DB00
4B80
DB00
9000
FF00
3F00
FF00
FF00
ENDCHAR
STARTCHAR AE5C
ENCODING 12660
SWIDTH 1200 0
DWIDTH 12 0
BBX 9 8 1 -1
BITMAP
FB00
5B80
DB00
F300
2000
FF00
C300
FF00
ENDCHAR
STARTCHAR AE5D
ENCODING 12661
SWIDTH 1200 0
DWIDTH 12 0
BBX 9 8 1 -1
BITMAP
DB00
4B80
DB00
DB00
C300
FF00
C300
FF00
ENDCHAR
STARTCHAR AE5F
ENCODING 12662
SWIDTH 1200 0
DWIDTH 12 0
BBX 9 8 1 -1
BITMAP
DB00
4B80
DB00
B300
1800
3C00
FF00
C200
ENDCHAR
STARTCHAR AE60
ENCODING 12663
SWIDTH 1200 0
DWIDTH 12 0
BBX 9 8 1 -1
BITMAP
DB00
4B80
DB00
DB00
0000
3600
7700
D900
ENDCHAR
STARTCHAR AE61
ENCODING 12664
SWIDTH 1200 0
DWIDTH 12 0
BBX 9 8 1 -1
BITMAP
DB00
4B00
DB80
DB00
3E00
3300
3300
1E00
ENDCHAR
STARTCHAR AE65
ENCODING 12665
SWIDTH 1200 0
DWIDTH 12 0
BBX 9 8 1 -1
BITMAP
DB00
4B80
DB00
9300
FF00
C000
FF00
FF00
ENDCHAR
STARTCHAR AE68
ENCODING 12666
SWIDTH 1200 0
DWIDTH 12 0
BBX 9 8 0 -1
BITMAP
FF80
7F80
7F80
7F80
FF80
F780
0780
0780
ENDCHAR
STARTCHAR AE69
ENCODING 12667
SWIDTH 1200 0
DWIDTH 12 0
BBX 9 8 0 -1
BITMAP
FF80
7F80
7F80
FF80
0780
7F80
0180
0180
ENDCHAR
STARTCHAR AE6C
ENCODING 12668
SWIDTH 1200 0
DWIDTH 12 0
BBX 9 8 0 -1
BITMAP
FF80
7F80
7F80
FF80
1780
6780
6000
7F80
ENDCHAR
STARTCHAR AE70
ENCODING 12669
SWIDTH 1200 0
DWIDTH 12 0
BBX 9 8 0 -1
BITMAP
FF80
7F80
DF80
7780
7F80
0180
7F80
7F80
ENDCHAR
STARTCHAR AE78
ENCODING 12670
SWIDTH 1200 0
DWIDTH 12 0
BBX 9 8 0 -1
BITMAP
FF80
7F80
7F80
F780
0780
7F80
6180
7F80
ENDCHAR
STARTCHAR AE79
ENCODING 12833
SWIDTH 1200 0
DWIDTH 12 0
BBX 8 8 1 -1
BITMAP
FF
FF
BF
EF
0F
C3
FF
FF
ENDCHAR
STARTCHAR AE7B
ENCODING 12834
SWIDTH 1200 0
DWIDTH 12 0
BBX 9 8 0 -1
BITMAP
FF80
7F80
7F80
F780
0F80
1E00
7F80
6100
ENDCHAR
STARTCHAR AE7C
ENCODING 12835
SWIDTH 1200 0
DWIDTH 12 0
BBX 9 8 0 -1
BITMAP
FF80
7F80
DF80
7780
0000
3300
3F80
4C80
ENDCHAR
STARTCHAR AE7D
ENCODING 12836
SWIDTH 1200 0
DWIDTH 12 0
BBX 9 8 0 -1
BITMAP
FF80
7F80
7F80
F780
1F00
1980
1980
0F00
ENDCHAR
STARTCHAR AE84
ENCODING 12837
SWIDTH 1200 0
DWIDTH 12 0
BBX 9 8 1 -1
BITMAP
FF00
6F00
6F80
6F00
6F80
DB00
1B00
0300
ENDCHAR
STARTCHAR AE85
ENCODING 12838
SWIDTH 1200 0
DWIDTH 12 0
BBX 9 8 1 -1
BITMAP
FB00
5B80
DB80
F300
2000
FF00
0300
0300
ENDCHAR
STARTCHAR AE8C
ENCODING 12839
SWIDTH 1200 0
DWIDTH 12 0
BBX 9 8 1 -1
BITMAP
DB80
4B00
DB80
9300
FF00
0300
FF00
FF00
ENDCHAR
STARTCHAR AEBC
ENCODING 12840
SWIDTH 1200 0
DWIDTH 12 0
BBX 9 8 0 -1
BITMAP
FD80
6D80
6D80
6F80
FD80
D980
1180
0180
ENDCHAR
STARTCHAR AEBD
ENCODING 12841
SWIDTH 1200 0
DWIDTH 12 0
BBX 9 8 0 -1
BITMAP
FD80
6D80
6F80
D980
1180
7F80
0180
0180
ENDCHAR
STARTCHAR AEBE
ENCODING 12842
SWIDTH 1200 0
DWIDTH 12 0
BBX 9 8 0 -1
BITMAP
FD80
6D80
6F80
D980
1180
7F80
1980
1980
ENDCHAR
STARTCHAR AEC0
ENCODING 12843
SWIDTH 1200 0
DWIDTH 12 0
BBX 9 8 0 -1
BITMAP
FD80
6D80
6F80
D980
9980
6180
6000
7F80
ENDCHAR
STARTCHAR AEC4
ENCODING 12844
SWIDTH 1200 0
DWIDTH 12 0
BBX 9 8 0 -1
BITMAP
FD80
6F80
FD80
1800
7F80
0180
7F80
7F80
ENDCHAR
STARTCHAR AECC
ENCODING 12845
SWIDTH 1200 0
DWIDTH 12 0
BBX 9 8 0 -1
BITMAP
FD80
6D80
6F80
D980
0180
7F80
6180
7F80
ENDCHAR
STARTCHAR AECD
ENCODING 12846
SWIDTH 1200 0
DWIDTH 12 0
BBX 9 8 0 -1
BITMAP
FD80
6D80
6F80
D980
0180
6180
7F80
7F80
ENDCHAR
STARTCHAR AECF
ENCODING 12847
SWIDTH 1200 0
DWIDTH 12 0
BBX 9 8 0 -1
BITMAP
FD80
6D80
6F80
5980
0D80
1E00
7380
6100
ENDCHAR
STARTCHAR AED0
ENCODING 12848
SWIDTH 1200 0
DWIDTH 12 0
BBX 9 8 0 -1
BITMAP
FD80
6D80
6F80
D980
3380
3F00
FF80
4C80
ENDCHAR
STARTCHAR AED1
ENCODING 12849
SWIDTH 1200 0
DWIDTH 12 0
BBX 9 8 0 -1
BITMAP
FD80
6D80
7F80
D980
1F80
1980
1980
0F00
ENDCHAR
STARTCHAR AED8
ENCODING 12850
SWIDTH 1200 0
DWIDTH 12 0
BBX 9 8 0 -1
BITMAP
FF80
7F80
7F80
7F80
D780
F780
2780
0780
ENDCHAR
STARTCHAR AED9
ENCODING 12851
SWIDTH 1200 0
DWIDTH 12 0
BBX 9 8 0 -1
BITMAP
FF80
7F80
7F80
F780
0780
7F80
0180
0180
ENDCHAR
STARTCHAR AEDC
ENCODING 12852
SWIDTH 1200 0
DWIDTH 12 0
BBX 9 8 0 -1
BITMAP
FF80
7F80
7F80
D780
3780
6000
6000
7F80
ENDCHAR
STARTCHAR AEE8
ENCODING 12853
SWIDTH 1200 0
DWIDTH 12 0
BBX 9 8 0 -1
BITMAP
FF80
7F80
7F80
F780
0780
7F80
6180
7F80
ENDCHAR
STARTCHAR AEEB
ENCODING 12854
SWIDTH 1200 0
DWIDTH 12 0
BBX 9 8 0 -1
BITMAP
FF80
7F80
7780
F780
0D80
1E00
7F80
6100
ENDCHAR
STARTCHAR AEED
ENCODING 12855
SWIDTH 1200 0
DWIDTH 12 0
BBX 9 8 0 -1
BITMAP
FF80
7F80
7780
F780
1F00
1980
1980
0F00
ENDCHAR
STARTCHAR AEF4
ENCODING 12856
SWIDTH 1200 0
DWIDTH 12 0
BBX 9 8 0 -1
BITMAP
FD80
6F80
6D80
6D80
DF80
D980
1180
0180
ENDCHAR
STARTCHAR AEF8
ENCODING 12857
SWIDTH 1200 0
DWIDTH 12 0
BBX 9 8 0 -1
BITMAP
FD80
6F80
6D80
DB80
1980
6180
6000
7F80
ENDCHAR
STARTCHAR AEFC
ENCODING 12858
SWIDTH 1200 0
DWIDTH 12 0
BBX 9 8 0 -1
BITMAP
FD80
6F80
FB80
1980
7F80
0180
7F80
7F80
ENDCHAR
STARTCHAR AF07
ENCODING 12859
SWIDTH 1200 0
DWIDTH 12 0
BBX 9 8 0 -1
BITMAP
FD80
6F80
ED80
DB80
0D80
1E00
7380
6100
ENDCHAR
STARTCHAR AF08
ENCODING 12860
SWIDTH 1200 0
DWIDTH 12 0
BBX 9 8 0 -1
BITMAP
FD80
6F80
6D80
5B80
0000
3300
7F00
4D80
ENDCHAR
STARTCHAR AF0D
ENCODING 12861
SWIDTH 1200 0
DWIDTH 12 0
BBX 9 8 0 -1
BITMAP
FD80
6F80
FF80
5980
7F80
6000
7F80
7F80
ENDCHAR
STARTCHAR AF10
ENCODING 12862
SWIDTH 1200 0
DWIDTH 12 0
BBX 9 8 0 -1
BITMAP
FF80
7F80
7F80
7F80
F780
F780
2780
0780
ENDCHAR
STARTCHAR AF2C
ENCODING 12863
SWIDTH 1200 0
DWIDTH 12 0
BBX 10 8 0 -1
BITMAP
7780
3180
3180
3180
3D80
3D80
3D80
FFC0
ENDCHAR
STARTCHAR AF2D
ENCODING 12864
SWIDTH 1200 0
DWIDTH 12 0
BBX 10 8 0 -1
BITMAP
7780
3180
3D80
FFC0
0000
7F80
0180
0180
ENDCHAR
STARTCHAR AF30
ENCODING 12865
SWIDTH 1200 0
DWIDTH 12 0
BBX 10 8 0 -1
BITMAP
F780
3180
3D80
3D80
FFC0
6000
6000
7F80
ENDCHAR
STARTCHAR AF32
ENCODING 12866
SWIDTH 1200 0
DWIDTH 12 0
BBX 10 8 0 -1
BITMAP
F780
3180
3D80
FFC0
0000
7F80
6D00
7F00
ENDCHAR
STARTCHAR AF34
ENCODING 12867
SWIDTH 1200 0
DWIDTH 12 0
BBX 10 8 0 -1
BITMAP
F780
3180
3D80
FFC0
7F80
0180
7F80
7F80
ENDCHAR
STARTCHAR AF3C
ENCODING 12868
SWIDTH 1200 0
DWIDTH 12 0
BBX 10 8 0 -1
BITMAP
F780
3180
3D80
FFC0
0000
7F80
6180
7F80
ENDCHAR
STARTCHAR AF3D
ENCODING 12869
SWIDTH 1200 0
DWIDTH 12 0
BBX 10 8 0 -1
BITMAP
F780
3180
3D80
FFC0
6180
7F80
6180
7F80
ENDCHAR
STARTCHAR AF3F
ENCODING 12870
SWIDTH 1200 0
DWIDTH 12 0
BBX 10 8 0 -1
BITMAP
F780
3180
3D80
FFC0
0C00
1E00
7F80
6100
ENDCHAR
STARTCHAR AF41
ENCODING 12871
SWIDTH 1200 0
DWIDTH 12 0
BBX 10 8 0 -1
BITMAP
F780
3180
3D80
FFC0
3F00
3300
3300
1E00
ENDCHAR
STARTCHAR AF42
ENCODING 12872
SWIDTH 1200 0
DWIDTH 12 0
BBX 10 8 0 -1
BITMAP
F780
3180
3D80
FFC0
0000
7F80
0C00
7380
ENDCHAR
STARTCHAR AF43
ENCODING 12873
SWIDTH 1200 0
DWIDTH 12 0
BBX 10 8 0 -1
BITMAP
F780
3180
3D80
FFC0
0C00
7F80
0C00
7380
ENDCHAR
STARTCHAR AF48
ENCODING 12874
SWIDTH 1200 0
DWIDTH 12 0
BBX 10 8 0 -1
BITMAP
FF80
6780
6780
7FC0
7F80
FF80
0180
0180
ENDCHAR
STARTCHAR AF49
ENCODING 12875
SWIDTH 1200 0
DWIDTH 12 0
BBX 10 8 0 -1
BITMAP
EF80
6780
7FC0
FF80
0000
7F80
0180
0180
ENDCHAR
STARTCHAR AF50
ENCODING 12876
SWIDTH 1200 0
DWIDTH 12 0
BBX 9 8 1 -1
BITMAP
DF00
4F80
7F00
FF00
0000
FF00
FF00
FF00
ENDCHAR
STARTCHAR AF5C
ENCODING 12877
SWIDTH 1200 0
DWIDTH 12 0
BBX 9 8 1 -1
BITMAP
FF00
6F80
7F00
FF00
0000
3600
7700
D900
ENDCHAR
STARTCHAR AF5D
ENCODING 12878
SWIDTH 1200 0
DWIDTH 12 0
BBX 10 8 0 -1
BITMAP
EF80
67C0
7F80
FF80
1F80
3980
3980
1F00
ENDCHAR
STARTCHAR AF64
ENCODING 12879
SWIDTH 1200 0
DWIDTH 12 0
BBX 9 8 0 -1
BITMAP
FF80
6F80
6F80
7F80
7F80
FF80
0780
0780
ENDCHAR
STARTCHAR AF65
ENCODING 12880
SWIDTH 1200 0
DWIDTH 12 0
BBX 9 8 0 -1
BITMAP
FF80
6F80
7F80
FF80
0000
7F80
0180
0180
ENDCHAR
STARTCHAR AF79
ENCODING 12881
SWIDTH 1200 0
DWIDTH 12 0
BBX 9 8 0 -1
BITMAP
FF80
6F80
7F80
FF80
1F80
3980
1980
1F00
ENDCHAR
STARTCHAR AF80
ENCODING 12882
SWIDTH 1200 0
DWIDTH 12 0
BBX 9 8 0 -1
BITMAP
FF80
6780
6780
7F80
7F80
FF80
0180
0180
ENDCHAR
STARTCHAR AF84
ENCODING 12883
SWIDTH 1200 0
DWIDTH 12 0
BBX 9 8 0 -1
BITMAP
FF80
6780
7F80
7F80
FF80
6180
6000
7F80
ENDCHAR
STARTCHAR AF88
ENCODING 12884
SWIDTH 1200 0
DWIDTH 12 0
BBX 9 8 0 -1
BITMAP
FF80
6780
7F80
FF80
7F80
0180
7F80
7F80
ENDCHAR
STARTCHAR AF90
ENCODING 12885
SWIDTH 1200 0
DWIDTH 12 0
BBX 9 8 0 -1
BITMAP
FF80
7F80
7F80
FF80
0000
7F80
6180
7F80
ENDCHAR
STARTCHAR AF91
ENCODING 12886
SWIDTH 1200 0
DWIDTH 12 0
BBX 9 8 0 -1
BITMAP
FF80
6780
7F80
FF80
6180
7F80
6180
7F80
ENDCHAR
STARTCHAR AF95
ENCODING 12887
SWIDTH 1200 0
DWIDTH 12 0
BBX 9 8 0 -1
BITMAP
FF80
6780
7F80
FF80
1F80
3980
3980
1F00
ENDCHAR
STARTCHAR AF9C
ENCODING 12888
SWIDTH 1200 0
DWIDTH 12 0
BBX 9 8 1 -1
BITMAP
FF00
3300
3300
6300
0000
3600
3600
FF80
ENDCHAR
STARTCHAR AFB8
ENCODING 12889
SWIDTH 1200 0
DWIDTH 12 0
BBX 9 8 1 -1
BITMAP
FF00
3300
3300
3300
FF80
1800
1800
1800
ENDCHAR
STARTCHAR AFB9
ENCODING 12890
SWIDTH 1200 0
DWIDTH 12 0
BBX 9 8 1 -1
BITMAP
FF00
3300
3300
FF80
1800
FF00
0300
0300
ENDCHAR
STARTCHAR AFBC
ENCODING 12891
SWIDTH 1200 0
DWIDTH 12 0
BBX 10 8 0 -1
BITMAP
7780
3180
3180
FFC0
0C00
6C00
6000
7F80
ENDCHAR
STARTCHAR AFC0
ENCODING 12892
SWIDTH 1200 0
DWIDTH 12 0
BBX 9 8 0 -1
BITMAP
7F80
1980
1180
FF80
7F80
0180
7F80
7F80
ENDCHAR
STARTCHAR AFC7
ENCODING 12893
SWIDTH 1200 0
DWIDTH 12 0
BBX 9 8 1 -1
BITMAP
FF00
3300
3300
FF80
0000
FF00
EB00
EE00
ENDCHAR
STARTCHAR AFC8
ENCODING 12894
SWIDTH 1200 0
DWIDTH 12 0
BBX 10 8 0 -1
BITMAP
7F80
1980
1980
FFC0
0C00
7F80
6180
7F80
ENDCHAR
STARTCHAR AFC9
ENCODING 12895
SWIDTH 1200 0
DWIDTH 12 0
BBX 9 8 1 -1
BITMAP
FF00
3300
3300
FF80
DB00
FF00
C300
FF00
ENDCHAR
STARTCHAR AFCB
ENCODING 12896
SWIDTH 1200 0
DWIDTH 12 0
BBX 9 7 1 -1
BITMAP
FF00
3300
FF80
0000
1800
7E00
C300
ENDCHAR
STARTCHAR AFCD
ENCODING 12897
SWIDTH 1200 0
DWIDTH 12 0
BBX 9 8 0 -1
BITMAP
7780
1180
3180
FF80
0C00
3600
3200
1E00
ENDCHAR
STARTCHAR AFCE
ENCODING 12898
SWIDTH 1200 0
DWIDTH 12 0
BBX 9 8 0 -1
BITMAP
7780
1180
1180
FF80
0000
7F80
0C00
7380
ENDCHAR
STARTCHAR AFD4
ENCODING 12899
SWIDTH 1200 0
DWIDTH 12 0
BBX 9 9 0 -2
BITMAP
FD80
6D80
6D80
6D80
FF80
1980
1F80
1980
0180
ENDCHAR
STARTCHAR AFDC
ENCODING 12900
SWIDTH 1200 0
DWIDTH 12 0
BBX 9 8 0 -1
BITMAP
7D80
6D80
6F80
FF80
0180
7F80
7F80
7F80
ENDCHAR
STARTCHAR AFE8
ENCODING 12901
SWIDTH 1200 0
DWIDTH 12 0
BBX 9 8 0 -1
BITMAP
7D80
2F80
2D80
FF80
0000
3300
7F00
4D80
ENDCHAR
STARTCHAR AFE9
ENCODING 12902
SWIDTH 1200 0
DWIDTH 12 0
BBX 9 8 0 -1
BITMAP
FD80
6D80
6F80
FF80
3980
1F00
3300
1F00
ENDCHAR
STARTCHAR AFF0
ENCODING 12903
SWIDTH 1200 0
DWIDTH 12 0
BBX 9 9 0 -2
BITMAP
FF80
7F80
7F80
7F80
FF80
3780
3F80
3780
0780
ENDCHAR
STARTCHAR AFF1
ENCODING 12904
SWIDTH 1200 0
DWIDTH 12 0
BBX 9 8 0 -1
BITMAP
F780
7F80
7F80
FF80
3780
7F80
0180
0180
ENDCHAR
STARTCHAR AFF4
ENCODING 12905
SWIDTH 1200 0
DWIDTH 12 0
BBX 9 8 0 -1
BITMAP
FF80
7F80
5F80
FF80
3780
6780
6000
7F80
ENDCHAR
STARTCHAR AFF8
ENCODING 12906
SWIDTH 1200 0
DWIDTH 12 0
BBX 9 8 0 -1
BITMAP
F780
7F80
7F80
FF80
7F80
0180
7F80
7F80
ENDCHAR
STARTCHAR B000
ENCODING 12907
SWIDTH 1200 0
DWIDTH 12 0
BBX 9 9 0 -1
BITMAP
0180
F780
7F80
7F80
FF80
0000
7F80
6180
7F80
ENDCHAR
STARTCHAR B001
ENCODING 12908
SWIDTH 1200 0
DWIDTH 12 0
BBX 9 9 0 -1
BITMAP
0180
F780
7F80
7F80
FF80
0000
6180
7F80
7F80
ENDCHAR
STARTCHAR B004
ENCODING 12909
SWIDTH 1200 0
DWIDTH 12 0
BBX 9 8 0 -1
BITMAP
0780
FF80
7F80
FF80
3380
3300
7F00
4D80
ENDCHAR
STARTCHAR B00C
ENCODING 12910
SWIDTH 1200 0
DWIDTH 12 0
BBX 8 8 1 -1
BITMAP
FB
7B
7B
7B
FF
33
33
33
ENDCHAR
STARTCHAR B010
ENCODING 12911
SWIDTH 1200 0
DWIDTH 12 0
BBX 9 8 0 -1
BITMAP
FD80
6D80
6D80
FF80
1980
6180
6000
7F80
ENDCHAR
STARTCHAR B014
ENCODING 12912
SWIDTH 1200 0
DWIDTH 12 0
BBX 9 8 0 -1
BITMAP
6D80
2580
2580
FF80
0000
7F80
7F80
7F80
ENDCHAR
STARTCHAR B01C
ENCODING 12913
SWIDTH 1200 0
DWIDTH 12 0
BBX 9 8 0 -1
BITMAP
FD80
6D80
6D80
FF80
0180
7F80
6180
7F80
ENDCHAR
STARTCHAR B01D
ENCODING 12914
SWIDTH 1200 0
DWIDTH 12 0
BBX 9 8 0 -1
BITMAP
FD80
6D80
6D80
FF80
1980
6180
7F80
7F80
ENDCHAR
STARTCHAR B028
ENCODING 12915
SWIDTH 1200 0
DWIDTH 12 0
BBX 10 8 0 -1
BITMAP
7F80
1980
1980
1980
FFC0
3300
3300
3300
ENDCHAR
STARTCHAR B044
ENCODING 12916
SWIDTH 1200 0
DWIDTH 12 0
BBX 9 8 1 -1
BITMAP
FF00
3300
3300
3300
3300
3300
3300
FF80
ENDCHAR
STARTCHAR B045
ENCODING 12917
SWIDTH 1200 0
DWIDTH 12 0
BBX 10 8 0 -1
BITMAP
7F80
1980
1980
FFC0
0000
7F80
0180
0180
ENDCHAR
STARTCHAR B048
ENCODING 12918
SWIDTH 1200 0
DWIDTH 12 0
BBX 10 8 0 -1
BITMAP
F780
3180
3180
3180
FFC0
6000
6000
7F80
ENDCHAR
STARTCHAR B04A
ENCODING 12919
SWIDTH 1200 0
DWIDTH 12 0
BBX 9 8 0 -1
BITMAP
7F80
1980
1180
FF80
0200
6F80
6D80
7700
ENDCHAR
STARTCHAR B04C
ENCODING 12920
SWIDTH 1200 0
DWIDTH 12 0
BBX 9 8 0 -1
BITMAP
7F80
1980
1180
FF80
7F80
0180
7F80
7F80
ENDCHAR
STARTCHAR B04E
ENCODING 12921
SWIDTH 1200 0
DWIDTH 12 0
BBX 9 8 0 -1
BITMAP
7F80
1980
1180
FF80
7780
1780
7780
7F80
ENDCHAR
STARTCHAR B053
ENCODING 12922
SWIDTH 1200 0
DWIDTH 12 0
BBX 9 8 0 -1
BITMAP
7F80
1980
1180
FF80
7000
1780
7580
7F80
ENDCHAR
STARTCHAR B054
ENCODING 12923
SWIDTH 1200 0
DWIDTH 12 0
BBX 10 8 0 -1
BITMAP
7F80
1980
1980
FFC0
0000
7F80
6180
7F80
ENDCHAR
STARTCHAR B055
ENCODING 12924
SWIDTH 1200 0
DWIDTH 12 0
BBX 10 8 0 -1
BITMAP
7F80
1980
1980
FFC0
6180
7F80
6180
7F80
ENDCHAR
STARTCHAR B057
ENCODING 12925
SWIDTH 1200 0
DWIDTH 12 0
BBX 10 8 0 -1
BITMAP
7F80
1980
1980
FFC0
0C00
0C00
7F80
6100
ENDCHAR
STARTCHAR B059
ENCODING 12926
SWIDTH 1200 0
DWIDTH 12 0
BBX 10 8 0 -1
BITMAP
7F80
1980
1980
FFC0
1F00
3300
1300
1E00
ENDCHAR
STARTCHAR B05D
ENCODING 13089
SWIDTH 1200 0
DWIDTH 12 0
BBX 9 8 0 -1
BITMAP
7F80
1980
1180
FF80
7F80
6000
7F80
7F80
ENDCHAR
STARTCHAR B07C
ENCODING 13090
SWIDTH 1200 0
DWIDTH 12 0
BBX 9 8 0 -1
BITMAP
FD80
6D80
6D80
6D80
6D80
D980
1180
0180
ENDCHAR
STARTCHAR B07D
ENCODING 13091
SWIDTH 1200 0
DWIDTH 12 0
BBX 9 8 0 -1
BITMAP
FD80
6D80
6D80
F980
0180
7F80
0180
0180
ENDCHAR
STARTCHAR B080
ENCODING 13092
SWIDTH 1200 0
DWIDTH 12 0
BBX 9 8 0 -1
BITMAP
FD80
6D80
6D80
D980
9180
6180
6000
7F80
ENDCHAR
STARTCHAR B084
ENCODING 13093
SWIDTH 1200 0
DWIDTH 12 0
BBX 8 8 1 -1
BITMAP
FB
DB
DB
93
FF
03
FF
FF
ENDCHAR
STARTCHAR B08C
ENCODING 13094
SWIDTH 1200 0
DWIDTH 12 0
BBX 9 8 0 -1
BITMAP
FD80
6D80
6D80
D980
0180
7F80
6180
7F80
ENDCHAR
STARTCHAR B08D
ENCODING 13095
SWIDTH 1200 0
DWIDTH 12 0
BBX 9 8 0 -1
BITMAP
FD80
6D80
6D80
D980
6180
7F80
6180
7F80
ENDCHAR
STARTCHAR B08F
ENCODING 13096
SWIDTH 1200 0
DWIDTH 12 0
BBX 9 8 0 -1
BITMAP
FD80
6D80
6D80
D980
0D80
1E00
7F80
6100
ENDCHAR
STARTCHAR B091
ENCODING 13097
SWIDTH 1200 0
DWIDTH 12 0
BBX 9 8 0 -1
BITMAP
FD80
6D80
7D80
D980
1F80
3980
3980
1F00
ENDCHAR
STARTCHAR B098
ENCODING 13098
SWIDTH 1200 0
DWIDTH 12 0
BBX 9 8 1 -1
BITMAP
C300
C300
C300
C380
C300
FF00
0300
0300
ENDCHAR
STARTCHAR B099
ENCODING 13099
SWIDTH 1200 0
DWIDTH 12 0
BBX 9 8 1 -1
BITMAP
C300
C300
C380
FF00
0300
7F00
0300
0300
ENDCHAR
STARTCHAR B09A
ENCODING 13100
SWIDTH 1200 0
DWIDTH 12 0
BBX 9 8 1 -1
BITMAP
C300
C300
C380
FF00
0300
FF00
3300
3300
ENDCHAR
STARTCHAR B09C
ENCODING 13101
SWIDTH 1200 0
DWIDTH 12 0
BBX 9 8 1 -1
BITMAP
C300
C300
C380
FF00
0300
C000
C000
FF00
ENDCHAR
STARTCHAR B09F
ENCODING 13102
SWIDTH 1200 0
DWIDTH 12 0
BBX 9 8 1 -1
BITMAP
C300
C300
C380
FF00
0300
FE00
C000
FE00
ENDCHAR
STARTCHAR B0A0
ENCODING 13103
SWIDTH 1200 0
DWIDTH 12 0
BBX 9 9 1 -1
BITMAP
C000
C300
C300
FF80
0000
7F00
0300
7F00
7F00
ENDCHAR
STARTCHAR B0A1
ENCODING 13104
SWIDTH 1200 0
DWIDTH 12 0
BBX 9 8 1 -1
BITMAP
C300
C300
C380
FF00
FF00
3300
F300
F300
ENDCHAR
STARTCHAR B0A2
ENCODING 13105
SWIDTH 1200 0
DWIDTH 12 0
BBX 9 8 1 -1
BITMAP
C300
C300
C380
FF00
FF00
3F00
FF00
FF00
ENDCHAR
STARTCHAR B0A8
ENCODING 13106
SWIDTH 1200 0
DWIDTH 12 0
BBX 9 8 1 -1
BITMAP
C300
C300
C380
FF00
0300
FF00
C300
FF00
ENDCHAR
STARTCHAR B0A9
ENCODING 13107
SWIDTH 1200 0
DWIDTH 12 0
BBX 9 8 1 -1
BITMAP
C300
C300
C380
FF00
C300
FF00
C300
FF00
ENDCHAR
STARTCHAR B0AB
ENCODING 13108
SWIDTH 1200 0
DWIDTH 12 0
BBX 9 8 1 -1
BITMAP
C300
C300
C380
FF00
0300
1800
7E00
C700
ENDCHAR
STARTCHAR B0AC
ENCODING 13109
SWIDTH 1200 0
DWIDTH 12 0
BBX 9 8 1 -1
BITMAP
C300
C300
C380
FF00
3700
3700
FF80
C100
ENDCHAR
STARTCHAR B0AD
ENCODING 13110
SWIDTH 1200 0
DWIDTH 12 0
BBX 9 8 1 -1
BITMAP
C300
C380
C300
FF00
1F00
3300
3300
1E00
ENDCHAR
STARTCHAR B0AE
ENCODING 13111
SWIDTH 1200 0
DWIDTH 12 0
BBX 9 8 1 -1
BITMAP
C300
C300
C380
FF00
0300
7F00
1C00
6700
ENDCHAR
STARTCHAR B0AF
ENCODING 13112
SWIDTH 1200 0
DWIDTH 12 0
BBX 9 8 1 -1
BITMAP
C300
C300
C380
FF00
1B00
FF00
1800
F700
ENDCHAR
STARTCHAR B0B1
ENCODING 13113
SWIDTH 1200 0
DWIDTH 12 0
BBX 9 8 1 -1
BITMAP
C300
C380
C300
FF00
7F00
4000
7F00
7F00
ENDCHAR
STARTCHAR B0B3
ENCODING 13114
SWIDTH 1200 0
DWIDTH 12 0
BBX 9 8 1 -1
BITMAP
C300
C300
C380
FF00
1B00
E700
6600
3C00
ENDCHAR
STARTCHAR B0B4
ENCODING 13115
SWIDTH 1200 0
DWIDTH 12 0
BBX 9 8 0 -1
BITMAP
C780
C780
C780
C780
C780
FF80
0780
0780
ENDCHAR
STARTCHAR B0B5
ENCODING 13116
SWIDTH 1200 0
DWIDTH 12 0
BBX 9 8 0 -1
BITMAP
C780
C780
C780
FF80
0000
7F80
0180
0180
ENDCHAR
STARTCHAR B0B8
ENCODING 13117
SWIDTH 1200 0
DWIDTH 12 0
BBX 9 8 0 -1
BITMAP
C780
C780
C780
FF80
0780
6000
6000
7F80
ENDCHAR
STARTCHAR B0BC
ENCODING 13118
SWIDTH 1200 0
DWIDTH 12 0
BBX 9 8 0 -1
BITMAP
C780
C780
C780
FF80
7F80
0180
7F80
7F80
ENDCHAR
STARTCHAR B0C4
ENCODING 13119
SWIDTH 1200 0
DWIDTH 12 0
BBX 9 8 0 -1
BITMAP
C780
C780
C780
FF80
0000
7F80
6180
7F80
ENDCHAR
STARTCHAR B0C5
ENCODING 13120
SWIDTH 1200 0
DWIDTH 12 0
BBX 9 8 0 -1
BITMAP
C780
C780
C780
FF80
6180
7F80
6180
7F80
ENDCHAR
STARTCHAR B0C7
ENCODING 13121
SWIDTH 1200 0
DWIDTH 12 0
BBX 10 8 0 -1
BITMAP
C780
C780
C780
FF80
0D80
1E00
7BC0
6180
ENDCHAR
STARTCHAR B0C8
ENCODING 13122
SWIDTH 1200 0
DWIDTH 12 0
BBX 9 8 0 -1
BITMAP
C780
C780
C780
FF80
3300
3F00
7F80
4C80
ENDCHAR
STARTCHAR B0C9
ENCODING 13123
SWIDTH 1200 0
DWIDTH 12 0
BBX 9 8 0 -1
BITMAP
C780
C780
C780
FF80
0F80
1980
1980
0F00
ENDCHAR
STARTCHAR B0D0
ENCODING 13124
SWIDTH 1200 0
DWIDTH 12 0
BBX 9 8 1 -1
BITMAP
C300
C380
C300
C300
C380
FF00
0300
0300
ENDCHAR
STARTCHAR B0D1
ENCODING 13125
SWIDTH 1200 0
DWIDTH 12 0
BBX 9 8 1 -1
BITMAP
C380
C300
C380
FF00
0000
7F00
0300
0300
ENDCHAR
STARTCHAR B0D4
ENCODING 13126
SWIDTH 1200 0
DWIDTH 12 0
BBX 9 8 1 -1
BITMAP
C300
C380
C300
FF80
0300
6000
6000
7F80
ENDCHAR
STARTCHAR B0D8
ENCODING 13127
SWIDTH 1200 0
DWIDTH 12 0
BBX 9 9 1 -1
BITMAP
C000
C380
C300
FF80
0000
7F00
0300
7F00
7F00
ENDCHAR
STARTCHAR B0E0
ENCODING 13128
SWIDTH 1200 0
DWIDTH 12 0
BBX 9 8 1 -1
BITMAP
C380
C300
C380
FF00
0000
FF00
C300
FF00
ENDCHAR
STARTCHAR B0E5
ENCODING 13129
SWIDTH 1200 0
DWIDTH 12 0
BBX 9 8 1 -1
BITMAP
C380
C300
C380
7F00
1F00
3300
3300
1E00
ENDCHAR
STARTCHAR B108
ENCODING 13130
SWIDTH 1200 0
DWIDTH 12 0
BBX 9 8 0 -1
BITMAP
C180
C180
CF80
C180
C180
FD80
0180
0180
ENDCHAR
STARTCHAR B109
ENCODING 13131
SWIDTH 1200 0
DWIDTH 12 0
BBX 9 8 0 -1
BITMAP
C180
CF80
C180
FD80
0180
7F80
0180
0180
ENDCHAR
STARTCHAR B10B
ENCODING 13132
SWIDTH 1200 0
DWIDTH 12 0
BBX 10 9 0 -2
BITMAP
C180
CF80
C180
FD80
0300
F300
37C0
3480
3000
ENDCHAR
STARTCHAR B10C
ENCODING 13133
SWIDTH 1200 0
DWIDTH 12 0
BBX 9 9 0 -1
BITMAP
C000
C180
CF80
C180
FD80
0180
6180
6000
7F80
ENDCHAR
STARTCHAR B110
ENCODING 13134
SWIDTH 1200 0
DWIDTH 12 0
BBX 9 8 0 -1
BITMAP
C180
CF80
C180
FD80
7F80
0180
7F80
7F80
ENDCHAR
STARTCHAR B112
ENCODING 13135
SWIDTH 1200 0
DWIDTH 12 0
BBX 9 8 0 -1
BITMAP
C180
CF80
C180
FD80
7780
1780
7780
7F80
ENDCHAR
STARTCHAR B113
ENCODING 13136
SWIDTH 1200 0
DWIDTH 12 0
BBX 9 8 0 -1
BITMAP
C180
CF80
C180
FD80
7780
1780
7780
7780
ENDCHAR
STARTCHAR B118
ENCODING 13137
SWIDTH 1200 0
DWIDTH 12 0
BBX 9 8 0 -1
BITMAP
C180
CF80
C180
FD80
0000
7F80
6180
7F80
ENDCHAR
STARTCHAR B119
ENCODING 13138
SWIDTH 1200 0
DWIDTH 12 0
BBX 9 8 0 -1
BITMAP
C180
CF80
C180
FD80
6180
7F80
6180
7F80
ENDCHAR
STARTCHAR B11B
ENCODING 13139
SWIDTH 1200 0
DWIDTH 12 0
BBX 9 8 0 -1
BITMAP
C180
CF80
C180
FD80
0180
0D80
3E00
7380
ENDCHAR
STARTCHAR B11C
ENCODING 13140
SWIDTH 1200 0
DWIDTH 12 0
BBX 9 8 0 -1
BITMAP
C180
C780
C180
FD80
3300
3F00
7F80
4C80
ENDCHAR
STARTCHAR B11D
ENCODING 13141
SWIDTH 1200 0
DWIDTH 12 0
BBX 9 8 0 -1
BITMAP
C180
CF80
C180
FD80
1F80
1980
1980
0F00
ENDCHAR
STARTCHAR B123
ENCODING 13142
SWIDTH 1200 0
DWIDTH 12 0
BBX 9 8 0 -1
BITMAP
C180
CF80
C180
FD80
0C00
7380
3300
1E00
ENDCHAR
STARTCHAR B124
ENCODING 13143
SWIDTH 1200 0
DWIDTH 12 0
BBX 9 8 0 -1
BITMAP
C780
C780
DF80
C780
C780
FF80
0780
0780
ENDCHAR
STARTCHAR B125
ENCODING 13144
SWIDTH 1200 0
DWIDTH 12 0
BBX 9 8 0 -1
BITMAP
C780
DF80
C780
FF80
0180
7F80
0180
0180
ENDCHAR
STARTCHAR B128
ENCODING 13145
SWIDTH 1200 0
DWIDTH 12 0
BBX 9 8 0 -1
BITMAP
C780
DF80
C780
FF80
0780
6180
6000
7F80
ENDCHAR
STARTCHAR B12C
ENCODING 13146
SWIDTH 1200 0
DWIDTH 12 0
BBX 9 8 0 -1
BITMAP
C780
DF80
C780
FF80
7F80
0180
7F80
7F80
ENDCHAR
STARTCHAR B134
ENCODING 13147
SWIDTH 1200 0
DWIDTH 12 0
BBX 9 8 0 -1
BITMAP
C780
DF80
C780
FF80
0180
7F80
6180
7F80
ENDCHAR
STARTCHAR B135
ENCODING 13148
SWIDTH 1200 0
DWIDTH 12 0
BBX 9 8 0 -1
BITMAP
C780
DF80
C780
FF80
6180
7F80
6180
7F80
ENDCHAR
STARTCHAR B137
ENCODING 13149
SWIDTH 1200 0
DWIDTH 12 0
BBX 9 8 0 -1
BITMAP
C780
DF80
C780
FF80
0D80
1E00
7F80
6100
ENDCHAR
STARTCHAR B138
ENCODING 13150
SWIDTH 1200 0
DWIDTH 12 0
BBX 9 8 0 -1
BITMAP
C780
DF80
C780
FF80
3300
3F00
7F80
4C80
ENDCHAR
STARTCHAR B139
ENCODING 13151
SWIDTH 1200 0
DWIDTH 12 0
BBX 9 8 0 -1
BITMAP
C780
DF80
C780
FF80
0F80
1980
1980
0F00
ENDCHAR
STARTCHAR B140
ENCODING 13152
SWIDTH 1200 0
DWIDTH 12 0
BBX 9 8 0 -1
BITMAP
C180
CF80
C180
CF80
C180
FD80
0180
0180
ENDCHAR
STARTCHAR B141
ENCODING 13153
SWIDTH 1200 0
DWIDTH 12 0
BBX 9 8 0 -1
BITMAP
CF80
C180
CF80
FD80
0180
7F80
0180
0180
ENDCHAR
STARTCHAR B144
ENCODING 13154
SWIDTH 1200 0
DWIDTH 12 0
BBX 9 8 0 -1
BITMAP
CF80
C180
CF80
C180
FD80
6180
6000
7F80
ENDCHAR
STARTCHAR B148
ENCODING 13155
SWIDTH 1200 0
DWIDTH 12 0
BBX 9 8 0 -1
BITMAP
CF80
CF80
C180
FD80
7F80
0180
7F80
7F80
ENDCHAR
STARTCHAR B150
ENCODING 13156
SWIDTH 1200 0
DWIDTH 12 0
BBX 9 8 0 -1
BITMAP
CF80
C180
CF80
FD80
0180
7F80
6180
7F80
ENDCHAR
STARTCHAR B151
ENCODING 13157
SWIDTH 1200 0
DWIDTH 12 0
BBX 9 8 0 -1
BITMAP
CF80
C180
CF80
FD80
6180
7F80
6180
7F80
ENDCHAR
STARTCHAR B154
ENCODING 13158
SWIDTH 1200 0
DWIDTH 12 0
BBX 9 8 0 -1
BITMAP
CF80
C180
CF80
FD80
3380
3F00
7F80
4C80
ENDCHAR
STARTCHAR B155
ENCODING 13159
SWIDTH 1200 0
DWIDTH 12 0
BBX 9 8 0 -1
BITMAP
CF80
C180
CF80
FD80
1F80
1980
1980
0F00
ENDCHAR
STARTCHAR B158
ENCODING 13160
SWIDTH 1200 0
DWIDTH 12 0
BBX 9 8 0 -1
BITMAP
CF80
C180
CF80
FD80
0180
7F80
7F80
0180
ENDCHAR
STARTCHAR B15C
ENCODING 13161
SWIDTH 1200 0
DWIDTH 12 0
BBX 9 9 0 -2
BITMAP
C780
DF80
C780
DF80
C780
FF80
0780
0780
0180
ENDCHAR
STARTCHAR B160
ENCODING 13162
SWIDTH 1200 0
DWIDTH 12 0
BBX 9 8 0 -1
BITMAP
DF80
C780
DF80
C780
FF80
6780
6000
7F80
ENDCHAR
STARTCHAR B178
ENCODING 13163
SWIDTH 1200 0
DWIDTH 12 0
BBX 9 8 0 -1
BITMAP
6000
6000
6000
7F80
0000
0C00
0C00
FF80
ENDCHAR
STARTCHAR B179
ENCODING 13164
SWIDTH 1200 0
DWIDTH 12 0
BBX 10 8 0 -1
BITMAP
6000
6000
7F80
0C00
FFC0
7F80
0180
0180
ENDCHAR
STARTCHAR B17C
ENCODING 13165
SWIDTH 1200 0
DWIDTH 12 0
BBX 10 8 0 -1
BITMAP
6000
6000
7F80
0C00
FFC0
6000
6000
7F80
ENDCHAR
STARTCHAR B180
ENCODING 13166
SWIDTH 1200 0
DWIDTH 12 0
BBX 10 8 0 -1
BITMAP
6000
6000
7F80
FFC0
7F80
0180
7F80
7F80
ENDCHAR
STARTCHAR B182
ENCODING 13167
SWIDTH 1200 0
DWIDTH 12 0
BBX 10 8 0 -1
BITMAP
6000
6000
7F80
FFC0
7780
1780
7780
7F80
ENDCHAR
STARTCHAR B188
ENCODING 13168
SWIDTH 1200 0
DWIDTH 12 0
BBX 10 8 0 -1
BITMAP
6000
6000
7F80
FFC0
0000
7F80
6180
7F80
ENDCHAR
STARTCHAR B189
ENCODING 13169
SWIDTH 1200 0
DWIDTH 12 0
BBX 10 8 0 -1
BITMAP
6000
6000
7F80
FFC0
0000
6180
7F80
7F80
ENDCHAR
STARTCHAR B18B
ENCODING 13170
SWIDTH 1200 0
DWIDTH 12 0
BBX 10 8 0 -1
BITMAP
6000
6000
7F80
0C00
FFC0
1E00
7F80
6100
ENDCHAR
STARTCHAR B18D
ENCODING 13171
SWIDTH 1200 0
DWIDTH 12 0
BBX 9 8 0 -1
BITMAP
6000
6000
7F80
FF80
1F00
3300
3300
1E00
ENDCHAR
STARTCHAR B192
ENCODING 13172
SWIDTH 1200 0
DWIDTH 12 0
BBX 10 8 0 -1
BITMAP
6000
6000
7F80
FFC0
0000
7F80
3300
7F80
ENDCHAR
STARTCHAR B193
ENCODING 13173
SWIDTH 1200 0
DWIDTH 12 0
BBX 10 8 0 -1
BITMAP
6000
6000
7F80
FFC0
0000
7F80
3300
1E00
ENDCHAR
STARTCHAR B194
ENCODING 13174
SWIDTH 1200 0
DWIDTH 12 0
BBX 10 8 0 -1
BITMAP
6180
6180
6180
7DC0
1980
1980
FF80
0180
ENDCHAR
STARTCHAR B198
ENCODING 13175
SWIDTH 1200 0
DWIDTH 12 0
BBX 9 8 1 -1
BITMAP
C300
C300
FF80
3300
FF00
6300
6000
7F80
ENDCHAR
STARTCHAR B19C
ENCODING 13176
SWIDTH 1200 0
DWIDTH 12 0
BBX 9 9 1 -1
BITMAP
C000
C300
FF80
3300
FF00
0000
7F00
7F00
7F00
ENDCHAR
STARTCHAR B1A8
ENCODING 13177
SWIDTH 1200 0
DWIDTH 12 0
BBX 9 8 1 -1
BITMAP
C300
C380
3B00
FF00
0000
3600
7700
D900
ENDCHAR
STARTCHAR B1CC
ENCODING 13178
SWIDTH 1200 0
DWIDTH 12 0
BBX 9 8 0 -1
BITMAP
C180
C180
C180
FF80
1980
FF80
0180
0180
ENDCHAR
STARTCHAR B1D0
ENCODING 13179
SWIDTH 1200 0
DWIDTH 12 0
BBX 9 8 0 -1
BITMAP
C180
C180
FF80
1980
FF80
6180
6000
7F80
ENDCHAR
STARTCHAR B1D4
ENCODING 13180
SWIDTH 1200 0
DWIDTH 12 0
BBX 9 8 0 -1
BITMAP
C180
FD80
1980
FF80
0000
7F80
7F80
7F80
ENDCHAR
STARTCHAR B1DC
ENCODING 13181
SWIDTH 1200 0
DWIDTH 12 0
BBX 9 8 0 -1
BITMAP
C180
C180
FF80
FF80
0000
7F80
6180
7F80
ENDCHAR
STARTCHAR B1DD
ENCODING 13182
SWIDTH 1200 0
DWIDTH 12 0
BBX 9 8 0 -1
BITMAP
C180
C180
FF80
FF80
0000
6180
7F80
7F80
ENDCHAR
STARTCHAR B1DF
ENCODING 13345
SWIDTH 1200 0
DWIDTH 12 0
BBX 9 8 0 -1
BITMAP
C180
C180
FF80
1980
FF80
1D80
7E00
7380
ENDCHAR
STARTCHAR B1E8
ENCODING 13346
SWIDTH 1200 0
DWIDTH 12 0
BBX 10 8 0 -1
BITMAP
6000
6000
6000
7F80
0000
3300
3300
FFC0
ENDCHAR
STARTCHAR B1E9
ENCODING 13347
SWIDTH 1200 0
DWIDTH 12 0
BBX 10 8 0 -1
BITMAP
6000
6000
7F80
FFC0
0000
7F80
0180
0180
ENDCHAR
STARTCHAR B1EC
ENCODING 13348
SWIDTH 1200 0
DWIDTH 12 0
BBX 10 8 0 -1
BITMAP
6000
6000
7F80
1700
FFC0
6000
6000
7F80
ENDCHAR
STARTCHAR B1F0
ENCODING 13349
SWIDTH 1200 0
DWIDTH 12 0
BBX 10 8 0 -1
BITMAP
6000
7F80
1700
FFC0
0000
7F80
7F80
7F80
ENDCHAR
STARTCHAR B1F9
ENCODING 13350
SWIDTH 1200 0
DWIDTH 12 0
BBX 10 8 0 -1
BITMAP
6000
6000
7F80
FFC0
0000
6180
7F80
7F80
ENDCHAR
STARTCHAR B1FB
ENCODING 13351
SWIDTH 1200 0
DWIDTH 12 0
BBX 9 8 0 -1
BITMAP
6000
6000
7F80
B700
4880
0C00
3F00
6180
ENDCHAR
STARTCHAR B1FD
ENCODING 13352
SWIDTH 1200 0
DWIDTH 12 0
BBX 9 8 0 -1
BITMAP
6000
6000
7F80
FF80
1300
3300
3300
1E00
ENDCHAR
STARTCHAR B204
ENCODING 13353
SWIDTH 1200 0
DWIDTH 12 0
BBX 9 8 0 -1
BITMAP
6000
6000
7F80
0000
FF80
0C00
0C00
0C00
ENDCHAR
STARTCHAR B205
ENCODING 13354
SWIDTH 1200 0
DWIDTH 12 0
BBX 9 8 1 -1
BITMAP
C000
C000
FF00
FF80
1800
FF00
0300
0300
ENDCHAR
STARTCHAR B208
ENCODING 13355
SWIDTH 1200 0
DWIDTH 12 0
BBX 9 8 0 -1
BITMAP
6000
6000
7F80
0000
FF80
6C00
6000
7F80
ENDCHAR
STARTCHAR B20B
ENCODING 13356
SWIDTH 1200 0
DWIDTH 12 0
BBX 9 8 0 -1
BITMAP
6000
6000
7F80
FF80
0C00
7F80
6000
7F80
ENDCHAR
STARTCHAR B20C
ENCODING 13357
SWIDTH 1200 0
DWIDTH 12 0
BBX 9 8 0 -1
BITMAP
6000
7F80
0000
FF80
0C00
7F80
7F80
7F80
ENDCHAR
STARTCHAR B214
ENCODING 13358
SWIDTH 1200 0
DWIDTH 12 0
BBX 9 8 0 -1
BITMAP
6000
6000
7F80
FF80
0C00
7F80
6180
7F80
ENDCHAR
STARTCHAR B215
ENCODING 13359
SWIDTH 1200 0
DWIDTH 12 0
BBX 10 8 0 -1
BITMAP
6000
6000
7F80
FFC0
0C00
6180
7F80
7F80
ENDCHAR
STARTCHAR B217
ENCODING 13360
SWIDTH 1200 0
DWIDTH 12 0
BBX 9 8 0 -1
BITMAP
6000
7F80
0000
FF80
0C00
0C00
FF00
6300
ENDCHAR
STARTCHAR B219
ENCODING 13361
SWIDTH 1200 0
DWIDTH 12 0
BBX 9 8 0 -1
BITMAP
6000
6000
7F80
FF80
1C00
3600
3200
1E00
ENDCHAR
STARTCHAR B220
ENCODING 13362
SWIDTH 1200 0
DWIDTH 12 0
BBX 9 9 0 -1
BITMAP
6000
6180
6180
7F80
0180
FF80
1980
1F80
1980
ENDCHAR
STARTCHAR B234
ENCODING 13363
SWIDTH 1200 0
DWIDTH 12 0
BBX 9 9 0 -1
BITMAP
C000
C180
F980
0380
FD80
0180
3300
7F80
4D80
ENDCHAR
STARTCHAR B23C
ENCODING 13364
SWIDTH 1200 0
DWIDTH 12 0
BBX 9 9 0 -1
BITMAP
C000
C780
C780
FF80
0780
FF80
3780
3F80
3780
ENDCHAR
STARTCHAR B258
ENCODING 13365
SWIDTH 1200 0
DWIDTH 12 0
BBX 9 10 0 -2
BITMAP
6000
6180
6180
7F80
0180
FF80
1980
1980
1980
0180
ENDCHAR
STARTCHAR B25C
ENCODING 13366
SWIDTH 1200 0
DWIDTH 12 0
BBX 9 8 0 -1
BITMAP
6180
6180
7F80
FF80
1980
6000
6000
7F80
ENDCHAR
STARTCHAR B260
ENCODING 13367
SWIDTH 1200 0
DWIDTH 12 0
BBX 9 9 0 -1
BITMAP
C000
C180
FD80
0180
FF80
0000
7F80
7F80
7F80
ENDCHAR
STARTCHAR B268
ENCODING 13368
SWIDTH 1200 0
DWIDTH 12 0
BBX 9 9 0 -1
BITMAP
C000
C180
FD80
0180
FF80
1980
7F80
6180
7F80
ENDCHAR
STARTCHAR B269
ENCODING 13369
SWIDTH 1200 0
DWIDTH 12 0
BBX 9 9 0 -1
BITMAP
C000
C180
FD80
0180
FF80
0000
6180
7F80
7F80
ENDCHAR
STARTCHAR B274
ENCODING 13370
SWIDTH 1200 0
DWIDTH 12 0
BBX 10 8 0 -1
BITMAP
6000
6000
7F80
0000
FFC0
3300
3300
3300
ENDCHAR
STARTCHAR B275
ENCODING 13371
SWIDTH 1200 0
DWIDTH 12 0
BBX 9 8 1 -1
BITMAP
C000
C000
FF00
FF80
6600
FF00
0300
0300
ENDCHAR
STARTCHAR B27C
ENCODING 13372
SWIDTH 1200 0
DWIDTH 12 0
BBX 9 8 0 -1
BITMAP
6000
7F80
0000
FF80
7F80
0180
7F80
7F80
ENDCHAR
STARTCHAR B284
ENCODING 13373
SWIDTH 1200 0
DWIDTH 12 0
BBX 10 8 0 -1
BITMAP
6000
6000
7F80
FFC0
3300
7F80
6180
7F80
ENDCHAR
STARTCHAR B285
ENCODING 13374
SWIDTH 1200 0
DWIDTH 12 0
BBX 10 8 0 -1
BITMAP
6000
6000
7F80
FFC0
1E00
6180
7F80
7F80
ENDCHAR
STARTCHAR B289
ENCODING 13375
SWIDTH 1200 0
DWIDTH 12 0
BBX 9 8 0 -1
BITMAP
6000
7F80
0000
FF80
3F00
3600
3200
1E00
ENDCHAR
STARTCHAR B290
ENCODING 13376
SWIDTH 1200 0
DWIDTH 12 0
BBX 9 8 0 -1
BITMAP
6000
6000
6000
6000
7F80
0000
0000
FF80
ENDCHAR
STARTCHAR B291
ENCODING 13377
SWIDTH 1200 0
DWIDTH 12 0
BBX 9 8 0 -1
BITMAP
6000
6000
7F80
FF80
0000
7F80
0180
0180
ENDCHAR
STARTCHAR B294
ENCODING 13378
SWIDTH 1200 0
DWIDTH 12 0
BBX 9 8 0 -1
BITMAP
6000
6000
7F80
0000
FF80
6000
6000
7F80
ENDCHAR
STARTCHAR B298
ENCODING 13379
SWIDTH 1200 0
DWIDTH 12 0
BBX 9 8 0 -1
BITMAP
6000
7F80
0000
FF80
7F80
0180
7F80
7F80
ENDCHAR
STARTCHAR B299
ENCODING 13380
SWIDTH 1200 0
DWIDTH 12 0
BBX 9 8 0 -1
BITMAP
6000
7F80
0000
FF80
7F80
1980
7980
7980
ENDCHAR
STARTCHAR B29A
ENCODING 13381
SWIDTH 1200 0
DWIDTH 12 0
BBX 9 8 0 -1
BITMAP
6000
7F80
0000
FF80
7780
7780
7780
7F80
ENDCHAR
STARTCHAR B2A0
ENCODING 13382
SWIDTH 1200 0
DWIDTH 12 0
BBX 9 8 0 -1
BITMAP
6000
6000
7F80
FF80
0000
7F80
6180
7F80
ENDCHAR
STARTCHAR B2A1
ENCODING 13383
SWIDTH 1200 0
DWIDTH 12 0
BBX 9 8 0 -1
BITMAP
6000
6000
7F80
FF80
0000
6180
7F80
7F80
ENDCHAR
STARTCHAR B2A3
ENCODING 13384
SWIDTH 1200 0
DWIDTH 12 0
BBX 9 8 0 -1
BITMAP
6000
6000
7F80
0000
FF80
1E00
7F80
6100
ENDCHAR
STARTCHAR B2A5
ENCODING 13385
SWIDTH 1200 0
DWIDTH 12 0
BBX 9 8 0 -1
BITMAP
6000
6000
7F80
FF80
1F00
3300
3300
1E00
ENDCHAR
STARTCHAR B2A6
ENCODING 13386
SWIDTH 1200 0
DWIDTH 12 0
BBX 9 8 0 -1
BITMAP
6000
6000
7F80
FF80
0000
7F80
0C00
7380
ENDCHAR
STARTCHAR B2AA
ENCODING 13387
SWIDTH 1200 0
DWIDTH 12 0
BBX 9 8 0 -1
BITMAP
6000
6000
7F80
FF80
0000
7F80
3300
7F80
ENDCHAR
STARTCHAR B2AC
ENCODING 13388
SWIDTH 1200 0
DWIDTH 12 0
BBX 9 8 0 -1
BITMAP
6180
6180
6180
7F80
0180
FF80
0180
0180
ENDCHAR
STARTCHAR B2B0
ENCODING 13389
SWIDTH 1200 0
DWIDTH 12 0
BBX 9 8 0 -1
BITMAP
6180
6180
7F80
0180
FF80
6180
6000
7F80
ENDCHAR
STARTCHAR B2B4
ENCODING 13390
SWIDTH 1200 0
DWIDTH 12 0
BBX 9 9 0 -1
BITMAP
C000
C180
FD80
0180
FF80
0000
7F80
7F80
7F80
ENDCHAR
STARTCHAR B2C8
ENCODING 13391
SWIDTH 1200 0
DWIDTH 12 0
BBX 8 8 1 -1
BITMAP
C3
C3
C3
C3
C3
FF
03
03
ENDCHAR
STARTCHAR B2C9
ENCODING 13392
SWIDTH 1200 0
DWIDTH 12 0
BBX 9 8 0 -1
BITMAP
C180
C180
C180
FF80
0180
7F80
0180
0180
ENDCHAR
STARTCHAR B2CC
ENCODING 13393
SWIDTH 1200 0
DWIDTH 12 0
BBX 9 8 0 -1
BITMAP
C180
C180
C180
FF80
0180
6000
6000
7F80
ENDCHAR
STARTCHAR B2D0
ENCODING 13394
SWIDTH 1200 0
DWIDTH 12 0
BBX 9 9 0 -1
BITMAP
C000
C180
C180
FF80
0000
7F80
0180
7F80
7F80
ENDCHAR
STARTCHAR B2D2
ENCODING 13395
SWIDTH 1200 0
DWIDTH 12 0
BBX 9 9 0 -1
BITMAP
C000
C180
C180
FF80
0000
7F80
1F80
7F80
7F80
ENDCHAR
STARTCHAR B2D8
ENCODING 13396
SWIDTH 1200 0
DWIDTH 12 0
BBX 9 8 0 -1
BITMAP
C180
C180
C180
FF80
0180
7F80
6180
7F80
ENDCHAR
STARTCHAR B2D9
ENCODING 13397
SWIDTH 1200 0
DWIDTH 12 0
BBX 9 8 0 -1
BITMAP
C180
C180
C180
FF80
6180
7F80
6180
7F80
ENDCHAR
STARTCHAR B2DB
ENCODING 13398
SWIDTH 1200 0
DWIDTH 12 0
BBX 9 8 0 -1
BITMAP
C180
C180
C180
FF80
0180
0C00
3380
6100
ENDCHAR
STARTCHAR B2DD
ENCODING 13399
SWIDTH 1200 0
DWIDTH 12 0
BBX 9 8 0 -1
BITMAP
C180
C180
C180
FF80
0F80
1980
1980
0F00
ENDCHAR
STARTCHAR B2E2
ENCODING 13400
SWIDTH 1200 0
DWIDTH 12 0
BBX 9 8 0 -1
BITMAP
C180
C180
C180
FF80
0000
7F80
3300
7F80
ENDCHAR
STARTCHAR B2E4
ENCODING 13401
SWIDTH 1200 0
DWIDTH 12 0
BBX 9 8 1 -1
BITMAP
FB00
C300
C300
C380
C300
FF00
0300
0300
ENDCHAR
STARTCHAR B2E5
ENCODING 13402
SWIDTH 1200 0
DWIDTH 12 0
BBX 9 8 1 -1
BITMAP
FB00
C300
C380
FF00
0000
7F00
0300
0300
ENDCHAR
STARTCHAR B2E6
ENCODING 13403
SWIDTH 1200 0
DWIDTH 12 0
BBX 9 8 1 -1
BITMAP
FB00
C300
C380
FF00
0000
FF00
3300
3300
ENDCHAR
STARTCHAR B2E8
ENCODING 13404
SWIDTH 1200 0
DWIDTH 12 0
BBX 9 8 1 -1
BITMAP
FB00
C300
C380
FF00
0300
C000
C000
FE00
ENDCHAR
STARTCHAR B2EB
ENCODING 13405
SWIDTH 1200 0
DWIDTH 12 0
BBX 9 8 1 -1
BITMAP
FB00
C300
C380
FF00
0000
FE00
C000
FE00
ENDCHAR
STARTCHAR B2EC
ENCODING 13406
SWIDTH 1200 0
DWIDTH 12 0
BBX 9 8 1 -1
BITMAP
FB00
C380
C300
FF00
7F00
0300
7F00
7F00
ENDCHAR
STARTCHAR B2ED
ENCODING 13407
SWIDTH 1200 0
DWIDTH 12 0
BBX 9 8 1 -1
BITMAP
FB00
C380
C300
FF00
FF00
3300
F300
F300
ENDCHAR
STARTCHAR B2EE
ENCODING 13408
SWIDTH 1200 0
DWIDTH 12 0
BBX 9 8 1 -1
BITMAP
FB00
C380
C300
FF00
FF00
FF00
FF00
FF00
ENDCHAR
STARTCHAR B2EF
ENCODING 13409
SWIDTH 1200 0
DWIDTH 12 0
BBX 9 8 1 -1
BITMAP
FB00
C380
C300
FF00
FF00
FF00
FF00
FF00
ENDCHAR
STARTCHAR B2F3
ENCODING 13410
SWIDTH 1200 0
DWIDTH 12 0
BBX 9 8 1 -1
BITMAP
FB00
C380
C300
FF00
F600
FF00
FD00
FF00
ENDCHAR
STARTCHAR B2F4
ENCODING 13411
SWIDTH 1200 0
DWIDTH 12 0
BBX 9 8 1 -1
BITMAP
FB00
C300
C380
FF00
0000
FF00
C300
FF00
ENDCHAR
STARTCHAR B2F5
ENCODING 13412
SWIDTH 1200 0
DWIDTH 12 0
BBX 9 8 1 -1
BITMAP
FB00
C300
C380
FF00
C300
FF00
C300
FF00
ENDCHAR
STARTCHAR B2F7
ENCODING 13413
SWIDTH 1200 0
DWIDTH 12 0
BBX 9 8 1 -1
BITMAP
0300
FB00
C380
FF00
0300
1800
6700
C200
ENDCHAR
STARTCHAR B2F8
ENCODING 13414
SWIDTH 1200 0
DWIDTH 12 0
BBX 9 8 1 -1
BITMAP
FB00
C300
C380
FF00
3600
7600
FF80
9900
ENDCHAR
STARTCHAR B2F9
ENCODING 13415
SWIDTH 1200 0
DWIDTH 12 0
BBX 9 8 1 -1
BITMAP
FB00
C300
C380
FF00
1F00
3300
3300
1E00
ENDCHAR
STARTCHAR B2FA
ENCODING 13416
SWIDTH 1200 0
DWIDTH 12 0
BBX 9 8 1 -1
BITMAP
FB00
C300
C380
FF00
0000
FF00
1800
E700
ENDCHAR
STARTCHAR B2FB
ENCODING 13417
SWIDTH 1200 0
DWIDTH 12 0
BBX 9 8 1 -1
BITMAP
FB00
C380
C300
FF00
0300
7F00
1800
F700
ENDCHAR
STARTCHAR B2FF
ENCODING 13418
SWIDTH 1200 0
DWIDTH 12 0
BBX 9 8 1 -1
BITMAP
FB00
C380
C300
FF00
1B00
E700
6600
3C00
ENDCHAR
STARTCHAR B300
ENCODING 13419
SWIDTH 1200 0
DWIDTH 12 0
BBX 9 8 0 -1
BITMAP
FD80
CD80
CD80
CF80
CD80
FD80
0D80
0D80
ENDCHAR
STARTCHAR B301
ENCODING 13420
SWIDTH 1200 0
DWIDTH 12 0
BBX 9 8 0 -1
BITMAP
F780
C780
C780
FF80
0000
7F80
0180
0180
ENDCHAR
STARTCHAR B304
ENCODING 13421
SWIDTH 1200 0
DWIDTH 12 0
BBX 9 8 0 -1
BITMAP
F780
C780
C780
FF80
0780
6000
6000
7F80
ENDCHAR
STARTCHAR B308
ENCODING 13422
SWIDTH 1200 0
DWIDTH 12 0
BBX 9 8 0 -1
BITMAP
F780
C780
C780
FF80
7F80
0180
7F80
7F80
ENDCHAR
STARTCHAR B310
ENCODING 13423
SWIDTH 1200 0
DWIDTH 12 0
BBX 9 8 0 -1
BITMAP
F780
C780
C780
FF80
0000
7F80
6180
7F80
ENDCHAR
STARTCHAR B311
ENCODING 13424
SWIDTH 1200 0
DWIDTH 12 0
BBX 9 8 0 -1
BITMAP
F780
C780
C780
FF80
6180
7F80
6180
7F80
ENDCHAR
STARTCHAR B313
ENCODING 13425
SWIDTH 1200 0
DWIDTH 12 0
BBX 9 8 0 -1
BITMAP
F780
C780
FF80
0780
0180
0C00
3F00
6380
ENDCHAR
STARTCHAR B314
ENCODING 13426
SWIDTH 1200 0
DWIDTH 12 0
BBX 9 8 0 -1
BITMAP
F780
C780
C780
FF80
3300
3F00
7F80
4C80
ENDCHAR
STARTCHAR B315
ENCODING 13427
SWIDTH 1200 0
DWIDTH 12 0
BBX 9 8 0 -1
BITMAP
F780
C780
C780
FF80
0F00
1980
1980
0F00
ENDCHAR
STARTCHAR B31C
ENCODING 13428
SWIDTH 1200 0
DWIDTH 12 0
BBX 9 8 1 -1
BITMAP
FB00
C380
C300
C300
C380
FF00
0300
0300
ENDCHAR
STARTCHAR B354
ENCODING 13429
SWIDTH 1200 0
DWIDTH 12 0
BBX 8 8 1 -1
BITMAP
FB
C3
C3
CF
C3
FF
03
03
ENDCHAR
STARTCHAR B355
ENCODING 13430
SWIDTH 1200 0
DWIDTH 12 0
BBX 9 8 0 -1
BITMAP
FD80
C780
C180
FD80
0000
7F80
0180
0180
ENDCHAR
STARTCHAR B356
ENCODING 13431
SWIDTH 1200 0
DWIDTH 12 0
BBX 9 8 0 -1
BITMAP
FD80
C780
C180
FD80
0000
F780
3180
3180
ENDCHAR
STARTCHAR B358
ENCODING 13432
SWIDTH 1200 0
DWIDTH 12 0
BBX 9 8 0 -1
BITMAP
FD80
C180
C780
FD80
0180
6180
6000
7F80
ENDCHAR
STARTCHAR B35B
ENCODING 13433
SWIDTH 1200 0
DWIDTH 12 0
BBX 9 8 0 -1
BITMAP
FD80
C780
C180
FD80
0000
7F80
6000
7F80
ENDCHAR
STARTCHAR B35C
ENCODING 13434
SWIDTH 1200 0
DWIDTH 12 0
BBX 9 8 0 -1
BITMAP
FD80
C780
C180
FD80
7F80
0180
7F80
3F80
ENDCHAR
STARTCHAR B35E
ENCODING 13435
SWIDTH 1200 0
DWIDTH 12 0
BBX 9 8 0 -1
BITMAP
FD80
C780
C180
FD80
7780
1780
7780
7F80
ENDCHAR
STARTCHAR B35F
ENCODING 13436
SWIDTH 1200 0
DWIDTH 12 0
BBX 9 8 0 -1
BITMAP
FD80
C780
C180
FD80
7780
1780
7780
7F80
ENDCHAR
STARTCHAR B364
ENCODING 13437
SWIDTH 1200 0
DWIDTH 12 0
BBX 9 8 0 -1
BITMAP
FD80
C780
C180
FD80
0000
7F80
6180
7F80
ENDCHAR
STARTCHAR B365
ENCODING 13438
SWIDTH 1200 0
DWIDTH 12 0
BBX 9 8 0 -1
BITMAP
FD80
C780
C180
FD80
6180
7F80
6180
7F80
ENDCHAR
STARTCHAR B367
ENCODING 13601
SWIDTH 1200 0
DWIDTH 12 0
BBX 9 8 0 -1
BITMAP
FD80
C180
C780
E180
1D80
1E00
7380
6100
ENDCHAR
STARTCHAR B369
ENCODING 13602
SWIDTH 1200 0
DWIDTH 12 0
BBX 9 8 0 -1
BITMAP
FD80
C180
C780
FD80
1F80
1980
1980
0F00
ENDCHAR
STARTCHAR B36B
ENCODING 13603
SWIDTH 1200 0
DWIDTH 12 0
BBX 9 8 0 -1
BITMAP
FD80
C180
C780
FD80
0D80
7F80
0E00
7B80
ENDCHAR
STARTCHAR B36E
ENCODING 13604
SWIDTH 1200 0
DWIDTH 12 0
BBX 9 8 0 -1
BITMAP
FD80
C180
C780
FD80
0180
7F80
3300
7F80
ENDCHAR
STARTCHAR B370
ENCODING 13605
SWIDTH 1200 0
DWIDTH 12 0
BBX 9 8 0 -1
BITMAP
F780
C780
C780
CF80
C780
F780
0780
0780
ENDCHAR
STARTCHAR B371
ENCODING 13606
SWIDTH 1200 0
DWIDTH 12 0
BBX 9 8 0 -1
BITMAP
F780
C780
CF80
F780
0780
7F80
0180
0180
ENDCHAR
STARTCHAR B374
ENCODING 13607
SWIDTH 1200 0
DWIDTH 12 0
BBX 9 8 0 -1
BITMAP
F780
C780
CF80
C780
F780
6780
6000
7F80
ENDCHAR
STARTCHAR B378
ENCODING 13608
SWIDTH 1200 0
DWIDTH 12 0
BBX 9 8 0 -1
BITMAP
F780
CF80
C780
F780
7F80
0180
7F80
7F80
ENDCHAR
STARTCHAR B380
ENCODING 13609
SWIDTH 1200 0
DWIDTH 12 0
BBX 9 8 0 -1
BITMAP
F780
C780
CF80
F780
0780
7F80
6180
7F80
ENDCHAR
STARTCHAR B381
ENCODING 13610
SWIDTH 1200 0
DWIDTH 12 0
BBX 9 8 0 -1
BITMAP
F780
C780
CF80
F780
0600
6180
7F80
7F80
ENDCHAR
STARTCHAR B383
ENCODING 13611
SWIDTH 1200 0
DWIDTH 12 0
BBX 9 8 0 -1
BITMAP
F780
C780
C780
F780
0D80
0C00
7F80
6100
ENDCHAR
STARTCHAR B384
ENCODING 13612
SWIDTH 1200 0
DWIDTH 12 0
BBX 9 8 0 -1
BITMAP
F780
C780
CF80
F780
3700
3F00
7F80
4C80
ENDCHAR
STARTCHAR B385
ENCODING 13613
SWIDTH 1200 0
DWIDTH 12 0
BBX 9 8 0 -1
BITMAP
F780
C780
CF80
FF80
1F00
3980
1980
0F00
ENDCHAR
STARTCHAR B38C
ENCODING 13614
SWIDTH 1200 0
DWIDTH 12 0
BBX 8 8 1 -1
BITMAP
FB
C3
CF
C3
CF
FF
03
03
ENDCHAR
STARTCHAR B390
ENCODING 13615
SWIDTH 1200 0
DWIDTH 12 0
BBX 9 8 0 -1
BITMAP
F980
C380
C180
C380
F980
6180
6000
7F80
ENDCHAR
STARTCHAR B394
ENCODING 13616
SWIDTH 1200 0
DWIDTH 12 0
BBX 9 8 0 -1
BITMAP
FB80
C180
C380
F980
7F80
0180
7F80
7F80
ENDCHAR
STARTCHAR B3A0
ENCODING 13617
SWIDTH 1200 0
DWIDTH 12 0
BBX 9 8 0 -1
BITMAP
FB80
C180
C380
F980
3300
3F00
7F80
4C80
ENDCHAR
STARTCHAR B3A1
ENCODING 13618
SWIDTH 1200 0
DWIDTH 12 0
BBX 9 8 0 -1
BITMAP
F980
C380
C380
FD80
1F00
3980
1980
0F00
ENDCHAR
STARTCHAR B3A8
ENCODING 13619
SWIDTH 1200 0
DWIDTH 12 0
BBX 9 8 0 -1
BITMAP
F780
C780
CF80
CF80
C780
F780
0780
0780
ENDCHAR
STARTCHAR B3AC
ENCODING 13620
SWIDTH 1200 0
DWIDTH 12 0
BBX 9 8 0 -1
BITMAP
F780
CF80
CF80
FF80
0F80
6780
6000
7F80
ENDCHAR
STARTCHAR B3C4
ENCODING 13621
SWIDTH 1200 0
DWIDTH 12 0
BBX 10 8 0 -1
BITMAP
7F80
6000
6000
6000
7F80
0C00
0C00
FFC0
ENDCHAR
STARTCHAR B3C5
ENCODING 13622
SWIDTH 1200 0
DWIDTH 12 0
BBX 10 8 0 -1
BITMAP
7F80
6000
7F80
0C00
FFC0
7F80
0180
0180
ENDCHAR
STARTCHAR B3C8
ENCODING 13623
SWIDTH 1200 0
DWIDTH 12 0
BBX 10 8 0 -1
BITMAP
7F80
6000
7F80
0C00
FFC0
6000
6000
7F80
ENDCHAR
STARTCHAR B3CB
ENCODING 13624
SWIDTH 1200 0
DWIDTH 12 0
BBX 10 8 0 -1
BITMAP
7F80
6000
7F80
0C00
FFC0
7F80
6000
7F80
ENDCHAR
STARTCHAR B3CC
ENCODING 13625
SWIDTH 1200 0
DWIDTH 12 0
BBX 9 8 0 -1
BITMAP
7F80
6000
7F80
FF80
0000
7F80
7F80
7F80
ENDCHAR
STARTCHAR B3CE
ENCODING 13626
SWIDTH 1200 0
DWIDTH 12 0
BBX 9 8 0 -1
BITMAP
7F80
6000
7F80
FF80
0780
7F80
7F80
7F80
ENDCHAR
STARTCHAR B3D0
ENCODING 13627
SWIDTH 1200 0
DWIDTH 12 0
BBX 9 8 0 -1
BITMAP
7F80
6000
7F80
FF80
7800
1B00
7F80
7C80
ENDCHAR
STARTCHAR B3D4
ENCODING 13628
SWIDTH 1200 0
DWIDTH 12 0
BBX 10 8 0 -1
BITMAP
7F80
6000
7F80
0C00
FFC0
7F80
6180
7F80
ENDCHAR
STARTCHAR B3D5
ENCODING 13629
SWIDTH 1200 0
DWIDTH 12 0
BBX 10 8 0 -1
BITMAP
7F80
6000
7F80
0C00
FFC0
6180
7F80
7F80
ENDCHAR
STARTCHAR B3D7
ENCODING 13630
SWIDTH 1200 0
DWIDTH 12 0
BBX 10 7 0 -1
BITMAP
7F80
6000
FFC0
0000
0C00
3F00
6180
ENDCHAR
STARTCHAR B3D9
ENCODING 13631
SWIDTH 1200 0
DWIDTH 12 0
BBX 9 8 0 -1
BITMAP
7F80
6000
7F80
0C00
FF80
3300
3300
1E00
ENDCHAR
STARTCHAR B3DB
ENCODING 13632
SWIDTH 1200 0
DWIDTH 12 0
BBX 10 8 0 -1
BITMAP
7F80
6000
7F80
0C00
FFC0
7F80
7C00
7780
ENDCHAR
STARTCHAR B3DD
ENCODING 13633
SWIDTH 1200 0
DWIDTH 12 0
BBX 9 8 0 -1
BITMAP
7F80
6000
7F80
FF80
0000
7F80
7F80
7F80
ENDCHAR
STARTCHAR B3E0
ENCODING 13634
SWIDTH 1200 0
DWIDTH 12 0
BBX 9 8 1 -1
BITMAP
FF00
C300
C300
FF80
3300
FF00
0300
0300
ENDCHAR
STARTCHAR B3E4
ENCODING 13635
SWIDTH 1200 0
DWIDTH 12 0
BBX 9 8 1 -1
BITMAP
FF00
C300
FF80
3300
FF00
0300
C000
FF00
ENDCHAR
STARTCHAR B3E8
ENCODING 13636
SWIDTH 1200 0
DWIDTH 12 0
BBX 9 8 1 -1
BITMAP
FF00
C300
FF80
FF00
0000
7F00
7F00
7F00
ENDCHAR
STARTCHAR B3FC
ENCODING 13637
SWIDTH 1200 0
DWIDTH 12 0
BBX 9 8 0 -1
BITMAP
F780
C780
C780
FF80
3780
FF80
0780
0780
ENDCHAR
STARTCHAR B410
ENCODING 13638
SWIDTH 1200 0
DWIDTH 12 0
BBX 9 8 0 -1
BITMAP
7F80
4780
7F80
B780
4800
3300
7F80
4D80
ENDCHAR
STARTCHAR B418
ENCODING 13639
SWIDTH 1200 0
DWIDTH 12 0
BBX 9 8 0 -1
BITMAP
7F80
6180
6180
7F80
1980
FF80
0180
0180
ENDCHAR
STARTCHAR B41C
ENCODING 13640
SWIDTH 1200 0
DWIDTH 12 0
BBX 9 8 0 -1
BITMAP
FD80
C180
FD80
1980
FF80
6180
6000
7F80
ENDCHAR
STARTCHAR B420
ENCODING 13641
SWIDTH 1200 0
DWIDTH 12 0
BBX 9 8 0 -1
BITMAP
7D80
4180
7D80
FF80
0000
7F80
7F80
7F80
ENDCHAR
STARTCHAR B428
ENCODING 13642
SWIDTH 1200 0
DWIDTH 12 0
BBX 9 8 0 -1
BITMAP
FD80
C180
FD80
1980
FF80
7F80
6180
3F80
ENDCHAR
STARTCHAR B429
ENCODING 13643
SWIDTH 1200 0
DWIDTH 12 0
BBX 9 8 0 -1
BITMAP
7D80
4180
7D80
FF80
0000
6180
7F80
7F80
ENDCHAR
STARTCHAR B42B
ENCODING 13644
SWIDTH 1200 0
DWIDTH 12 0
BBX 9 8 0 -1
BITMAP
7D80
4180
7D80
1980
FF80
1E00
7380
6100
ENDCHAR
STARTCHAR B434
ENCODING 13645
SWIDTH 1200 0
DWIDTH 12 0
BBX 10 8 0 -1
BITMAP
7F80
6000
6000
7F80
0000
3300
3300
FFC0
ENDCHAR
STARTCHAR B450
ENCODING 13646
SWIDTH 1200 0
DWIDTH 12 0
BBX 10 8 0 -1
BITMAP
7F80
6000
6000
7F80
0000
FFC0
0C00
0C00
ENDCHAR
STARTCHAR B451
ENCODING 13647
SWIDTH 1200 0
DWIDTH 12 0
BBX 9 8 1 -1
BITMAP
FF00
C000
FF00
0000
FF80
FF00
0300
0300
ENDCHAR
STARTCHAR B454
ENCODING 13648
SWIDTH 1200 0
DWIDTH 12 0
BBX 9 8 0 -1
BITMAP
7F80
6000
7F80
0000
FF80
6C00
6000
7F80
ENDCHAR
STARTCHAR B458
ENCODING 13649
SWIDTH 1200 0
DWIDTH 12 0
BBX 9 8 0 -1
BITMAP
7F80
6000
7F80
FF80
0C00
7F80
7F80
7F80
ENDCHAR
STARTCHAR B460
ENCODING 13650
SWIDTH 1200 0
DWIDTH 12 0
BBX 9 8 1 -1
BITMAP
FF00
C000
FF00
0000
FF80
FF00
C300
FF00
ENDCHAR
STARTCHAR B461
ENCODING 13651
SWIDTH 1200 0
DWIDTH 12 0
BBX 9 8 0 -1
BITMAP
7F80
6000
7F80
0000
FF80
6180
7F80
7F80
ENDCHAR
STARTCHAR B463
ENCODING 13652
SWIDTH 1200 0
DWIDTH 12 0
BBX 9 8 0 -1
BITMAP
7F80
6000
7F80
0000
FF80
0C00
FF80
6300
ENDCHAR
STARTCHAR B465
ENCODING 13653
SWIDTH 1200 0
DWIDTH 12 0
BBX 9 8 0 -1
BITMAP
7F80
6000
7F80
FF80
1C00
3E00
3200
1E00
ENDCHAR
STARTCHAR B46C
ENCODING 13654
SWIDTH 1200 0
DWIDTH 12 0
BBX 9 8 0 -1
BITMAP
FD80
C180
FD80
0180
FF80
1980
1F80
1980
ENDCHAR
STARTCHAR B480
ENCODING 13655
SWIDTH 1200 0
DWIDTH 12 0
BBX 9 8 0 -1
BITMAP
FD80
C380
7D80
FF80
0000
3300
7F80
4D80
ENDCHAR
STARTCHAR B488
ENCODING 13656
SWIDTH 1200 0
DWIDTH 12 0
BBX 9 8 0 -1
BITMAP
F780
C780
F780
0780
FF80
3780
3F80
3780
ENDCHAR
STARTCHAR B49D
ENCODING 13657
SWIDTH 1200 0
DWIDTH 12 0
BBX 9 8 0 -1
BITMAP
F780
C780
FF80
FF80
3F80
1F00
1300
1F00
ENDCHAR
STARTCHAR B4A4
ENCODING 13658
SWIDTH 1200 0
DWIDTH 12 0
BBX 9 8 0 -1
BITMAP
7F80
6180
7F80
0180
FF80
1980
1980
1980
ENDCHAR
STARTCHAR B4A8
ENCODING 13659
SWIDTH 1200 0
DWIDTH 12 0
BBX 9 8 0 -1
BITMAP
7F80
6180
7F80
0180
FF80
7980
6000
7F80
ENDCHAR
STARTCHAR B4AC
ENCODING 13660
SWIDTH 1200 0
DWIDTH 12 0
BBX 9 8 0 -1
BITMAP
7D80
6180
7D80
FF80
1800
7F80
7F80
7F80
ENDCHAR
STARTCHAR B4B5
ENCODING 13661
SWIDTH 1200 0
DWIDTH 12 0
BBX 9 8 0 -1
BITMAP
7D80
6180
7D80
FF80
1800
7F80
6180
7F80
ENDCHAR
STARTCHAR B4B7
ENCODING 13662
SWIDTH 1200 0
DWIDTH 12 0
BBX 10 8 0 -1
BITMAP
7D80
6180
7D80
0180
FF80
3780
3FC0
3080
ENDCHAR
STARTCHAR B4B9
ENCODING 13663
SWIDTH 1200 0
DWIDTH 12 0
BBX 9 8 0 -1
BITMAP
7D80
6180
7D80
0180
FF80
1F00
1300
1F00
ENDCHAR
STARTCHAR B4C0
ENCODING 13664
SWIDTH 1200 0
DWIDTH 12 0
BBX 10 8 0 -1
BITMAP
7F80
6000
7F80
0000
FFC0
3300
3300
3300
ENDCHAR
STARTCHAR B4C4
ENCODING 13665
SWIDTH 1200 0
DWIDTH 12 0
BBX 10 8 0 -1
BITMAP
7F80
6000
7F80
0000
FFC0
7B00
6000
7F80
ENDCHAR
STARTCHAR B4C8
ENCODING 13666
SWIDTH 1200 0
DWIDTH 12 0
BBX 9 8 0 -1
BITMAP
7F80
6000
7F80
FF80
3200
7F80
7F80
7F80
ENDCHAR
STARTCHAR B4D0
ENCODING 13667
SWIDTH 1200 0
DWIDTH 12 0
BBX 9 8 0 -1
BITMAP
7F80
6000
7F80
0000
FF80
7F80
6180
7F80
ENDCHAR
STARTCHAR B4D5
ENCODING 13668
SWIDTH 1200 0
DWIDTH 12 0
BBX 9 9 0 -2
BITMAP
7F80
6000
7F80
FF80
3E00
1E00
3F00
3200
1E00
ENDCHAR
STARTCHAR B4DC
ENCODING 13669
SWIDTH 1200 0
DWIDTH 12 0
BBX 9 8 1 -1
BITMAP
FF00
C000
C000
C000
FF00
0000
0000
FF80
ENDCHAR
STARTCHAR B4DD
ENCODING 13670
SWIDTH 1200 0
DWIDTH 12 0
BBX 9 8 0 -1
BITMAP
7F80
6000
7F80
0000
FF80
7F80
0180
0180
ENDCHAR
STARTCHAR B4E0
ENCODING 13671
SWIDTH 1200 0
DWIDTH 12 0
BBX 9 8 0 -1
BITMAP
7F80
6000
7F80
0000
FF80
0000
6000
7F80
ENDCHAR
STARTCHAR B4E3
ENCODING 13672
SWIDTH 1200 0
DWIDTH 12 0
BBX 9 8 0 -1
BITMAP
7F80
6000
7F80
0000
FF80
7F80
6000
7F80
ENDCHAR
STARTCHAR B4E4
ENCODING 13673
SWIDTH 1200 0
DWIDTH 12 0
BBX 9 8 0 -1
BITMAP
7F80
6000
7F80
FF80
0000
7F80
7F80
7F80
ENDCHAR
STARTCHAR B4E6
ENCODING 13674
SWIDTH 1200 0
DWIDTH 12 0
BBX 9 8 0 -1
BITMAP
7F80
6000
7F80
FF80
0000
7F80
7F80
7F80
ENDCHAR
STARTCHAR B4EC
ENCODING 13675
SWIDTH 1200 0
DWIDTH 12 0
BBX 9 8 0 -1
BITMAP
7F80
6000
7F80
0000
FF80
7F80
6180
7F80
ENDCHAR
STARTCHAR B4ED
ENCODING 13676
SWIDTH 1200 0
DWIDTH 12 0
BBX 9 8 0 -1
BITMAP
7F80
6000
7F80
0000
FF80
6180
7F80
7F80
ENDCHAR
STARTCHAR B4EF
ENCODING 13677
SWIDTH 1200 0
DWIDTH 12 0
BBX 9 8 0 -1
BITMAP
7F80
6000
7F80
FF80
0000
0C00
3F00
6180
ENDCHAR
STARTCHAR B4F1
ENCODING 13678
SWIDTH 1200 0
DWIDTH 12 0
BBX 9 8 1 -1
BITMAP
FF00
C000
FF00
0000
FF80
6600
6600
3C00
ENDCHAR
STARTCHAR B4F8
ENCODING 13679
SWIDTH 1200 0
DWIDTH 12 0
BBX 9 8 0 -1
BITMAP
FD80
C180
C180
FD80
0180
FF80
0180
0180
ENDCHAR
STARTCHAR B514
ENCODING 13680
SWIDTH 1200 0
DWIDTH 12 0
BBX 8 8 1 -1
BITMAP
FF
C3
C3
C3
C3
FF
03
03
ENDCHAR
STARTCHAR B515
ENCODING 13681
SWIDTH 1200 0
DWIDTH 12 0
BBX 9 8 0 -1
BITMAP
FD80
C180
C180
FF80
0000
7F80
0180
0180
ENDCHAR
STARTCHAR B518
ENCODING 13682
SWIDTH 1200 0
DWIDTH 12 0
BBX 9 8 0 -1
BITMAP
FD80
C180
C180
FF80
0180
6000
6000
7F80
ENDCHAR
STARTCHAR B51B
ENCODING 13683
SWIDTH 1200 0
DWIDTH 12 0
BBX 9 8 0 -1
BITMAP
FD80
C180
C180
FF80
0000
7F80
6000
7F80
ENDCHAR
STARTCHAR B51C
ENCODING 13684
SWIDTH 1200 0
DWIDTH 12 0
BBX 9 8 0 -1
BITMAP
FD80
C180
C180
FF80
7F80
0180
7F80
7F80
ENDCHAR
STARTCHAR B524
ENCODING 13685
SWIDTH 1200 0
DWIDTH 12 0
BBX 9 8 0 -1
BITMAP
FD80
C180
C180
FF80
0000
7F80
6180
7F80
ENDCHAR
STARTCHAR B525
ENCODING 13686
SWIDTH 1200 0
DWIDTH 12 0
BBX 9 8 0 -1
BITMAP
FD80
C180
C180
FF80
6180
7F80
6180
7F80
ENDCHAR
STARTCHAR B527
ENCODING 13687
SWIDTH 1200 0
DWIDTH 12 0
BBX 9 8 0 -1
BITMAP
FD80
C180
FF80
1F80
0180
0C00
3380
6100
ENDCHAR
STARTCHAR B528
ENCODING 13688
SWIDTH 1200 0
DWIDTH 12 0
BBX 9 8 0 -1
BITMAP
FD80
C180
C180
FF80
3300
3F00
7F80
4C80
ENDCHAR
STARTCHAR B529
ENCODING 13689
SWIDTH 1200 0
DWIDTH 12 0
BBX 9 8 0 -1
BITMAP
FD80
C180
C180
FF80
0F80
1980
1980
0F00
ENDCHAR
STARTCHAR B52A
ENCODING 13690
SWIDTH 1200 0
DWIDTH 12 0
BBX 9 8 0 -1
BITMAP
FD80
C180
C180
FF80
0000
7F80
0C00
7380
ENDCHAR
STARTCHAR B530
ENCODING 13691
SWIDTH 1200 0
DWIDTH 12 0
BBX 9 8 1 -1
BITMAP
FF00
DB00
DB00
DB80
DB00
FF00
0300
0300
ENDCHAR
STARTCHAR B531
ENCODING 13692
SWIDTH 1200 0
DWIDTH 12 0
BBX 9 8 1 -1
BITMAP
FF00
DB00
DB80
FF00
0000
7F00
0300
0300
ENDCHAR
STARTCHAR B534
ENCODING 13693
SWIDTH 1200 0
DWIDTH 12 0
BBX 9 8 1 -1
BITMAP
FF00
DB00
DB80
FF00
0300
C000
C000
FF00
ENDCHAR
STARTCHAR B538
ENCODING 13694
SWIDTH 1200 0
DWIDTH 12 0
BBX 9 8 1 -1
BITMAP
FF00
DB80
DB00
FF00
7F00
0300
7F00
7F00
ENDCHAR
STARTCHAR B540
ENCODING 13857
SWIDTH 1200 0
DWIDTH 12 0
BBX 9 8 1 -1
BITMAP
FF00
DB00
DB80
FF00
0000
FF00
C300
FF00
ENDCHAR
STARTCHAR B541
ENCODING 13858
SWIDTH 1200 0
DWIDTH 12 0
BBX 9 8 1 -1
BITMAP
FF00
DB00
DB80
FF00
C300
FF00
C300
FF00
ENDCHAR
STARTCHAR B543
ENCODING 13859
SWIDTH 1200 0
DWIDTH 12 0
BBX 9 8 1 -1
BITMAP
FF00
DB00
DF80
FF00
0300
1800
7E00
C700
ENDCHAR
STARTCHAR B544
ENCODING 13860
SWIDTH 1200 0
DWIDTH 12 0
BBX 9 8 1 -1
BITMAP
FF00
DB00
DB80
FF00
3600
7600
FF80
9900
ENDCHAR
STARTCHAR B545
ENCODING 13861
SWIDTH 1200 0
DWIDTH 12 0
BBX 9 8 1 -1
BITMAP
FF00
DB80
DB00
FF00
1F00
3300
3300
1E00
ENDCHAR
STARTCHAR B54B
ENCODING 13862
SWIDTH 1200 0
DWIDTH 12 0
BBX 9 8 1 -1
BITMAP
FF00
DB00
DB80
FF00
1B00
E700
6600
3C00
ENDCHAR
STARTCHAR B54C
ENCODING 13863
SWIDTH 1200 0
DWIDTH 12 0
BBX 9 8 0 -1
BITMAP
FF80
F780
F780
F780
F780
FF80
0780
0780
ENDCHAR
STARTCHAR B54D
ENCODING 13864
SWIDTH 1200 0
DWIDTH 12 0
BBX 9 8 0 -1
BITMAP
FF80
F780
F780
FF80
0000
7F80
0180
0180
ENDCHAR
STARTCHAR B550
ENCODING 13865
SWIDTH 1200 0
DWIDTH 12 0
BBX 9 8 0 -1
BITMAP
FF80
F780
F780
FF80
0780
6000
6000
7F80
ENDCHAR
STARTCHAR B554
ENCODING 13866
SWIDTH 1200 0
DWIDTH 12 0
BBX 9 8 0 -1
BITMAP
FF80
F780
F780
FF80
7F80
0180
7F80
7F80
ENDCHAR
STARTCHAR B55C
ENCODING 13867
SWIDTH 1200 0
DWIDTH 12 0
BBX 9 8 0 -1
BITMAP
FF80
F780
F780
FF80
0000
7F80
6180
7F80
ENDCHAR
STARTCHAR B55D
ENCODING 13868
SWIDTH 1200 0
DWIDTH 12 0
BBX 9 8 0 -1
BITMAP
FF80
F780
F780
FF80
6180
7F80
6180
7F80
ENDCHAR
STARTCHAR B55F
ENCODING 13869
SWIDTH 1200 0
DWIDTH 12 0
BBX 9 8 0 -1
BITMAP
0780
FF80
F780
FF80
0000
0C00
3F00
6180
ENDCHAR
STARTCHAR B560
ENCODING 13870
SWIDTH 1200 0
DWIDTH 12 0
BBX 9 8 0 -1
BITMAP
0780
FF80
F780
FF80
0000
3300
7F00
4D80
ENDCHAR
STARTCHAR B561
ENCODING 13871
SWIDTH 1200 0
DWIDTH 12 0
BBX 9 8 0 -1
BITMAP
FF80
F780
F780
FF80
1F00
1980
1980
0F00
ENDCHAR
STARTCHAR B5A0
ENCODING 13872
SWIDTH 1200 0
DWIDTH 12 0
BBX 9 8 0 -1
BITMAP
FF80
D980
DB80
D980
D980
FF80
0180
0180
ENDCHAR
STARTCHAR B5A1
ENCODING 13873
SWIDTH 1200 0
DWIDTH 12 0
BBX 9 8 0 -1
BITMAP
FF80
D980
DB80
FF80
0180
7F80
0180
0180
ENDCHAR
STARTCHAR B5A4
ENCODING 13874
SWIDTH 1200 0
DWIDTH 12 0
BBX 9 8 0 -1
BITMAP
FF80
D980
DB80
FF80
0180
6180
6000
7F80
ENDCHAR
STARTCHAR B5A8
ENCODING 13875
SWIDTH 1200 0
DWIDTH 12 0
BBX 9 8 0 -1
BITMAP
FF80
DB80
D980
FF80
7F80
0180
7F80
7F80
ENDCHAR
STARTCHAR B5AA
ENCODING 13876
SWIDTH 1200 0
DWIDTH 12 0
BBX 9 8 0 -1
BITMAP
FF80
DB80
D980
FF80
7780
1780
7780
7F80
ENDCHAR
STARTCHAR B5AB
ENCODING 13877
SWIDTH 1200 0
DWIDTH 12 0
BBX 9 8 0 -1
BITMAP
FF80
DB80
D980
FF80
7780
1780
7780
7F80
ENDCHAR
STARTCHAR B5B0
ENCODING 13878
SWIDTH 1200 0
DWIDTH 12 0
BBX 9 8 0 -1
BITMAP
FF80
D980
DB80
FF80
0180
7F80
6180
7F80
ENDCHAR
STARTCHAR B5B1
ENCODING 13879
SWIDTH 1200 0
DWIDTH 12 0
BBX 9 8 0 -1
BITMAP
FF80
D980
DB80
FF80
6180
7F80
6180
7F80
ENDCHAR
STARTCHAR B5B3
ENCODING 13880
SWIDTH 1200 0
DWIDTH 12 0
BBX 9 8 0 -1
BITMAP
0180
FF80
D980
FF80
0180
0C00
3380
6100
ENDCHAR
STARTCHAR B5B4
ENCODING 13881
SWIDTH 1200 0
DWIDTH 12 0
BBX 9 8 0 -1
BITMAP
0180
FF80
D980
FF80
0000
3300
7F00
4D80
ENDCHAR
STARTCHAR B5B5
ENCODING 13882
SWIDTH 1200 0
DWIDTH 12 0
BBX 9 8 0 -1
BITMAP
FF80
D980
DB80
FF80
1F80
1980
1980
0F00
ENDCHAR
STARTCHAR B5BB
ENCODING 13883
SWIDTH 1200 0
DWIDTH 12 0
BBX 9 8 0 -1
BITMAP
FF80
DB80
D980
FF80
0000
7F80
3300
1E00
ENDCHAR
STARTCHAR B5BC
ENCODING 13884
SWIDTH 1200 0
DWIDTH 12 0
BBX 9 8 0 -1
BITMAP
FF80
F780
F780
FF80
F780
FF80
0780
0780
ENDCHAR
STARTCHAR B5BD
ENCODING 13885
SWIDTH 1200 0
DWIDTH 12 0
BBX 9 8 0 -1
BITMAP
FF80
F780
FF80
FF80
0780
7F80
0180
0180
ENDCHAR
STARTCHAR B5C0
ENCODING 13886
SWIDTH 1200 0
DWIDTH 12 0
BBX 9 8 0 -1
BITMAP
FF80
F780
FF80
F780
FF80
6780
6000
7F80
ENDCHAR
STARTCHAR B5C4
ENCODING 13887
SWIDTH 1200 0
DWIDTH 12 0
BBX 9 8 0 -1
BITMAP
FF80
FF80
F780
FF80
7F80
0180
7F80
7F80
ENDCHAR
STARTCHAR B5CC
ENCODING 13888
SWIDTH 1200 0
DWIDTH 12 0
BBX 9 8 0 -1
BITMAP
FF80
F780
FF80
FF80
0780
7F80
6180
7F80
ENDCHAR
STARTCHAR B5CD
ENCODING 13889
SWIDTH 1200 0
DWIDTH 12 0
BBX 9 8 0 -1
BITMAP
FF80
F780
FF80
FF80
6780
7F80
6180
7F80
ENDCHAR
STARTCHAR B5CF
ENCODING 13890
SWIDTH 1200 0
DWIDTH 12 0
BBX 9 8 0 -1
BITMAP
0780
FF80
F780
FF80
0180
0C00
3F00
6380
ENDCHAR
STARTCHAR B5D0
ENCODING 13891
SWIDTH 1200 0
DWIDTH 12 0
BBX 9 8 0 -1
BITMAP
FF80
F780
FF80
FF80
3780
3F00
7F80
4C80
ENDCHAR
STARTCHAR B5D1
ENCODING 13892
SWIDTH 1200 0
DWIDTH 12 0
BBX 9 8 0 -1
BITMAP
FF80
F780
FF80
FF80
1F80
3980
1980
0F00
ENDCHAR
STARTCHAR B5D8
ENCODING 13893
SWIDTH 1200 0
DWIDTH 12 0
BBX 9 8 0 -1
BITMAP
FF80
D980
DB80
DB80
D980
FF80
0180
0180
ENDCHAR
STARTCHAR B5EC
ENCODING 13894
SWIDTH 1200 0
DWIDTH 12 0
BBX 9 8 0 -1
BITMAP
0380
FD80
DB80
FD80
0000
3300
7F00
4D80
ENDCHAR
STARTCHAR B610
ENCODING 13895
SWIDTH 1200 0
DWIDTH 12 0
BBX 9 8 1 -1
BITMAP
FF00
CC00
CC00
FF00
0000
1800
1800
FF80
ENDCHAR
STARTCHAR B611
ENCODING 13896
SWIDTH 1200 0
DWIDTH 12 0
BBX 9 8 0 -1
BITMAP
7F80
6600
7F80
0000
FF80
0000
7F80
0180
ENDCHAR
STARTCHAR B614
ENCODING 13897
SWIDTH 1200 0
DWIDTH 12 0
BBX 9 8 0 -1
BITMAP
7F80
6600
7F80
0000
FF80
0000
6000
7F80
ENDCHAR
STARTCHAR B618
ENCODING 13898
SWIDTH 1200 0
DWIDTH 12 0
BBX 9 8 0 -1
BITMAP
7780
6600
7F80
FF80
0000
7F80
7F80
7F80
ENDCHAR
STARTCHAR B625
ENCODING 13899
SWIDTH 1200 0
DWIDTH 12 0
BBX 9 8 0 -1
BITMAP
7F80
6600
7F80
0800
FF80
3600
3200
1E00
ENDCHAR
STARTCHAR B62C
ENCODING 13900
SWIDTH 1200 0
DWIDTH 12 0
BBX 9 8 1 -1
BITMAP
FF00
DB00
DB00
FF80
3300
FF00
0300
0300
ENDCHAR
STARTCHAR B634
ENCODING 13901
SWIDTH 1200 0
DWIDTH 12 0
BBX 9 8 1 -1
BITMAP
FF00
D300
FB80
FF00
0000
7F00
7F00
7F00
ENDCHAR
STARTCHAR B648
ENCODING 13902
SWIDTH 1200 0
DWIDTH 12 0
BBX 9 8 0 -1
BITMAP
FF80
F780
F780
FF80
3780
FF80
0780
0780
ENDCHAR
STARTCHAR B664
ENCODING 13903
SWIDTH 1200 0
DWIDTH 12 0
BBX 8 8 1 -1
BITMAP
FB
F3
F3
FB
33
FF
03
03
ENDCHAR
STARTCHAR B668
ENCODING 13904
SWIDTH 1200 0
DWIDTH 12 0
BBX 9 8 0 -1
BITMAP
FD80
D980
FD80
0180
FF80
0180
6000
7F80
ENDCHAR
STARTCHAR B69C
ENCODING 13905
SWIDTH 1200 0
DWIDTH 12 0
BBX 9 8 1 -1
BITMAP
FF00
CC00
CC00
FF00
0000
FF80
1800
1800
ENDCHAR
STARTCHAR B69D
ENCODING 13906
SWIDTH 1200 0
DWIDTH 12 0
BBX 10 8 0 -1
BITMAP
7F80
6600
7F80
0000
FFC0
7F80
0180
0180
ENDCHAR
STARTCHAR B6A0
ENCODING 13907
SWIDTH 1200 0
DWIDTH 12 0
BBX 10 8 0 -1
BITMAP
7F80
6600
7F80
0000
FFC0
6C00
6000
7F80
ENDCHAR
STARTCHAR B6A4
ENCODING 13908
SWIDTH 1200 0
DWIDTH 12 0
BBX 10 8 0 -1
BITMAP
7F80
6600
7F80
FFC0
0C00
7F80
7F80
7F80
ENDCHAR
STARTCHAR B6AB
ENCODING 13909
SWIDTH 1200 0
DWIDTH 12 0
BBX 9 9 0 -2
BITMAP
7F80
6600
7F80
FF80
0300
7F80
7580
7780
0700
ENDCHAR
STARTCHAR B6AC
ENCODING 13910
SWIDTH 1200 0
DWIDTH 12 0
BBX 10 8 0 -1
BITMAP
7F80
6600
7F80
0000
FFC0
7F80
6180
7F80
ENDCHAR
STARTCHAR B6B1
ENCODING 13911
SWIDTH 1200 0
DWIDTH 12 0
BBX 9 8 0 -1
BITMAP
7F80
6600
7F80
0000
FF80
1E00
3300
1E00
ENDCHAR
STARTCHAR B6D4
ENCODING 13912
SWIDTH 1200 0
DWIDTH 12 0
BBX 9 8 0 -1
BITMAP
FF80
F780
F780
FF80
FF80
3780
3F80
3780
ENDCHAR
STARTCHAR B6F0
ENCODING 13913
SWIDTH 1200 0
DWIDTH 12 0
BBX 9 8 0 -1
BITMAP
7F80
6D80
6D80
7F80
FF80
1980
1980
1980
ENDCHAR
STARTCHAR B6F4
ENCODING 13914
SWIDTH 1200 0
DWIDTH 12 0
BBX 9 8 0 -1
BITMAP
EF80
CD80
EF80
0180
FF80
7980
6000
7F80
ENDCHAR
STARTCHAR B6F8
ENCODING 13915
SWIDTH 1200 0
DWIDTH 12 0
BBX 9 8 0 -1
BITMAP
7F80
4980
7F80
FF80
1800
7F80
7F80
7F80
ENDCHAR
STARTCHAR B700
ENCODING 13916
SWIDTH 1200 0
DWIDTH 12 0
BBX 9 8 0 -1
BITMAP
EF80
CD80
EF80
FF80
1800
7F80
6180
7F80
ENDCHAR
STARTCHAR B701
ENCODING 13917
SWIDTH 1200 0
DWIDTH 12 0
BBX 9 8 0 -1
BITMAP
7F80
4980
7F80
0180
FF80
6180
7F80
7F80
ENDCHAR
STARTCHAR B705
ENCODING 13918
SWIDTH 1200 0
DWIDTH 12 0
BBX 9 8 0 -1
BITMAP
EF80
CD80
EF80
FF80
1F80
1F00
1300
0F00
ENDCHAR
STARTCHAR B728
ENCODING 13919
SWIDTH 1200 0
DWIDTH 12 0
BBX 9 8 0 -1
BITMAP
7F80
6600
6600
6600
7F80
0000
0000
FF80
ENDCHAR
STARTCHAR B729
ENCODING 13920
SWIDTH 1200 0
DWIDTH 12 0
BBX 9 8 0 -1
BITMAP
7F80
6600
7F80
0000
FF80
7F80
0180
0180
ENDCHAR
STARTCHAR B72C
ENCODING 13921
SWIDTH 1200 0
DWIDTH 12 0
BBX 9 8 0 -1
BITMAP
7F80
6600
7F80
0000
FF80
6000
6000
7F80
ENDCHAR
STARTCHAR B72F
ENCODING 13922
SWIDTH 1200 0
DWIDTH 12 0
BBX 9 8 0 -1
BITMAP
7F80
6600
7F80
0000
FF80
7F80
6000
7F80
ENDCHAR
STARTCHAR B730
ENCODING 13923
SWIDTH 1200 0
DWIDTH 12 0
BBX 9 8 0 -1
BITMAP
7F80
6600
7F80
FF80
0000
7F80
7F80
7F80
ENDCHAR
STARTCHAR B738
ENCODING 13924
SWIDTH 1200 0
DWIDTH 12 0
BBX 9 8 0 -1
BITMAP
7F80
6600
7F80
0000
FF80
7F80
6180
7F80
ENDCHAR
STARTCHAR B739
ENCODING 13925
SWIDTH 1200 0
DWIDTH 12 0
BBX 9 8 0 -1
BITMAP
7F80
6600
7F80
FF80
0000
6180
7F80
7F80
ENDCHAR
STARTCHAR B73B
ENCODING 13926
SWIDTH 1200 0
DWIDTH 12 0
BBX 9 8 0 -1
BITMAP
7F80
6600
7F80
F800
0700
0C00
3F00
6180
ENDCHAR
STARTCHAR B744
ENCODING 13927
SWIDTH 1200 0
DWIDTH 12 0
BBX 9 8 0 -1
BITMAP
EF80
CD80
CD80
EF80
0180
FF80
0180
0180
ENDCHAR
STARTCHAR B748
ENCODING 13928
SWIDTH 1200 0
DWIDTH 12 0
BBX 9 8 0 -1
BITMAP
7F80
6D80
7F80
0180
FF80
6180
6000
7F80
ENDCHAR
STARTCHAR B74C
ENCODING 13929
SWIDTH 1200 0
DWIDTH 12 0
BBX 9 8 0 -1
BITMAP
6F80
4980
6F80
FF80
0000
7F80
7F80
7F80
ENDCHAR
STARTCHAR B754
ENCODING 13930
SWIDTH 1200 0
DWIDTH 12 0
BBX 9 8 0 -1
BITMAP
7F80
6D80
7F80
0180
FF80
7F80
6180
7F80
ENDCHAR
STARTCHAR B755
ENCODING 13931
SWIDTH 1200 0
DWIDTH 12 0
BBX 9 8 0 -1
BITMAP
7F80
6D80
7F80
FF80
0000
6180
7F80
7F80
ENDCHAR
STARTCHAR B760
ENCODING 13932
SWIDTH 1200 0
DWIDTH 12 0
BBX 9 8 0 -1
BITMAP
FD80
D980
D980
D980
D980
FF80
0180
0180
ENDCHAR
STARTCHAR B764
ENCODING 13933
SWIDTH 1200 0
DWIDTH 12 0
BBX 9 8 0 -1
BITMAP
FD80
D980
D980
FF80
0180
6000
6000
7F80
ENDCHAR
STARTCHAR B768
ENCODING 13934
SWIDTH 1200 0
DWIDTH 12 0
BBX 9 8 0 -1
BITMAP
FD80
D980
D980
FF80
7F80
0180
7F80
7F80
ENDCHAR
STARTCHAR B770
ENCODING 13935
SWIDTH 1200 0
DWIDTH 12 0
BBX 9 8 0 -1
BITMAP
FD80
D980
D980
FF80
0000
7F80
6180
7F80
ENDCHAR
STARTCHAR B771
ENCODING 13936
SWIDTH 1200 0
DWIDTH 12 0
BBX 9 8 0 -1
BITMAP
FD80
D980
D980
FF80
6180
7F80
6180
7F80
ENDCHAR
STARTCHAR B773
ENCODING 13937
SWIDTH 1200 0
DWIDTH 12 0
BBX 9 8 0 -1
BITMAP
FD80
D980
FF80
0180
0D80
1E00
7380
6100
ENDCHAR
STARTCHAR B775
ENCODING 13938
SWIDTH 1200 0
DWIDTH 12 0
BBX 9 8 0 -1
BITMAP
FD80
D980
D980
FF80
0F80
1B00
1B00
0F00
ENDCHAR
STARTCHAR B77C
ENCODING 13939
SWIDTH 1200 0
DWIDTH 12 0
BBX 9 8 1 -1
BITMAP
FB00
1B00
1B00
FB80
C300
FF00
0300
0300
ENDCHAR
STARTCHAR B77D
ENCODING 13940
SWIDTH 1200 0
DWIDTH 12 0
BBX 9 8 1 -1
BITMAP
FB00
1B00
FB80
FF00
0000
7F00
0300
0300
ENDCHAR
STARTCHAR B780
ENCODING 13941
SWIDTH 1200 0
DWIDTH 12 0
BBX 9 8 1 -1
BITMAP
FB00
1B00
FB80
C300
FF00
C300
C000
FF00
ENDCHAR
STARTCHAR B784
ENCODING 13942
SWIDTH 1200 0
DWIDTH 12 0
BBX 9 8 1 -1
BITMAP
FB00
FB00
C380
FF00
7F00
0300
7F00
7F00
ENDCHAR
STARTCHAR B78C
ENCODING 13943
SWIDTH 1200 0
DWIDTH 12 0
BBX 9 8 1 -1
BITMAP
FB00
1B00
FB80
FF00
0000
FF00
C300
FF00
ENDCHAR
STARTCHAR B78D
ENCODING 13944
SWIDTH 1200 0
DWIDTH 12 0
BBX 9 8 1 -1
BITMAP
FB00
1B00
FB80
FF00
C300
FF00
C300
FF00
ENDCHAR
STARTCHAR B78F
ENCODING 13945
SWIDTH 1200 0
DWIDTH 12 0
BBX 9 8 1 -1
BITMAP
FB00
1B00
FB80
C300
FF00
1800
6700
C200
ENDCHAR
STARTCHAR B790
ENCODING 13946
SWIDTH 1200 0
DWIDTH 12 0
BBX 8 8 1 -1
BITMAP
FB
3B
C3
FF
00
36
77
D9
ENDCHAR
STARTCHAR B791
ENCODING 13947
SWIDTH 1200 0
DWIDTH 12 0
BBX 9 8 1 -1
BITMAP
FB00
1B00
FB80
FF00
3F00
3300
3300
1E00
ENDCHAR
STARTCHAR B792
ENCODING 13948
SWIDTH 1200 0
DWIDTH 12 0
BBX 9 8 1 -1
BITMAP
FB00
1B00
FB80
FF00
0000
FF00
3800
E700
ENDCHAR
STARTCHAR B796
ENCODING 13949
SWIDTH 1200 0
DWIDTH 12 0
BBX 9 8 1 -1
BITMAP
FB00
1B00
FB80
FF00
0000
7F00
3600
7F00
ENDCHAR
STARTCHAR B797
ENCODING 13950
SWIDTH 1200 0
DWIDTH 12 0
BBX 9 8 1 -1
BITMAP
FB00
FB00
C380
FF00
0000
FF00
6600
3C00
ENDCHAR
STARTCHAR B798
ENCODING 14113
SWIDTH 1200 0
DWIDTH 12 0
BBX 9 8 0 -1
BITMAP
F780
3780
3780
F780
C780
FF80
0780
0780
ENDCHAR
STARTCHAR B799
ENCODING 14114
SWIDTH 1200 0
DWIDTH 12 0
BBX 9 8 0 -1
BITMAP
FF80
1F80
FF80
7F80
0000
7F80
0180
0180
ENDCHAR
STARTCHAR B79C
ENCODING 14115
SWIDTH 1200 0
DWIDTH 12 0
BBX 9 8 0 -1
BITMAP
F780
3780
F780
C780
FF80
6780
6000
7F80
ENDCHAR
STARTCHAR B7A0
ENCODING 14116
SWIDTH 1200 0
DWIDTH 12 0
BBX 9 8 0 -1
BITMAP
FF80
FF80
C780
7F80
7F80
0180
7F80
7F80
ENDCHAR
STARTCHAR B7A8
ENCODING 14117
SWIDTH 1200 0
DWIDTH 12 0
BBX 9 8 0 -1
BITMAP
FF80
1F80
FF80
7F80
0000
7F80
6180
7F80
ENDCHAR
STARTCHAR B7A9
ENCODING 14118
SWIDTH 1200 0
DWIDTH 12 0
BBX 9 8 0 -1
BITMAP
FF80
1F80
FF80
7F80
6180
7F80
6180
7F80
ENDCHAR
STARTCHAR B7AB
ENCODING 14119
SWIDTH 1200 0
DWIDTH 12 0
BBX 8 8 1 -1
BITMAP
FF
7F
8F
FF
00
18
7E
C3
ENDCHAR
STARTCHAR B7AC
ENCODING 14120
SWIDTH 1200 0
DWIDTH 12 0
BBX 8 8 1 -1
BITMAP
FF
7F
8F
FF
00
66
FF
99
ENDCHAR
STARTCHAR B7AD
ENCODING 14121
SWIDTH 1200 0
DWIDTH 12 0
BBX 9 8 0 -1
BITMAP
FF80
1F80
FF80
7F80
0F80
1B00
1B00
0F00
ENDCHAR
STARTCHAR B7B4
ENCODING 14122
SWIDTH 1200 0
DWIDTH 12 0
BBX 9 8 1 -1
BITMAP
FB00
1B80
FB00
C300
C380
FF00
0300
0300
ENDCHAR
STARTCHAR B7B5
ENCODING 14123
SWIDTH 1200 0
DWIDTH 12 0
BBX 9 8 1 -1
BITMAP
FB00
1B80
FB80
FF00
0000
7F00
0300
0300
ENDCHAR
STARTCHAR B7B8
ENCODING 14124
SWIDTH 1200 0
DWIDTH 12 0
BBX 9 8 1 -1
BITMAP
FB00
1B80
FB80
C300
FF00
C300
C000
FF00
ENDCHAR
STARTCHAR B7C7
ENCODING 14125
SWIDTH 1200 0
DWIDTH 12 0
BBX 9 8 1 -1
BITMAP
FB80
1B00
FB80
C300
FF00
3C00
E700
C200
ENDCHAR
STARTCHAR B7C9
ENCODING 14126
SWIDTH 1200 0
DWIDTH 12 0
BBX 9 8 1 -1
BITMAP
FB00
1B80
FB80
E300
3F00
3300
3300
1E00
ENDCHAR
STARTCHAR B7EC
ENCODING 14127
SWIDTH 1200 0
DWIDTH 12 0
BBX 8 8 1 -1
BITMAP
FB
1B
FB
C3
CF
FF
03
03
ENDCHAR
STARTCHAR B7ED
ENCODING 14128
SWIDTH 1200 0
DWIDTH 12 0
BBX 9 8 0 -1
BITMAP
F980
1980
FB80
FD80
0180
7F80
0180
0180
ENDCHAR
STARTCHAR B7F0
ENCODING 14129
SWIDTH 1200 0
DWIDTH 12 0
BBX 9 8 0 -1
BITMAP
F980
1980
FB80
C180
FD80
6180
6000
7F80
ENDCHAR
STARTCHAR B7F4
ENCODING 14130
SWIDTH 1200 0
DWIDTH 12 0
BBX 9 8 0 -1
BITMAP
F980
FB80
C180
FD80
7F80
0180
7F80
7F80
ENDCHAR
STARTCHAR B7FC
ENCODING 14131
SWIDTH 1200 0
DWIDTH 12 0
BBX 9 8 0 -1
BITMAP
F980
1980
FB80
FD80
0180
7F80
6180
7F80
ENDCHAR
STARTCHAR B7FD
ENCODING 14132
SWIDTH 1200 0
DWIDTH 12 0
BBX 9 8 0 -1
BITMAP
F980
1B80
F980
FD80
6180
7F80
6180
7F80
ENDCHAR
STARTCHAR B7FF
ENCODING 14133
SWIDTH 1200 0
DWIDTH 12 0
BBX 9 8 0 -1
BITMAP
F980
3980
CB80
FD80
0D80
1E00
7380
6100
ENDCHAR
STARTCHAR B800
ENCODING 14134
SWIDTH 1200 0
DWIDTH 12 0
BBX 9 8 0 -1
BITMAP
F980
0B80
F980
C180
7F00
3F00
FF80
4C80
ENDCHAR
STARTCHAR B801
ENCODING 14135
SWIDTH 1200 0
DWIDTH 12 0
BBX 8 8 1 -1
BITMAP
FB
1B
FF
FB
37
33
33
1E
ENDCHAR
STARTCHAR B807
ENCODING 14136
SWIDTH 1200 0
DWIDTH 12 0
BBX 9 8 0 -1
BITMAP
F980
FB80
C180
FD80
0000
7F80
3300
1E00
ENDCHAR
STARTCHAR B808
ENCODING 14137
SWIDTH 1200 0
DWIDTH 12 0
BBX 9 8 0 -1
BITMAP
F780
3780
F780
C780
CF80
FF80
0780
0780
ENDCHAR
STARTCHAR B809
ENCODING 14138
SWIDTH 1200 0
DWIDTH 12 0
BBX 9 8 0 -1
BITMAP
F780
3780
FF80
FF80
0780
7F80
0180
0180
ENDCHAR
STARTCHAR B80C
ENCODING 14139
SWIDTH 1200 0
DWIDTH 12 0
BBX 9 8 0 -1
BITMAP
F780
3780
FF80
C780
FF80
6780
6000
7F80
ENDCHAR
STARTCHAR B810
ENCODING 14140
SWIDTH 1200 0
DWIDTH 12 0
BBX 9 8 0 -1
BITMAP
F780
F780
CF80
FF80
7F80
0180
7F80
7F80
ENDCHAR
STARTCHAR B818
ENCODING 14141
SWIDTH 1200 0
DWIDTH 12 0
BBX 9 8 0 -1
BITMAP
F780
3780
FF80
FF80
0780
7F80
6180
7F80
ENDCHAR
STARTCHAR B819
ENCODING 14142
SWIDTH 1200 0
DWIDTH 12 0
BBX 9 8 0 -1
BITMAP
F780
3780
FF80
FF80
6780
7F80
6180
7F80
ENDCHAR
STARTCHAR B81B
ENCODING 14143
SWIDTH 1200 0
DWIDTH 12 0
BBX 9 8 0 -1
BITMAP
F780
7780
CF80
FF80
0780
0C00
3F00
6180
ENDCHAR
STARTCHAR B81D
ENCODING 14144
SWIDTH 1200 0
DWIDTH 12 0
BBX 9 8 0 -1
BITMAP
F780
3780
FF80
FF80
1F80
1980
1980
0F00
ENDCHAR
STARTCHAR B824
ENCODING 14145
SWIDTH 1200 0
DWIDTH 12 0
BBX 9 8 0 -1
BITMAP
F980
1B80
1980
FB80
C180
FD80
0180
0180
ENDCHAR
STARTCHAR B825
ENCODING 14146
SWIDTH 1200 0
DWIDTH 12 0
BBX 9 8 0 -1
BITMAP
F980
1B80
F980
FB80
0180
7F80
0180
0180
ENDCHAR
STARTCHAR B828
ENCODING 14147
SWIDTH 1200 0
DWIDTH 12 0
BBX 9 8 0 -1
BITMAP
F980
1B80
F980
C380
F980
6180
6000
7F80
ENDCHAR
STARTCHAR B82C
ENCODING 14148
SWIDTH 1200 0
DWIDTH 12 0
BBX 9 8 0 -1
BITMAP
F980
FB80
C380
F980
7F80
0180
7F80
7F80
ENDCHAR
STARTCHAR B834
ENCODING 14149
SWIDTH 1200 0
DWIDTH 12 0
BBX 9 8 0 -1
BITMAP
F980
1B80
F980
FB80
0180
7F80
6180
7F80
ENDCHAR
STARTCHAR B835
ENCODING 14150
SWIDTH 1200 0
DWIDTH 12 0
BBX 9 8 0 -1
BITMAP
F980
1B80
FB80
FD80
6180
7F80
6180
7F80
ENDCHAR
STARTCHAR B837
ENCODING 14151
SWIDTH 1200 0
DWIDTH 12 0
BBX 9 8 0 -1
BITMAP
F980
1B80
F980
C380
F180
0C00
3380
6100
ENDCHAR
STARTCHAR B838
ENCODING 14152
SWIDTH 1200 0
DWIDTH 12 0
BBX 9 8 0 -1
BITMAP
F980
3B80
C180
FF80
0180
3300
7F00
4D80
ENDCHAR
STARTCHAR B839
ENCODING 14153
SWIDTH 1200 0
DWIDTH 12 0
BBX 8 8 1 -1
BITMAP
F3
17
F3
E7
3F
33
33
1E
ENDCHAR
STARTCHAR B840
ENCODING 14154
SWIDTH 1200 0
DWIDTH 12 0
BBX 9 8 0 -1
BITMAP
F780
3F80
3780
FF80
C780
FF80
0780
0780
ENDCHAR
STARTCHAR B844
ENCODING 14155
SWIDTH 1200 0
DWIDTH 12 0
BBX 9 8 0 -1
BITMAP
F780
3F80
FF80
C780
F780
6180
6000
7F80
ENDCHAR
STARTCHAR B851
ENCODING 14156
SWIDTH 1200 0
DWIDTH 12 0
BBX 9 8 0 -1
BITMAP
F780
3F80
FF80
F780
6180
7F80
6180
7F80
ENDCHAR
STARTCHAR B853
ENCODING 14157
SWIDTH 1200 0
DWIDTH 12 0
BBX 9 8 0 -1
BITMAP
F780
7F80
C780
FF80
0780
0C00
3F00
6180
ENDCHAR
STARTCHAR B85C
ENCODING 14158
SWIDTH 1200 0
DWIDTH 12 0
BBX 9 8 0 -1
BITMAP
7F80
0180
7F80
6000
7F80
0C00
0C00
FF80
ENDCHAR
STARTCHAR B85D
ENCODING 14159
SWIDTH 1200 0
DWIDTH 12 0
BBX 9 8 1 -1
BITMAP
FF00
FF00
C000
FF00
FF80
FF00
0300
0300
ENDCHAR
STARTCHAR B860
ENCODING 14160
SWIDTH 1200 0
DWIDTH 12 0
BBX 9 8 0 -1
BITMAP
7F80
7F80
6000
7F80
FF80
6000
6000
7F80
ENDCHAR
STARTCHAR B864
ENCODING 14161
SWIDTH 1200 0
DWIDTH 12 0
BBX 9 8 0 -1
BITMAP
7F80
7F80
7F80
FF80
0000
7F80
7F80
7F80
ENDCHAR
STARTCHAR B86C
ENCODING 14162
SWIDTH 1200 0
DWIDTH 12 0
BBX 9 8 1 -1
BITMAP
FF00
FF00
FF00
1800
FF80
FF00
C300
FF00
ENDCHAR
STARTCHAR B86D
ENCODING 14163
SWIDTH 1200 0
DWIDTH 12 0
BBX 10 8 0 -1
BITMAP
7F80
7F80
7F80
0C00
FFC0
6180
7F80
7F80
ENDCHAR
STARTCHAR B86F
ENCODING 14164
SWIDTH 1200 0
DWIDTH 12 0
BBX 9 8 0 -1
BITMAP
7F80
0180
7F80
0C00
FF80
0000
7F80
6100
ENDCHAR
STARTCHAR B871
ENCODING 14165
SWIDTH 1200 0
DWIDTH 12 0
BBX 9 8 0 -1
BITMAP
7F80
7F80
7F80
0C00
FF80
3300
3300
1E00
ENDCHAR
STARTCHAR B878
ENCODING 14166
SWIDTH 1200 0
DWIDTH 12 0
BBX 9 8 1 -1
BITMAP
FF00
0F00
FF00
C380
FF00
FF00
0300
0300
ENDCHAR
STARTCHAR B87C
ENCODING 14167
SWIDTH 1200 0
DWIDTH 12 0
BBX 9 8 1 -1
BITMAP
FF00
FF00
C380
FF00
FF00
0300
6000
7F80
ENDCHAR
STARTCHAR B88D
ENCODING 14168
SWIDTH 1200 0
DWIDTH 12 0
BBX 9 8 1 -1
BITMAP
FF00
FF00
C380
FF00
FF00
3600
3600
1E00
ENDCHAR
STARTCHAR B8A8
ENCODING 14169
SWIDTH 1200 0
DWIDTH 12 0
BBX 9 9 0 -1
BITMAP
C780
3F80
FF80
FF80
BF80
4000
3300
7F80
4C80
ENDCHAR
STARTCHAR B8B0
ENCODING 14170
SWIDTH 1200 0
DWIDTH 12 0
BBX 9 8 0 -1
BITMAP
7D80
0D80
7D80
7F80
1980
FF80
0180
0180
ENDCHAR
STARTCHAR B8B4
ENCODING 14171
SWIDTH 1200 0
DWIDTH 12 0
BBX 9 8 0 -1
BITMAP
FD80
FD80
C180
7F80
FF80
0180
6000
7F80
ENDCHAR
STARTCHAR B8B8
ENCODING 14172
SWIDTH 1200 0
DWIDTH 12 0
BBX 9 8 0 -1
BITMAP
FD80
FD80
7F80
FF80
0000
7F80
7F80
7F80
ENDCHAR
STARTCHAR B8C0
ENCODING 14173
SWIDTH 1200 0
DWIDTH 12 0
BBX 9 8 0 -1
BITMAP
FD80
FD80
C180
7F80
FF80
7F80
6180
3F80
ENDCHAR
STARTCHAR B8C1
ENCODING 14174
SWIDTH 1200 0
DWIDTH 12 0
BBX 9 8 0 -1
BITMAP
FD80
FD80
7F80
1980
FF80
0000
7F80
7F80
ENDCHAR
STARTCHAR B8C3
ENCODING 14175
SWIDTH 1200 0
DWIDTH 12 0
BBX 9 8 0 -1
BITMAP
7D80
0D80
7F80
1980
FF80
1D80
7E00
7380
ENDCHAR
STARTCHAR B8C5
ENCODING 14176
SWIDTH 1200 0
DWIDTH 12 0
BBX 9 8 0 -1
BITMAP
FD80
FD80
C180
7F80
FF80
1300
1300
1E00
ENDCHAR
STARTCHAR B8CC
ENCODING 14177
SWIDTH 1200 0
DWIDTH 12 0
BBX 9 8 0 -1
BITMAP
7F80
0180
7F80
6000
7F80
0000
3300
FF80
ENDCHAR
STARTCHAR B8D0
ENCODING 14178
SWIDTH 1200 0
DWIDTH 12 0
BBX 9 8 0 -1
BITMAP
7F80
7F80
6000
7F80
FF80
0000
6000
7F80
ENDCHAR
STARTCHAR B8D4
ENCODING 14179
SWIDTH 1200 0
DWIDTH 12 0
BBX 9 8 0 -1
BITMAP
7F80
7F80
7F80
3200
FF80
7F80
7F80
7F80
ENDCHAR
STARTCHAR B8DD
ENCODING 14180
SWIDTH 1200 0
DWIDTH 12 0
BBX 9 8 0 -1
BITMAP
7F80
7F80
6000
7F80
FF80
6180
7F80
7F80
ENDCHAR
STARTCHAR B8DF
ENCODING 14181
SWIDTH 1200 0
DWIDTH 12 0
BBX 9 9 0 -1
BITMAP
7F80
0180
7F80
6000
7F80
B600
4D00
7F80
6100
ENDCHAR
STARTCHAR B8E1
ENCODING 14182
SWIDTH 1200 0
DWIDTH 12 0
BBX 9 8 0 -1
BITMAP
7F80
7F80
6000
7F80
FF80
3200
3300
1E00
ENDCHAR
STARTCHAR B8E8
ENCODING 14183
SWIDTH 1200 0
DWIDTH 12 0
BBX 9 8 1 -1
BITMAP
FF00
FF00
C000
FF00
0000
FF80
1800
1800
ENDCHAR
STARTCHAR B8E9
ENCODING 14184
SWIDTH 1200 0
DWIDTH 12 0
BBX 10 8 0 -1
BITMAP
7F80
7F80
7F80
0000
FFC0
7F80
0180
0180
ENDCHAR
STARTCHAR B8EC
ENCODING 14185
SWIDTH 1200 0
DWIDTH 12 0
BBX 9 8 0 -1
BITMAP
7F80
7F80
6000
7F80
FF80
6C00
6000
7F80
ENDCHAR
STARTCHAR B8F0
ENCODING 14186
SWIDTH 1200 0
DWIDTH 12 0
BBX 9 8 0 -1
BITMAP
7F80
7F80
7F80
FF80
0C00
7F80
7F80
7F80
ENDCHAR
STARTCHAR B8F8
ENCODING 14187
SWIDTH 1200 0
DWIDTH 12 0
BBX 9 8 0 -1
BITMAP
7F80
7F80
7F80
0000
FF80
7F80
6180
7F80
ENDCHAR
STARTCHAR B8F9
ENCODING 14188
SWIDTH 1200 0
DWIDTH 12 0
BBX 9 8 0 -1
BITMAP
7F80
7F80
7F80
0000
FF80
6180
7F80
7F80
ENDCHAR
STARTCHAR B8FB
ENCODING 14189
SWIDTH 1200 0
DWIDTH 12 0
BBX 9 8 0 -1
BITMAP
7F80
0180
7F80
0000
FF00
0C00
7F00
7300
ENDCHAR
STARTCHAR B8FD
ENCODING 14190
SWIDTH 1200 0
DWIDTH 12 0
BBX 9 9 0 -2
BITMAP
7F80
7F80
7F80
0000
FF80
1C00
3E00
3200
1E00
ENDCHAR
STARTCHAR B904
ENCODING 14191
SWIDTH 1200 0
DWIDTH 12 0
BBX 9 8 0 -1
BITMAP
7D80
7D80
6180
7F80
FF80
1980
1F80
1980
ENDCHAR
STARTCHAR B918
ENCODING 14192
SWIDTH 1200 0
DWIDTH 12 0
BBX 9 8 0 -1
BITMAP
7D80
7F80
7D80
FF80
0000
3300
3F80
4D80
ENDCHAR
STARTCHAR B920
ENCODING 14193
SWIDTH 1200 0
DWIDTH 12 0
BBX 9 8 0 -1
BITMAP
FF80
FF80
C780
7F80
FF80
3780
3F80
3780
ENDCHAR
STARTCHAR B93C
ENCODING 14194
SWIDTH 1200 0
DWIDTH 12 0
BBX 9 9 0 -2
BITMAP
7D80
7D80
4180
7D80
0180
FF80
1980
1980
1800
ENDCHAR
STARTCHAR B93D
ENCODING 14195
SWIDTH 1200 0
DWIDTH 12 0
BBX 9 9 0 -1
BITMAP
0180
FD80
FD80
7F80
0180
FF80
7F80
0180
0180
ENDCHAR
STARTCHAR B940
ENCODING 14196
SWIDTH 1200 0
DWIDTH 12 0
BBX 9 9 0 -1
BITMAP
0180
FD80
FD80
C180
7F80
FF80
7980
6000
7F80
ENDCHAR
STARTCHAR B944
ENCODING 14197
SWIDTH 1200 0
DWIDTH 12 0
BBX 9 9 0 -1
BITMAP
0180
FD80
FD80
7D80
FF80
1800
7F80
7F80
7F80
ENDCHAR
ENDFONT
